<?xml version="1.0" encoding="UTF-8"?><svg id="Capa_2" xmlns="http://www.w3.org/2000/svg" xmlns:xlink="http://www.w3.org/1999/xlink" viewBox="0 0 583.29 128.9"><defs><style>.cls-1{fill:#6d3189;}.cls-2{fill:url(#linear-gradient);}</style><linearGradient id="linear-gradient" x1="18.88" y1="110.02" x2="110.02" y2="18.88" gradientUnits="userSpaceOnUse"><stop offset="0" stop-color="#8c589f"/><stop offset="1" stop-color="#90d1e0"/></linearGradient></defs><g id="Layer_1"><path class="cls-1" d="m340.69,43.33h-.15c-5.81,0-11.26,2.25-15.36,6.32-4.11,4.1-6.38,9.57-6.38,15.42,0,5.88,2.3,11.4,6.48,15.56,4.1,4.07,9.51,6.32,15.23,6.32h.12c11.91-.07,21.61-9.86,21.63-21.82,0-5.84-2.22-11.31-6.27-15.4-4.05-4.1-9.49-6.37-15.3-6.4Zm15.04,21.87c-.03,4.07-1.67,7.91-4.62,10.81-2.87,2.82-6.61,4.37-10.54,4.37h-.14c-8.37-.09-15.16-6.99-15.13-15.38.01-4.04,1.62-7.84,4.52-10.71,2.89-2.85,6.72-4.43,10.8-4.43,4.02.01,7.82,1.62,10.68,4.51,2.88,2.91,4.45,6.75,4.43,10.82Z"/><path class="cls-1" d="m519.25,43.33h-.07c-5.85,0-11.33,2.26-15.43,6.36-4.11,4.1-6.36,9.58-6.35,15.43.03,11.96,9.73,21.75,21.63,21.84h.16c5.71,0,11.1-2.23,15.19-6.28,4.18-4.15,6.48-9.68,6.49-15.57,0-5.83-2.23-11.3-6.29-15.39-4.06-4.09-9.5-6.36-15.32-6.38Zm-.15,37.06c-8.38-.03-15.2-6.9-15.2-15.3,0-8.38,6.83-15.21,15.24-15.22,4.04,0,7.85,1.59,10.72,4.47,2.89,2.89,4.48,6.72,4.46,10.78-.01,4.07-1.63,7.92-4.56,10.83-2.88,2.86-6.64,4.43-10.6,4.43h-.03s-.04,0-.04,0Z"/><path class="cls-1" d="m581.78,44.51c-.64-.09-1.17-.14-1.67-.14-.62,0-1.54.08-2.3.74-1.01.89-1.1,2.21-1.1,3.6-.01,6.84-.01,13.64,0,20.21v5.51s-3.51-4.75-3.51-4.75c-5.26-7.11-11.22-15.17-16.94-22.94-.7-.95-1.87-2.54-3.93-2.54-.61,0-1.25.15-1.91.44-.62.28-1.03.91-1.03,1.59v25.05c0,.91.71,1.67,1.62,1.74.38.03.79.05,1.19.05.81,0,1.84-.09,2.63-.83.95-.88,1.04-2.17,1.05-3.43.02-2.41.01-4.86.01-7.22v-.03c0-1.03,0-2.06,0-3.09v-.93c1.33,1.79,2.66,3.58,3.98,5.37,4.97,6.69,10.11,13.62,15.08,20.51,1.34,1.86,2.97,2.76,4.98,2.76.64,0,1.3-.09,2.04-.27.78-.19,1.32-.89,1.32-1.69v-37.98c0-.87-.65-1.62-1.52-1.73Z"/><path class="cls-1" d="m433.76,55.94c0,2.63.05,4.28.07,5.48.05,2.73.07,3.74-.11,9.47-.25,8.34-7.44,15.19-16.03,15.27h-.15c-8.81,0-15.96-6.83-16.29-15.55-.23-5.95-.18-12-.13-17.85.02-2.42.04-4.92.04-7.38,0-.46.13-.85.2-1.09v-.02s.03-.06.04-.09c.17-.68.73-1.19,1.43-1.3.66-.1,1.15-.14,1.57-.14.93,0,1.63.23,2.2.71,1.03.88,1.12,2.28,1.13,3.51.01,3.06,0,6.1,0,9.05,0,4.29-.01,8.72.03,13.1.04,4.92,2.65,8.78,6.81,10.08.98.31,1.98.46,2.98.46,2,0,3.91-.62,5.52-1.79,2.61-1.89,4.13-4.96,4.17-8.43.06-4.4.05-5.08.04-6.56v-.02c0-.95-.02-2.26-.02-5.06,0-.11-.01-.25-.02-.4v-.04c0-4.59,2.79-4.66,2.79-4.66,0,0,3.72-.03,3.72,3.26Z"/><path class="cls-1" d="m318.73,29.96c.18-.45.16-.96-.05-1.39-.21-.44-.59-.77-1.05-.91-.77-.24-1.46-.36-2.1-.36-1.93,0-3.34,1.12-4.2,3.33-1.45,3.75-3.86,10.09-6.2,16.23l-.04.1c-3.96,10.4-8.4,22.08-11.02,28.72-.64-1.6-1.28-3.2-1.93-4.81l-.1-.26c-3.03-7.57-6.17-15.39-9.21-23.14-.85-2.16-2.23-3.25-4.11-3.25-.64,0-1.31.12-2.07.38-.44.15-.81.47-1.01.89-.2.42-.23.91-.08,1.34.1.28.19.54.27.78.16.48.33.98.53,1.47,1.47,3.69,2.94,7.38,4.42,11.07l.03.08.04.11c2.94,7.36,5.98,14.98,8.95,22.47.5,1.26,1.34,3.38,4.23,3.41h.07c2.85,0,3.69-2.1,4.19-3.36l.02-.04c2.06-5.17,4.12-10.34,6.19-15.52l.13-.32c1.32-3.3,2.63-6.6,3.95-9.9.7-1.75,3.02-8,5.26-14.04,2.08-5.61,4.23-11.41,4.89-13.07Z"/><path class="cls-1" d="m273.69,78.08l-.26-.65c-1.53-3.82-3.05-7.6-4.57-11.38-.55-1.36-1.1-2.73-1.64-4.1l-.02-.04c-1.95-4.86-3.96-9.89-6.03-14.8-.54-1.28-2.19-2.7-3.77-2.78-.04,0-.08,0-.12,0-1.5,0-3.34,1.18-3.94,2.53-2.76,6.2-5.47,12.53-8.09,18.66l-1.81,4.24c-.08.19-.43,1.02-.43,1.02-.22.54-.17,1.15.16,1.64.32.49.87.78,1.45.78h7.49c.47,0,.95,0,1.42.01h.04c.47,0,.95.01,1.43.01.94,0,1.7-.03,2.4-.08,1.61-.13,3.25-1.22,3.27-3.05.03-1.83-1.65-3.16-3.22-3.35-.94-.11-1.94-.16-3.25-.16-.5,0-1,0-1.5.01-.25,0-.49,0-.74,0l5.19-12.07c.78,1.93,1.56,3.87,2.34,5.8v.03s.02.02.02.02c2.95,7.32,6,14.88,8.93,22.34.33.85,1.35,3.44,4.24,3.44.64,0,1.35-.13,2.11-.38.45-.15.83-.49,1.03-.92.2-.43.21-.94.03-1.38l-2.17-5.41Z"/><path class="cls-1" d="m234.63,86.53c-4.91-5.06-9.97-10.27-13.17-13.53,6.8-1.1,11.72-6.21,12.41-13.04.72-7.06-3.98-13.69-10.7-15.09-3.43-.72-6.83-.77-10.29-.77h-1.07s-1.03,0-1.03,0c-.81,0-1.5.55-1.69,1.33-.34,1.4-.17,2.55.5,3.41.94,1.21,2.49,1.37,3.58,1.39,2.66.03,5,.14,7.8.55,4.04.59,6.93,4.22,6.71,8.45-.21,4.09-3.54,7.36-7.73,7.61-.41.02-.84.04-1.4.04-.28,0-.56,0-.85,0-.3,0-.58,0-.87,0-.57,0-1.32,0-2.08.08-.09,0-.19,0-.29.01h-.03c-.71.02-2.86.07-3.42,2.18-.51,1.9.71,3.12,1.3,3.7l.16.16c3.59,3.7,26.49,27.45,30.13,31.25,1.21,1.26,2.57,1.85,4.28,1.85.79,0,1.65-.12,2.8-.38.62-.14,1.12-.61,1.29-1.23.17-.61,0-1.27-.46-1.72-2.18-2.14-9.13-9.3-15.85-16.23Z"/><path class="cls-1" d="m390.48,79.43c-7.42-1.65-11.71-6.95-11.76-14.54-.04-5.81-.05-28.45,0-34.62.01-1.59-.41-2.72-1.31-3.45-.61-.5-1.39-.75-2.32-.75-.44,0-.92.06-1.43.17-.8.17-1.38.89-1.38,1.71,0,1.98-.03,5.01-.06,8.52v.06c-.1,10.88-.23,25.78.2,31.66.52,7.15,4.51,12.73,11.53,16.13,2.49,1.21,4.74,1.79,6.89,1.79.49,0,.98-.03,1.46-.09.82-.1,1.46-.77,1.53-1.59.26-3.14-.19-4.3-3.36-5Z"/><path class="cls-1" d="m487.44,46.25c0-.88-.66-1.63-1.54-1.73-.63-.08-1.15-.13-1.64-.13-.65,0-1.61.08-2.37.75-.98.87-1.06,2.18-1.07,3.45-.02,11.7,0,23.36,0,34.22,0,.47.07.91.13,1.27h0s0,.02,0,.02c.02.12.04.24.05.35.1.8.74,1.43,1.54,1.51.56.06,1.02.1,1.47.1.65,0,1.61-.08,2.36-.75.96-.86,1.04-2.12,1.04-3.45.01-7.94,0-16,0-23.79v-11.83Z"/><path class="cls-1" d="m459.32,65.04c0-2.13,0-4.23,0-6.34v-2.5c0-.89-.67-1.64-1.56-1.73-.61-.07-1.11-.11-1.58-.11-.65,0-1.61.08-2.36.75-1.03.92-1.03,2.33-1.04,3.46-.02,8.27,0,16.47,0,24.11,0,.5.07.97.12,1.35.02.16.04.3.06.44.08.74.62,1.34,1.35,1.51.52.12,1.01.18,1.45.18.89,0,1.65-.24,2.25-.73,1.34-1.08,1.32-2.89,1.32-3.49-.04-5.63-.03-11.35-.02-16.89Z"/><path class="cls-1" d="m468.03,44.45c-.11-.02-.21-.04-.3-.07-.33-.08-.69-.16-1.12-.16-3.2,0-6.4,0-9.6,0-3.53,0-7.04,0-10.56-.01h-.06c-1.37,0-2.41.42-3.08,1.26-.97,1.21-.76,2.79-.52,3.88.17.76.83,1.32,1.61,1.36.21.01.41.02.59.04.41.03.76.05,1.14.05h4.33c1.91,0,3.84,0,5.78,0,3.79,0,6.85,0,9.63-.02,1.26,0,2.23-.41,2.89-1.19.97-1.15.84-2.67.67-3.72-.12-.72-.68-1.29-1.4-1.43Z"/><path class="cls-1" d="m183.56,58.77v-2.6c0-.83-.59-1.55-1.41-1.71-.52-.1-1-.15-1.44-.15-.99,0-1.8.26-2.43.78-1.31,1.08-1.3,2.89-1.3,3.49.03,5.22.03,10.51.02,15.62,0,2.9,0,5.79,0,8.68,0,.39-.02,1.11-.03,1.32h0c-.03.94.68,1.73,1.61,1.8.53.04.97.07,1.38.07.78,0,1.77-.09,2.54-.81.96-.88,1.04-2.2,1.04-3.47.01-5.62,0-11.2,0-16.59v-6.43Z"/><path class="cls-1" d="m197.42,44.2h-7.5s-6.64,0-6.64,0c-2.71,0-5.41,0-8.12,0-3.06,0-6.13,0-9.19,0h-.09s0,0,0,0c-3.96,0-4.69,2.19-4.77,3.5-.05.88.2,1.64.74,2.2.79.81,1.89.92,2.76.92.2,0,.41,0,.61-.01.15,0,.3,0,.44,0h.08c1.44,0,2.89,0,4.34,0,1.9,0,3.8,0,5.71,0h.36c1.95,0,3.91,0,5.89,0,4.89,0,8.62,0,12.11.02h.03c2.39,0,3.83-.51,4.64-1.66.7-.98.78-2.25.24-3.79-.24-.7-.91-1.17-1.65-1.17Z"/><path class="cls-2" d="m64.45,0C28.86,0,0,28.86,0,64.45s28.86,64.45,64.45,64.45,64.45-28.86,64.45-64.45S100.04,0,64.45,0Zm0,120.19c-30.79,0-55.74-24.96-55.74-55.74S33.66,8.71,64.45,8.71s55.74,24.96,55.74,55.74-24.96,55.74-55.74,55.74Z"/></g></svg>