<svg width="1209" height="245" viewBox="0 0 1209 245" fill="none" xmlns="http://www.w3.org/2000/svg">
<g clip-path="url(#clip0_287_119)">
<path d="M204.842 90.958H277.805V59.8572H204.842V44.0044H284.463V9.67773H156.141V131.359L104.514 9.67773H56.595L0 143.003H49.2306L56.595 122.185H103.455L111.046 143.003H287.49V108.676H204.867V90.9832L204.842 90.958ZM64.5648 94.4108L80.1259 53.0776L96.3175 94.4108H64.5648Z" fill="#0075BE"/>
<path d="M433.92 115.607C433.92 88.7655 424.11 85.4134 407.918 80.2468C425.825 75.9875 435.308 63.033 435.308 47.6591C435.308 21.725 416.871 9.70312 365.724 9.70312H293.265V143.028H341.941V96.5533H358.889C382.344 96.5533 387.338 102.3 387.338 119.69C387.338 131.535 390.238 140.054 391.499 143.028H439.217V138.945C433.265 138.945 433.895 133.022 433.895 115.607H433.92ZM363.378 67.2672H341.941V42.3916H366.985C378.713 42.3916 387.212 45.2144 387.212 54.6656C387.212 64.1168 378.914 67.2672 363.353 67.2672H363.378Z" fill="#0075BE"/>
<path d="M606.984 0C591.247 0 578.51 12.7276 578.51 28.4544C578.51 44.1812 591.247 56.9088 606.984 56.9088C622.722 56.9088 635.458 44.1812 635.458 28.4544C635.458 12.7276 622.722 0 606.984 0Z" fill="#0075BE"/>
<path d="M583.403 63.3856L583.327 143.002H630.364L630.389 63.5872C623.705 68.0481 615.635 70.6189 606.984 70.6189C598.334 70.6189 590.137 67.9221 583.378 63.3604L583.403 63.3856Z" fill="black"/>
<path d="M439.973 9.67773V44.6849H485.144V143.028H530.591V44.6597H568.018C565.9 39.6443 564.715 34.15 564.715 28.4037C564.715 21.6744 566.631 15.3232 569.431 9.67773H439.973Z" fill="black"/>
<path d="M716.694 113.918C691.145 113.918 686.429 96.3263 686.429 77.6256C686.429 51.8932 697.097 38.7371 714.777 38.7371C730.565 38.7371 738.964 45.0883 740.426 58.9753H788.169C784.109 24.7241 759.518 6.14941 712.633 6.14941C669.809 6.14941 636.139 32.9908 636.139 76.1386C636.139 119.286 666.833 146.506 717.551 146.506C758.03 146.506 784.789 125.764 789.254 91.3361H740.88C738.964 104.114 732.886 113.918 716.694 113.918Z" fill="black"/>
<path d="M947.437 9.67773V136.399L888.875 59.8572L943.326 9.67773H884.285L841.788 52.8256V9.67773H793.112V143.003H841.788V100.787L853.717 89.849L892.204 143.003H947.437H952.507H1077.15V108.676H994.524V90.958H1067.46V59.8572H994.524L994.499 44.4329L1115.28 44.2313L1115.15 143.003H1165.44V44.2313H1209V9.67773H947.437Z" fill="black"/>
<path d="M21.1097 190.813H0.327881V185.42H48.1209V190.813H27.3391V244.471H21.0844V190.813H21.1097Z" fill="black"/>
<path d="M58.0831 185.42H64.3378V244.471H58.0831V185.42Z" fill="black"/>
<path d="M78.3604 214.958C78.3604 197.669 91.5256 184.916 109.357 184.916C117.957 184.916 125.725 187.789 130.971 193.535L127.011 197.492C122.194 192.603 116.292 190.486 109.533 190.486C95.2582 190.486 84.5395 200.945 84.5395 214.958C84.5395 228.971 95.2582 239.43 109.533 239.43C116.292 239.43 122.194 237.313 127.011 232.348L130.971 236.305C125.725 242.052 117.957 245 109.281 245C91.5508 245 78.3856 232.248 78.3856 214.958H78.3604Z" fill="black"/>
<path d="M162.597 216.722L150.517 228.946V244.471H144.262V185.42H150.517V221.108L185.22 185.42H192.408L166.834 212.16L194.199 244.471H186.759L162.622 216.722H162.597Z" fill="black"/>
<path d="M246.103 239.077V244.471H204.312V185.42H244.842V190.813H210.567V211.833H241.134V217.151H210.567V239.077H246.103Z" fill="black"/>
<path d="M272.282 190.813H251.5V185.42H299.293V190.813H278.511V244.471H272.256V190.813H272.282Z" fill="black"/>
<path d="M302.672 237.313L305.119 232.5C309.331 236.633 316.846 239.682 324.614 239.682C335.686 239.682 340.478 235.045 340.478 229.223C340.478 213.018 304.085 222.973 304.085 201.122C304.085 192.427 310.844 184.916 325.875 184.916C332.559 184.916 339.469 186.857 344.186 190.158L342.067 195.123C336.998 191.822 331.096 190.234 325.85 190.234C315.031 190.234 310.239 195.048 310.239 200.945C310.239 217.151 346.632 207.347 346.632 228.87C346.632 237.565 339.696 244.975 324.589 244.975C315.712 244.975 307.036 241.85 302.647 237.288L302.672 237.313Z" fill="black"/>
<path d="M356.796 240.262C356.796 237.641 358.814 235.7 361.26 235.7C363.706 235.7 365.825 237.641 365.825 240.262C365.825 242.883 363.706 244.899 361.26 244.899C358.814 244.899 356.796 242.883 356.796 240.262Z" fill="black"/>
<path d="M413.441 190.813H392.66V185.42H440.453V190.813H419.671V244.471H413.416V190.813H413.441Z" fill="black"/>
<path d="M492.23 239.077V244.471H450.44V185.42H490.969V190.813H456.695V211.833H487.262V217.151H456.695V239.077H492.23Z" fill="black"/>
<path d="M501.335 214.958C501.335 197.669 514.5 184.916 532.331 184.916C540.932 184.916 548.699 187.789 553.945 193.535L549.986 197.492C545.169 192.603 539.267 190.486 532.508 190.486C518.233 190.486 507.514 200.945 507.514 214.958C507.514 228.971 518.233 239.43 532.508 239.43C539.267 239.43 545.169 237.313 549.986 232.348L553.945 236.305C548.699 242.052 540.931 245 532.256 245C514.526 245 501.36 232.248 501.36 214.958H501.335Z" fill="black"/>
<path d="M616.669 185.42V244.471H610.515V217.226H573.542V244.471H567.287V185.42H573.542V211.757H610.515V185.42H616.669Z" fill="black"/>
<path d="M685.294 185.42V244.471H680.149L642.167 196.535V244.471H635.912V185.42H641.057L679.14 233.356V185.42H685.294Z" fill="black"/>
<path d="M704.563 185.42H710.817V244.471H704.563V185.42Z" fill="black"/>
<path d="M748.371 216.722L736.29 228.946V244.471H730.036V185.42H736.29V221.108L770.994 185.42H778.182L752.608 212.16L779.972 244.471H772.532L748.371 216.722Z" fill="black"/>
<path d="M784.916 240.262C784.916 237.641 786.933 235.7 789.38 235.7C791.826 235.7 793.945 237.641 793.945 240.262C793.945 242.883 791.826 244.899 789.38 244.899C786.933 244.899 784.916 242.883 784.916 240.262Z" fill="black"/>
<path d="M824.436 237.313L826.883 232.5C831.094 236.633 838.61 239.682 846.378 239.682C857.45 239.682 862.242 235.045 862.242 229.223C862.242 213.018 825.849 222.973 825.849 201.122C825.849 192.427 832.608 184.916 847.639 184.916C854.297 184.916 861.233 186.857 865.949 190.158L863.831 195.123C858.762 191.822 852.86 190.234 847.614 190.234C836.794 190.234 832.002 195.048 832.002 200.945C832.002 217.151 868.396 207.347 868.396 228.87C868.396 237.565 861.46 244.975 846.353 244.975C837.501 244.975 828.799 241.85 824.411 237.288L824.436 237.313Z" fill="black"/>
<path d="M923.805 239.077V244.471H882.015V185.42H922.544V190.813H888.27V211.833H918.837V217.151H888.27V239.077H923.805Z" fill="black"/>
<path d="M978.862 244.496L965.344 225.518C963.831 225.695 962.292 225.77 960.602 225.77H944.739V244.496H938.484V185.445H960.602C975.634 185.445 984.738 193.031 984.738 205.709C984.738 214.983 979.846 221.486 971.22 224.258L985.646 244.522H978.812L978.862 244.496ZM978.534 205.683C978.534 196.232 972.279 190.839 960.476 190.839H944.764V220.453H960.476C972.305 220.453 978.534 214.958 978.534 205.683Z" fill="black"/>
<path d="M1048.67 185.42L1022.49 244.471H1016.34L990.161 185.42H996.92L1019.54 236.708L1042.34 185.42H1048.67Z" fill="black"/>
<path d="M1057.2 185.42H1063.45V244.471H1057.2V185.42Z" fill="black"/>
<path d="M1077.47 214.958C1077.47 197.669 1090.64 184.916 1108.47 184.916C1117.1 184.916 1124.84 187.789 1130.08 193.535L1126.13 197.492C1121.31 192.603 1115.41 190.486 1108.65 190.486C1094.37 190.486 1083.65 200.945 1083.65 214.958C1083.65 228.971 1094.37 239.43 1108.65 239.43C1115.41 239.43 1121.31 237.313 1126.13 232.348L1130.08 236.305C1124.84 242.052 1117.07 245 1108.4 245C1090.67 245 1077.5 232.248 1077.5 214.958H1077.47Z" fill="black"/>
<path d="M1185.19 239.077V244.471H1143.4V185.42H1183.93V190.813H1149.66V211.833H1180.22V217.151H1149.66V239.077H1185.19Z" fill="black"/>
<path d="M1195.58 240.262C1195.58 237.641 1197.6 235.7 1200.05 235.7C1202.49 235.7 1204.61 237.641 1204.61 240.262C1204.61 242.883 1202.49 244.899 1200.05 244.899C1197.6 244.899 1195.58 242.883 1195.58 240.262Z" fill="black"/>
</g>
<defs>
<clipPath id="clip0_287_119">
<rect width="1209" height="245" fill="white"/>
</clipPath>
</defs>
</svg>
