<svg width="166" height="64" viewBox="0 0 166 64" fill="none" xmlns="http://www.w3.org/2000/svg">
<path d="M45.3733 36.499C45.6661 36.499 45.8753 36.5808 46.0427 36.7444C46.21 36.908 46.2937 37.1535 46.2937 37.3989C46.2937 37.6443 46.21 37.8488 46.0427 38.0125C45.8753 38.1761 45.6661 38.2579 45.3733 38.2579C43.4488 38.2579 41.5243 38.1761 39.558 38.0125C38.8468 39.8941 38.2611 41.4894 37.8009 42.8393C37.3407 44.1891 36.8386 45.7435 36.3366 47.4615C35.8345 49.1795 35.458 50.6521 35.2488 51.8384C35.0396 53.0246 34.956 54.17 34.9978 55.2744C35.0396 56.3788 35.2488 57.1969 35.6672 57.7287C35.709 57.8105 35.7509 57.8923 35.7927 57.9741C35.9182 58.1378 35.96 58.3014 35.96 58.5059C35.96 58.7513 35.8764 58.9559 35.709 59.1195C35.5417 59.2831 35.3325 59.3649 35.0815 59.3649C34.7468 59.3649 34.4121 59.324 34.0774 59.2013C33.7427 59.0786 33.2825 58.8331 32.8223 58.5059C32.3621 58.1378 31.9437 57.5651 31.6509 56.7061C31.358 55.8471 31.1907 54.7835 31.1907 53.4746C31.1907 49.9158 32.5294 44.5573 35.207 37.3989C32.5713 36.9898 28.9733 36.1308 24.455 34.9037C23.5346 34.6582 22.8233 34.4946 22.3631 34.3719C18.8489 38.3397 15.8784 42.4711 13.3264 46.7252C10.7744 50.9794 8.93356 54.8654 7.80397 58.5059C7.67846 58.915 7.38561 59.1604 6.96724 59.1604C6.88357 59.1604 6.79989 59.1604 6.71622 59.1195C6.4652 59.0786 6.29785 58.9559 6.17234 58.7104C6.04683 58.465 6.04683 58.2605 6.13051 58.056C8.5152 50.3249 13.2846 42.2666 20.355 33.8401C16.6315 32.9402 13.5356 32.4903 10.9417 32.4903C7.80397 32.4903 5.33561 33.5129 3.53663 35.5172C2.2397 36.9898 1.65399 38.4624 1.86317 39.8941C1.86317 40.1395 1.7795 40.344 1.65399 40.5486C1.52848 40.7531 1.31929 40.8758 1.06827 40.9167C1.02644 40.9167 0.984599 40.9167 0.942762 40.9167C0.440723 40.9167 0.106029 40.6713 0.0641927 40.1395C-0.228664 38.1352 0.482559 36.2126 2.15603 34.331C4.33153 31.9176 7.30193 30.6904 10.9417 30.6904C13.7448 30.6904 17.3009 31.2222 21.6101 32.3266C22.0284 31.8767 22.4468 31.3449 22.9907 30.8132C26.4631 27.009 29.8101 23.8593 33.1152 21.405C36.8386 18.6234 39.809 17.2327 42.0264 17.2327C42.9886 17.2327 43.6998 17.5599 44.16 18.2144C44.5366 18.6643 44.7039 19.3188 44.7457 20.1369C44.7876 20.955 44.7457 21.814 44.5784 22.7139C44.4529 23.6139 44.1182 24.841 43.658 26.3545C43.1978 27.868 42.6957 29.2997 42.2355 30.6086C41.7753 31.9176 41.1059 33.7174 40.2692 35.9672C40.2274 36.049 40.2274 36.1308 40.2274 36.2126C41.9427 36.4172 43.658 36.499 45.3733 36.499ZM24.8315 33.1857C29.4754 34.4537 33.1152 35.2718 35.7927 35.7627C35.96 35.3127 36.2947 34.3719 36.8804 32.9402C37.257 32.0403 37.508 31.3449 37.6753 30.8541C37.8427 30.3632 38.0937 29.7087 38.4702 28.8497C38.8049 27.9907 39.056 27.2953 39.2233 26.8045C39.3906 26.3136 39.5998 25.7 39.809 24.9637C40.06 24.2274 40.2274 23.6548 40.3111 23.2048C40.3947 22.7549 40.5202 22.3049 40.5621 21.814C40.6457 21.3641 40.6457 20.955 40.6039 20.6278C40.5621 20.3005 40.4784 20.096 40.3529 19.9324C40.2692 19.8097 40.1019 19.7688 39.809 19.7688C38.8049 19.7688 36.9223 20.7914 34.1192 22.7958C30.9815 25.2092 27.7182 28.277 24.3295 31.9994C24.0784 32.2857 23.8274 32.5721 23.5346 32.8584C24.1203 32.9811 24.5805 33.1038 24.8315 33.1857Z" fill="#0C2340"/>
<path d="M69.6803 32.9812C70.0569 32.5313 70.4752 32.4495 70.9773 32.8176C71.4793 33.1858 71.563 33.5948 71.1865 34.0448C70.4752 35.0265 68.4252 36.0491 65.0365 37.1945C61.6477 38.2989 57.9242 38.9534 53.9079 39.1579C55.163 40.6305 56.0834 42.144 56.7528 43.6984C57.4222 45.2528 57.7569 46.6844 57.7569 48.0752C57.7569 49.4251 57.6732 50.6113 57.5059 51.634C57.2967 52.6566 57.0038 53.6383 56.6273 54.5791C56.1253 55.8063 55.414 56.9516 54.5773 58.097C54.5773 58.097 54.5773 58.097 54.5355 58.1379L54.4936 58.1788L54.4518 58.2197C53.2804 59.7741 51.9834 61.0421 50.5191 61.9829C49.0549 62.9238 47.7579 63.4146 46.6702 63.4146C43.8671 63.4146 42.4865 61.5739 42.4865 57.9333C42.4865 52.043 44.8294 44.3938 49.5569 34.9447C51.4396 31.1814 53.364 27.7863 55.3304 24.7593C57.2967 21.7732 58.8865 19.6871 60.0161 18.5417C60.4763 18.1327 61.1875 17.8464 62.0661 17.7645C62.9446 17.6827 63.614 17.8464 64.0324 18.2145C64.6181 18.7872 64.5763 19.4417 63.9069 20.0961C63.0701 20.9142 61.6895 22.7959 59.765 25.7819C57.8406 28.768 55.9579 32.0813 54.0753 35.681C53.7406 36.2536 53.4895 36.8672 53.2385 37.4399C57.1712 37.2763 60.7691 36.7036 64.0324 35.6401C67.2538 34.6174 69.1365 33.7175 69.6803 32.9812ZM54.8702 53.8019C57.0038 48.8115 56.0416 44.1483 51.9834 39.7715C48.3436 47.5435 46.5447 53.5565 46.5447 57.8515C46.5447 58.7105 46.6283 59.365 46.7538 59.815C46.8794 60.2649 47.0467 60.5104 47.1722 60.5922C47.2977 60.6331 47.5069 60.674 47.7579 60.674C48.4692 60.674 49.3477 60.3058 50.4355 59.5286C51.4814 58.7514 52.36 57.9333 53.0293 57.0334C53.0712 56.9925 53.0712 56.9925 53.0712 56.9925C53.8242 55.9699 54.41 54.9064 54.8702 53.8019Z" fill="#0C2340"/>
<path d="M104.279 15.4328C104.739 15.0238 105.2 15.0647 105.576 15.5556C105.953 16.0464 105.911 16.4146 105.409 16.7827C103.694 18.0917 101.769 19.1552 99.5936 19.9324C97.4599 20.7096 94.6568 21.0778 91.2681 21.0778C88.5069 21.0778 85.5783 20.7914 82.3987 20.2187C71.563 35.3536 66.1242 46.4389 66.1242 53.4337C66.1242 55.1926 66.4171 56.5016 67.0028 57.4015C67.1702 57.7287 67.1702 58.015 67.0028 58.3014C66.8355 58.5877 66.5844 58.7513 66.2079 58.7513C65.8314 58.7513 65.4967 58.6695 65.1202 58.5468C64.7436 58.4241 64.3671 58.1378 63.9487 57.7696C63.5304 57.3606 63.1957 56.7061 62.9028 55.8062C62.61 54.9063 62.4845 53.7609 62.4845 52.452C62.4845 50.5294 62.861 48.3615 63.5722 45.8662C64.2834 43.371 65.2038 40.9985 66.2498 38.6669C67.3375 36.3354 68.5926 33.9219 70.0569 31.4267C71.5212 28.9315 72.8599 26.6817 74.115 24.8001C75.3701 22.8776 76.6671 21.0368 77.964 19.3188C76.2069 18.9098 73.613 18.1735 70.1824 17.1509C67.212 16.3328 64.9528 15.7192 63.4049 15.2692C61.8151 14.8602 59.8069 14.4102 57.3804 14.0012C54.912 13.5921 52.6528 13.3876 50.6028 13.3876C42.6539 13.3876 36.5876 15.5965 32.4039 20.0142C31.9855 20.4233 31.5672 20.4642 31.1488 20.0551C30.7304 19.6461 30.6886 19.237 31.107 18.7871C31.9855 17.8872 32.9059 17.0691 33.8682 16.3737C34.8304 15.6783 36.1274 14.8193 37.6753 14.0421C39.2233 13.2649 41.1059 12.6513 43.3233 12.2423C45.5406 11.8332 48.009 11.5878 50.6865 11.5878C52.8202 11.5878 55.2049 11.7923 57.7569 12.2423C60.3089 12.6922 62.4426 13.1013 64.0324 13.5103C65.664 13.9194 67.8814 14.5738 70.7681 15.4328C74.5334 16.4964 77.3365 17.2327 79.2191 17.7235C80.0559 16.5782 80.7671 15.6783 81.3528 14.9829C81.8548 14.3693 82.6079 13.8375 83.5701 13.3876C84.5324 12.9376 85.2854 12.8967 85.7875 13.3058C86.4987 13.8375 86.4569 14.6966 85.6201 15.801C85.5365 15.9646 85.2854 16.2919 84.9089 16.7827C84.365 17.5599 83.9048 18.1735 83.612 18.5825C86.3313 19.0325 88.8834 19.2779 91.3099 19.2779C93.1507 19.2779 94.8242 19.1552 96.3721 18.9098C97.9201 18.6643 99.217 18.2962 100.263 17.8053C101.309 17.3145 102.104 16.9054 102.606 16.6191C103.108 16.3328 103.694 15.9237 104.279 15.4328Z" fill="#0C2340"/>
<path d="M106.999 33.1857C107.375 32.7358 107.794 32.6539 108.254 33.0221C108.714 33.3902 108.756 33.7993 108.379 34.2901C106.915 36.09 105.032 37.9307 102.773 39.8532C100.514 41.7758 98.1712 43.412 95.7446 44.7619C95.7028 44.8028 95.5773 44.8437 95.3681 44.9255C95.3681 44.9664 95.3681 44.9664 95.3263 44.9664C91.6028 47.0116 88.2977 47.9934 85.3273 47.9934C84.9926 47.9934 84.6998 47.9525 84.4069 47.9115C84.114 47.8706 83.6957 47.7479 83.1936 47.6252C82.6916 47.5025 82.2314 47.2571 81.8549 46.9707C81.4365 46.6435 81.06 46.2753 80.6834 45.8254C80.3069 45.3754 80.014 44.7619 79.8049 44.0256C79.5957 43.2484 79.4702 42.3894 79.4702 41.4076C79.4702 38.0534 80.8508 34.9037 83.612 31.9177C84.9089 30.5269 86.2895 29.4224 87.7957 28.6043C89.3018 27.7862 90.7661 27.4181 92.1467 27.4181C93.2763 27.4181 93.9875 27.868 94.2803 28.8089C94.3222 28.9316 94.364 29.0543 94.4059 29.177C94.615 30.4042 93.9038 31.7131 92.3559 33.2266C90.7661 34.6992 88.214 36.09 84.6161 37.3171C84.0722 38.6261 83.7793 39.9351 83.7793 41.1622C83.7793 42.6348 84.0722 43.7392 84.6998 44.4346C85.3273 45.13 86.2895 45.4981 87.5865 45.4981C89.4691 45.4981 91.6028 44.8846 94.0293 43.6165C95.7028 42.7166 97.3763 41.6531 99.0497 40.4259C100.723 39.1988 102.229 37.9716 103.526 36.7445C104.907 35.5582 106.036 34.3311 106.999 33.1857ZM92.5232 30.1178C91.3936 30.2814 90.264 30.8132 89.0508 31.7131C87.8375 32.613 86.7916 33.7175 85.8712 34.9855C88.0048 34.1265 89.5528 33.2675 90.5987 32.3676C91.6446 31.5086 92.2722 30.7723 92.5232 30.1178Z" fill="#0C2340"/>
<path d="M125.951 30.6497C126.202 31.1815 126.034 31.5905 125.49 31.8359C124.194 32.3677 122.269 32.6541 119.801 32.695C117.751 32.695 116.328 32.8995 115.492 33.2676C114.153 33.9221 112.563 35.6401 110.722 38.3808C108.923 41.1214 107.543 43.903 106.622 46.7254C106.622 46.8072 106.622 46.8481 106.58 46.889C106.329 47.4208 105.911 47.7071 105.283 47.7071C104.698 47.7071 104.196 47.4208 103.819 46.8481C103.443 46.2754 103.233 45.621 103.233 44.8438C103.233 42.7576 103.694 40.3851 104.614 37.6445C105.618 34.6993 107.124 31.6314 109.174 28.4408C109.634 27.6227 110.346 27.0501 111.224 26.7637C112.103 26.4774 112.814 26.5183 113.358 26.9273C113.693 27.1319 113.902 27.3773 113.985 27.7454C114.069 28.1136 114.027 28.5226 113.776 28.9726C112.479 31.0997 111.475 32.7768 110.806 33.963C109.844 35.681 109.091 37.2763 108.463 38.708C110.722 34.9447 112.814 32.6131 114.738 31.6723C115.826 31.1815 117.5 30.8951 119.843 30.8951C122.018 30.8542 123.692 30.6088 124.821 30.1179C125.072 30.0361 125.281 30.0361 125.532 30.1588C125.7 30.3225 125.867 30.4452 125.951 30.6497Z" fill="#0C2340"/>
<path fill-rule="evenodd" clip-rule="evenodd" d="M128.154 5.08965L146.813 31.0644L126.229 60.2706C125.56 61.2114 124.096 61.9477 122.966 61.9477H112.925C110.624 61.9477 109.788 60.4342 111.085 58.5526L129.786 31.228L113.678 8.44387C112.381 6.60314 113.176 5.08965 115.519 5.08965H128.154ZM147.984 34.1323L162 54.094C163.297 55.9347 162.502 57.4073 161.163 57.4482H161.079H150.076C148.905 57.4482 147.441 56.7119 146.813 55.7711L139.701 45.6675L147.984 34.1323ZM163.548 0.590088C165.849 0.590088 166.685 2.10358 165.388 3.98521L148.277 28.4056L139.701 16.9112L151.122 0.590088H163.548Z" fill="#0B59DE"/>
<mask id="mask0_238_1331" style="mask-type:alpha" maskUnits="userSpaceOnUse" x="110" y="0" width="56" height="62">
<path fill-rule="evenodd" clip-rule="evenodd" d="M128.154 5.08965L146.813 31.0644L126.229 60.2706C125.56 61.2114 124.096 61.9477 122.966 61.9477H112.925C110.624 61.9477 109.788 60.4342 111.085 58.5526L129.786 31.228L113.678 8.44387C112.381 6.60314 113.176 5.08965 115.519 5.08965H128.154ZM147.984 34.1323L162 54.094C163.297 55.9347 162.502 57.4073 161.163 57.4482H161.079H150.076C148.905 57.4482 147.441 56.7119 146.813 55.7711L139.701 45.6675L147.984 34.1323ZM163.548 0.590088C165.849 0.590088 166.685 2.10358 165.388 3.98521L148.277 28.4056L139.701 16.9112L151.122 0.590088H163.548Z" fill="#0B59DE"/>
</mask>
<g mask="url(#mask0_238_1331)">
<path fill-rule="evenodd" clip-rule="evenodd" d="M120.031 26.1723L122.29 58.9782H157.935L160.194 26.1723C160.194 26.1723 153.918 29.0765 146.43 27.6858C140.489 26.5813 132.414 24.5361 127.687 28.3811C122.625 32.5126 121.37 37.9938 121.37 37.9938" fill="url(#paint0_linear_238_1331)"/>
<path fill-rule="evenodd" clip-rule="evenodd" d="M173.163 25.7222L170.904 86.9162L88.6533 85.7709L120.031 25.7222C120.031 25.7222 126.432 31.1217 133.921 29.7309C139.861 28.6674 140.782 24.6587 147.978 23.8406C155.634 22.9816 152.12 25.5177 152.12 25.5177L173.163 25.7222Z" fill="url(#paint1_linear_238_1331)"/>
<path fill-rule="evenodd" clip-rule="evenodd" d="M109.035 51.5171C105.604 54.994 112.423 57.1211 129.409 57.8983C146.395 58.6755 156.143 51.108 158.653 35.1959L169.07 69.5153L99.3703 65.752L109.035 51.5171Z" fill="url(#paint2_linear_238_1331)"/>
<path opacity="0.6" d="M137.518 39.9115C138.35 39.9115 139.025 39.2522 139.025 38.4389C139.025 37.6256 138.35 36.9663 137.518 36.9663C136.687 36.9663 136.012 37.6256 136.012 38.4389C136.012 39.2522 136.687 39.9115 137.518 39.9115Z" fill="white"/>
<path opacity="0.4" d="M133.753 45.229C134.585 45.229 135.259 44.5697 135.259 43.7564C135.259 42.9431 134.585 42.2838 133.753 42.2838C132.921 42.2838 132.247 42.9431 132.247 43.7564C132.247 44.5697 132.921 45.229 133.753 45.229Z" fill="white"/>
<path opacity="0.4" d="M147.559 44.82C148.391 44.82 149.065 44.1607 149.065 43.3475C149.065 42.5342 148.391 41.8749 147.559 41.8749C146.727 41.8749 146.053 42.5342 146.053 43.3475C146.053 44.1607 146.727 44.82 147.559 44.82Z" fill="white"/>
<path opacity="0.8" d="M138.021 32.794C138.644 32.794 139.15 32.2995 139.15 31.6895C139.15 31.0796 138.644 30.5851 138.021 30.5851C137.397 30.5851 136.891 31.0796 136.891 31.6895C136.891 32.2995 137.397 32.794 138.021 32.794Z" fill="white"/>
<path opacity="0.8" d="M141.786 31.1578C142.41 31.1578 142.915 30.6634 142.915 30.0534C142.915 29.4434 142.41 28.949 141.786 28.949C141.162 28.949 140.656 29.4434 140.656 30.0534C140.656 30.6634 141.162 31.1578 141.786 31.1578Z" fill="white"/>
<path opacity="0.8" d="M138.774 28.2945C139.12 28.2945 139.401 28.0198 139.401 27.681C139.401 27.3421 139.12 27.0674 138.774 27.0674C138.427 27.0674 138.146 27.3421 138.146 27.681C138.146 28.0198 138.427 28.2945 138.774 28.2945Z" fill="white"/>
<path opacity="0.3" d="M122.332 56.6825C123.834 56.6825 125.051 55.4921 125.051 54.0237C125.051 52.5553 123.834 51.3649 122.332 51.3649C120.83 51.3649 119.612 52.5553 119.612 54.0237C119.612 55.4921 120.83 56.6825 122.332 56.6825Z" fill="white"/>
<path opacity="0.3" d="M152.663 50.5468C153.819 50.5468 154.755 49.6311 154.755 48.5016C154.755 47.372 153.819 46.4563 152.663 46.4563C151.508 46.4563 150.572 47.372 150.572 48.5016C150.572 49.6311 151.508 50.5468 152.663 50.5468Z" fill="white"/>
</g>
<defs>
<linearGradient id="paint0_linear_238_1331" x1="140.099" y1="26.1789" x2="140.099" y2="58.9855" gradientUnits="userSpaceOnUse">
<stop stop-color="#85BADC"/>
<stop offset="1" stop-color="#8CC9FF"/>
</linearGradient>
<linearGradient id="paint1_linear_238_1331" x1="130.907" y1="23.6699" x2="130.907" y2="86.8927" gradientUnits="userSpaceOnUse">
<stop stop-color="#C0E6FF"/>
<stop offset="1" stop-color="#8CC9FF"/>
</linearGradient>
<linearGradient id="paint2_linear_238_1331" x1="134.187" y1="35.1547" x2="134.187" y2="69.4864" gradientUnits="userSpaceOnUse">
<stop stop-color="#85BADC"/>
<stop offset="1" stop-color="#8CC9FF"/>
</linearGradient>
</defs>
</svg>
