<svg width="518" height="169" viewBox="0 0 518 169" fill="none" xmlns="http://www.w3.org/2000/svg">
<path d="M533 0H0.5L169 169H533V0Z" fill="white"/>
<path d="M215.081 88.7274C215.42 88.7274 215.663 88.8247 215.857 89.0194C216.051 89.2141 216.148 89.5061 216.148 89.7982C216.148 90.0902 216.051 90.3336 215.857 90.5283C215.663 90.723 215.42 90.8203 215.081 90.8203C212.848 90.8203 210.616 90.723 208.335 90.5283C207.51 92.7672 206.831 94.6655 206.297 96.2717C205.763 97.8779 205.181 99.7274 204.599 101.772C204.016 103.816 203.579 105.568 203.337 106.98C203.094 108.391 202.997 109.754 203.046 111.068C203.094 112.382 203.337 113.356 203.822 113.989C203.871 114.086 203.919 114.183 203.968 114.281C204.113 114.475 204.162 114.67 204.162 114.913C204.162 115.205 204.065 115.449 203.871 115.643C203.677 115.838 203.434 115.935 203.143 115.935C202.754 115.935 202.366 115.887 201.978 115.741C201.59 115.595 201.056 115.303 200.522 114.913C199.988 114.475 199.503 113.794 199.163 112.772C198.824 111.75 198.63 110.484 198.63 108.927C198.63 104.692 200.183 98.3159 203.288 89.7982C200.231 89.3115 196.058 88.2893 190.817 86.8291C189.749 86.5371 188.924 86.3424 188.39 86.1964C184.314 90.9177 180.868 95.8336 177.908 100.896C174.948 105.958 172.813 110.581 171.503 114.913C171.357 115.4 171.017 115.692 170.532 115.692C170.435 115.692 170.338 115.692 170.241 115.643C169.95 115.595 169.755 115.449 169.61 115.157C169.464 114.865 169.464 114.621 169.561 114.378C172.327 105.179 177.86 95.5902 186.061 85.5636C181.742 84.4928 178.151 83.9574 175.142 83.9574C171.503 83.9574 168.639 85.1743 166.553 87.5592C165.048 89.3115 164.369 91.0637 164.612 92.7672C164.612 93.0593 164.514 93.3026 164.369 93.546C164.223 93.7894 163.981 93.9354 163.69 93.984C163.641 93.984 163.592 93.984 163.544 93.984C162.962 93.984 162.573 93.692 162.525 93.0593C162.185 90.6743 163.01 88.3867 164.951 86.1477C167.475 83.276 170.92 81.8158 175.142 81.8158C178.393 81.8158 182.518 82.4486 187.517 83.7628C188.002 83.2274 188.487 82.5946 189.118 81.9619C193.146 77.4353 197.028 73.6875 200.862 70.7671C205.181 67.4574 208.626 65.8025 211.198 65.8025C212.314 65.8025 213.139 66.1919 213.673 66.9706C214.11 67.506 214.304 68.2848 214.353 69.2583C214.401 70.2317 214.353 71.2538 214.159 72.3246C214.013 73.3954 213.625 74.8556 213.091 76.6565C212.557 78.4574 211.975 80.161 211.441 81.7185C210.907 83.276 210.131 85.4176 209.16 88.0946C209.112 88.192 209.112 88.2893 209.112 88.3867C211.101 88.63 213.091 88.7274 215.081 88.7274ZM191.253 84.7849C196.64 86.2937 200.862 87.2672 203.968 87.8513C204.162 87.3159 204.55 86.1964 205.229 84.4928C205.666 83.422 205.957 82.5946 206.151 82.0105C206.346 81.4265 206.637 80.6477 207.073 79.6256C207.462 78.6034 207.753 77.776 207.947 77.1919C208.141 76.6079 208.384 75.8778 208.626 75.0017C208.918 74.1255 209.112 73.4441 209.209 72.9087C209.306 72.3733 209.451 71.8379 209.5 71.2538C209.597 70.7184 209.597 70.2317 209.548 69.8423C209.5 69.453 209.403 69.2096 209.257 69.0149C209.16 68.8689 208.966 68.8202 208.626 68.8202C207.462 68.8202 205.278 70.037 202.027 72.422C198.387 75.2937 194.602 78.9441 190.671 83.3734C190.38 83.7141 190.089 84.0548 189.749 84.3955C190.428 84.5415 190.962 84.6875 191.253 84.7849Z" fill="#0C2340"/>
<path d="M243.275 84.5422C243.712 84.0068 244.197 83.9095 244.779 84.3475C245.362 84.7856 245.459 85.2723 245.022 85.8077C244.197 86.9759 241.819 88.1927 237.888 89.5555C233.958 90.8697 229.639 91.6485 224.98 91.8918C226.436 93.644 227.504 95.4449 228.28 97.2945C229.056 99.1441 229.445 100.848 229.445 102.502C229.445 104.109 229.348 105.52 229.153 106.737C228.911 107.954 228.571 109.122 228.134 110.241C227.552 111.702 226.727 113.064 225.756 114.427C225.756 114.427 225.757 114.427 225.708 114.476L225.659 114.525L225.611 114.573C224.252 116.423 222.748 117.932 221.049 119.051C219.351 120.171 217.846 120.755 216.585 120.755C213.333 120.755 211.732 118.565 211.732 114.233C211.732 107.224 214.449 98.1219 219.933 86.8785C222.117 82.4006 224.349 78.3608 226.63 74.759C228.911 71.2059 230.755 68.7236 232.065 67.3607C232.599 66.874 233.424 66.5333 234.443 66.4359C235.462 66.3386 236.239 66.5333 236.724 66.9713C237.403 67.6528 237.355 68.4315 236.578 69.2103C235.608 70.1837 234.006 72.4227 231.774 75.9758C229.542 79.5289 227.358 83.4714 225.174 87.7546C224.786 88.4361 224.495 89.1661 224.204 89.8476C228.765 89.6529 232.939 88.9715 236.724 87.706C240.46 86.4891 242.644 85.4183 243.275 84.5422ZM226.096 109.317C228.571 103.379 227.455 97.8299 222.748 92.6219C218.526 101.87 216.439 109.025 216.439 114.135C216.439 115.157 216.536 115.936 216.682 116.472C216.827 117.007 217.021 117.299 217.167 117.396C217.313 117.445 217.555 117.494 217.846 117.494C218.671 117.494 219.691 117.056 220.952 116.131C222.165 115.206 223.185 114.233 223.961 113.162C224.009 113.113 224.009 113.113 224.009 113.113C224.883 111.896 225.562 110.631 226.096 109.317Z" fill="#0C2340"/>
<path d="M283.408 63.6612C283.942 63.1745 284.475 63.2231 284.912 63.8072C285.349 64.3913 285.3 64.8293 284.718 65.2674C282.728 66.8249 280.496 68.0904 277.973 69.0152C275.498 69.94 272.246 70.378 268.316 70.378C265.113 70.378 261.716 70.0373 258.028 69.3559C245.459 87.3648 239.15 100.555 239.15 108.878C239.15 110.971 239.49 112.529 240.169 113.599C240.363 113.989 240.363 114.33 240.169 114.67C239.975 115.011 239.684 115.206 239.247 115.206C238.811 115.206 238.422 115.108 237.986 114.962C237.549 114.816 237.112 114.476 236.627 114.038C236.142 113.551 235.753 112.772 235.414 111.701C235.074 110.63 234.928 109.268 234.928 107.71C234.928 105.422 235.365 102.843 236.19 99.8737C237.015 96.9047 238.083 94.0817 239.296 91.3073C240.558 88.533 242.013 85.6613 243.712 82.6922C245.41 79.7232 246.963 77.0462 248.419 74.8073C249.875 72.5196 251.379 70.3294 252.884 68.2851C250.845 67.7984 247.837 66.9223 243.857 65.7054C240.412 64.732 237.791 64.0019 235.996 63.4665C234.152 62.9798 231.823 62.4444 229.008 61.9576C226.145 61.4709 223.524 61.2275 221.146 61.2275C211.926 61.2275 204.89 63.8559 200.037 69.1125C199.551 69.5993 199.066 69.6479 198.581 69.1612C198.096 68.6745 198.047 68.1878 198.532 67.6524C199.551 66.5815 200.619 65.6081 201.735 64.7807C202.851 63.9532 204.356 62.9311 206.151 62.0063C207.947 61.0815 210.131 60.3514 212.703 59.8647C215.275 59.378 218.138 59.0859 221.243 59.0859C223.718 59.0859 226.484 59.3293 229.445 59.8647C232.405 60.4001 234.88 60.8868 236.724 61.3736C238.616 61.8603 241.188 62.6391 244.537 63.6612C248.904 64.9267 252.156 65.8028 254.339 66.3869C255.31 65.024 256.135 63.9532 256.814 63.1258C257.397 62.3957 258.27 61.7629 259.386 61.2275C260.503 60.6921 261.376 60.6435 261.958 61.1302C262.783 61.7629 262.735 62.7851 261.764 64.0992C261.667 64.2939 261.376 64.6833 260.939 65.2674C260.308 66.1922 259.775 66.9223 259.435 67.409C262.589 67.9444 265.549 68.2364 268.364 68.2364C270.499 68.2364 272.44 68.0904 274.236 67.7984C276.031 67.5063 277.536 67.0683 278.749 66.4842C279.962 65.9001 280.884 65.4134 281.467 65.0727C282.049 64.732 282.728 64.2453 283.408 63.6612Z" fill="#0C2340"/>
<path d="M286.562 84.785C286.999 84.2496 287.484 84.1522 288.018 84.5903C288.552 85.0283 288.6 85.5151 288.164 86.0992C286.465 88.2408 284.281 90.431 281.661 92.7187C279.04 95.0063 276.323 96.9532 273.508 98.5594C273.46 98.6081 273.314 98.6567 273.071 98.7541C273.071 98.8028 273.071 98.8028 273.023 98.8028C268.704 101.236 264.87 102.405 261.425 102.405C261.036 102.405 260.697 102.356 260.357 102.307C260.017 102.259 259.532 102.113 258.95 101.966C258.367 101.82 257.834 101.528 257.397 101.188C256.912 100.798 256.475 100.36 256.038 99.8249C255.601 99.2895 255.262 98.5594 255.019 97.6833C254.776 96.7585 254.631 95.7364 254.631 94.5682C254.631 90.577 256.232 86.8292 259.435 83.2761C260.939 81.6213 262.541 80.3071 264.288 79.3336C266.035 78.3602 267.733 77.9221 269.335 77.9221C270.645 77.9221 271.47 78.4575 271.81 79.577C271.858 79.723 271.907 79.869 271.955 80.015C272.198 81.4752 271.373 83.0328 269.577 84.8337C267.733 86.5859 264.773 88.2408 260.6 89.7009C259.969 91.2585 259.629 92.816 259.629 94.2762C259.629 96.0284 259.969 97.3426 260.697 98.17C261.425 98.9974 262.541 99.4355 264.045 99.4355C266.229 99.4355 268.704 98.7054 271.518 97.1966C273.46 96.1258 275.401 94.8603 277.342 93.4001C279.283 91.9399 281.03 90.4797 282.534 89.0195C284.136 87.608 285.446 86.1478 286.562 84.785ZM269.771 81.1345C268.461 81.3292 267.151 81.962 265.744 83.0328C264.336 84.1036 263.123 85.4177 262.056 86.9266C264.53 85.9045 266.326 84.8823 267.539 83.8115C268.752 82.7894 269.48 81.9133 269.771 81.1345Z" fill="#0C2340"/>
<path d="M308.545 81.7672C308.836 82.3999 308.642 82.8866 308.011 83.1787C306.507 83.8114 304.275 84.1521 301.412 84.2008C299.034 84.2008 297.384 84.4442 296.413 84.8822C294.86 85.661 293.016 87.7053 290.881 90.9663C288.794 94.2274 287.193 97.5372 286.125 100.896C286.125 100.993 286.125 101.042 286.077 101.09C285.786 101.723 285.3 102.064 284.572 102.064C283.893 102.064 283.311 101.723 282.874 101.042C282.437 100.36 282.195 99.5814 282.195 98.6566C282.195 96.1743 282.728 93.3513 283.796 90.0902C284.961 86.5858 286.708 82.9353 289.086 79.1388C289.619 78.1654 290.444 77.484 291.463 77.1433C292.482 76.8025 293.307 76.8512 293.938 77.3379C294.327 77.5813 294.569 77.8733 294.666 78.3114C294.763 78.7495 294.715 79.2362 294.424 79.7716C292.919 82.3026 291.755 84.2982 290.978 85.7097C289.862 87.7539 288.988 89.6522 288.261 91.3557C290.881 86.8778 293.307 84.1035 295.54 82.984C296.801 82.3999 298.743 82.0592 301.46 82.0592C303.984 82.0105 305.925 81.7185 307.235 81.1344C307.526 81.0371 307.769 81.0371 308.06 81.1831C308.254 81.3778 308.448 81.5238 308.545 81.7672Z" fill="#0C2340"/>
<path fill-rule="evenodd" clip-rule="evenodd" d="M311.101 51.354L332.744 82.2612L308.868 117.014C308.092 118.133 306.394 119.009 305.083 119.009H293.437C290.768 119.009 289.797 117.208 291.301 114.969L312.993 82.4559L294.31 55.3452C292.806 53.1549 293.728 51.354 296.445 51.354H311.101ZM334.103 85.9117L350.36 109.664C351.864 111.854 350.942 113.607 349.389 113.655H349.292H336.529C335.171 113.655 333.472 112.779 332.744 111.66L324.494 99.6374L334.103 85.9117ZM352.155 46C354.824 46 355.795 47.8009 354.291 50.0398L334.443 79.0975L324.494 65.4205L337.743 46H352.155Z" fill="#0B59DE"/>
<mask id="mask0_234_950" style="mask-type:alpha" maskUnits="userSpaceOnUse" x="290" y="46" width="65" height="74">
<path fill-rule="evenodd" clip-rule="evenodd" d="M311.101 51.354L332.744 82.2612L308.868 117.014C308.092 118.133 306.394 119.009 305.083 119.009H293.437C290.768 119.009 289.797 117.208 291.301 114.969L312.993 82.4559L294.31 55.3452C292.806 53.1549 293.728 51.354 296.445 51.354H311.101ZM334.103 85.9117L350.36 109.664C351.864 111.854 350.942 113.607 349.389 113.655H349.292H336.529C335.171 113.655 333.472 112.779 332.744 111.66L324.494 99.6374L334.103 85.9117ZM352.155 46C354.824 46 355.795 47.8009 354.291 50.0398L334.443 79.0975L324.494 65.4205L337.743 46H352.155Z" fill="#0B59DE"/>
</mask>
<g mask="url(#mask0_234_950)">
<path fill-rule="evenodd" clip-rule="evenodd" d="M301.679 76.4402L304.299 115.476H345.645L348.265 76.4402C348.265 76.4402 340.986 79.896 332.3 78.2411C325.409 76.9269 316.043 74.4933 310.559 79.0685C304.687 83.9845 303.231 90.5066 303.231 90.5066" fill="url(#paint0_linear_234_950)"/>
<path fill-rule="evenodd" clip-rule="evenodd" d="M363.309 75.9046L360.689 148.719L265.283 147.356L301.679 75.9046C301.679 75.9046 309.103 82.3294 317.79 80.6746C324.681 79.4091 325.748 74.6391 334.095 73.6657C342.976 72.6435 338.899 75.6613 338.899 75.6613L363.309 75.9046Z" fill="url(#paint1_linear_234_950)"/>
<path fill-rule="evenodd" clip-rule="evenodd" d="M288.924 106.598C284.944 110.735 292.854 113.266 312.557 114.191C332.259 115.116 343.566 106.111 346.478 87.1775L358.561 128.014L277.714 123.536L288.924 106.598Z" fill="url(#paint2_linear_234_950)"/>
<path opacity="0.6" d="M321.963 92.7879C322.928 92.7879 323.71 92.0034 323.71 91.0357C323.71 90.0679 322.928 89.2834 321.963 89.2834C320.998 89.2834 320.216 90.0679 320.216 91.0357C320.216 92.0034 320.998 92.7879 321.963 92.7879Z" fill="white"/>
<path opacity="0.4" d="M317.596 99.1158C318.561 99.1158 319.343 98.3313 319.343 97.3635C319.343 96.3958 318.561 95.6113 317.596 95.6113C316.631 95.6113 315.849 96.3958 315.849 97.3635C315.849 98.3313 316.631 99.1158 317.596 99.1158Z" fill="white"/>
<path opacity="0.4" d="M333.61 98.629C334.575 98.629 335.357 97.8445 335.357 96.8767C335.357 95.909 334.575 95.1245 333.61 95.1245C332.645 95.1245 331.863 95.909 331.863 96.8767C331.863 97.8445 332.645 98.629 333.61 98.629Z" fill="white"/>
<path opacity="0.8" d="M322.546 84.3192C323.269 84.3192 323.856 83.7309 323.856 83.0051C323.856 82.2793 323.269 81.6909 322.546 81.6909C321.822 81.6909 321.235 82.2793 321.235 83.0051C321.235 83.7309 321.822 84.3192 322.546 84.3192Z" fill="white"/>
<path opacity="0.8" d="M326.913 82.3722C327.637 82.3722 328.223 81.7839 328.223 81.0581C328.223 80.3323 327.637 79.7439 326.913 79.7439C326.189 79.7439 325.603 80.3323 325.603 81.0581C325.603 81.7839 326.189 82.3722 326.913 82.3722Z" fill="white"/>
<path opacity="0.8" d="M323.419 78.9656C323.821 78.9656 324.147 78.6387 324.147 78.2355C324.147 77.8322 323.821 77.5054 323.419 77.5054C323.017 77.5054 322.691 77.8322 322.691 78.2355C322.691 78.6387 323.017 78.9656 323.419 78.9656Z" fill="white"/>
<path opacity="0.3" d="M304.348 112.744C306.09 112.744 307.502 111.328 307.502 109.58C307.502 107.833 306.09 106.417 304.348 106.417C302.606 106.417 301.193 107.833 301.193 109.58C301.193 111.328 302.606 112.744 304.348 112.744Z" fill="white"/>
<path opacity="0.3" d="M339.53 105.443C340.87 105.443 341.957 104.353 341.957 103.009C341.957 101.665 340.87 100.576 339.53 100.576C338.19 100.576 337.104 101.665 337.104 103.009C337.104 104.353 338.19 105.443 339.53 105.443Z" fill="white"/>
</g>
<defs>
<linearGradient id="paint0_linear_234_950" x1="324.956" y1="76.448" x2="324.956" y2="115.485" gradientUnits="userSpaceOnUse">
<stop stop-color="#85BADC"/>
<stop offset="1" stop-color="#8CC9FF"/>
</linearGradient>
<linearGradient id="paint1_linear_234_950" x1="314.295" y1="73.4626" x2="314.295" y2="148.691" gradientUnits="userSpaceOnUse">
<stop stop-color="#C0E6FF"/>
<stop offset="1" stop-color="#8CC9FF"/>
</linearGradient>
<linearGradient id="paint2_linear_234_950" x1="318.099" y1="87.1285" x2="318.099" y2="127.98" gradientUnits="userSpaceOnUse">
<stop stop-color="#85BADC"/>
<stop offset="1" stop-color="#8CC9FF"/>
</linearGradient>
</defs>
</svg>
