<svg width="279" height="106" viewBox="0 0 279 106" fill="none" xmlns="http://www.w3.org/2000/svg">
<path d="M76.0363 60.7826C76.5271 60.7826 76.8776 60.9197 77.1581 61.1939C77.4385 61.4681 77.5787 61.8794 77.5787 62.2907C77.5787 62.702 77.4385 63.0448 77.1581 63.3189C76.8776 63.5931 76.5271 63.7302 76.0363 63.7302C72.8113 63.7302 69.5862 63.5931 66.2911 63.3189C65.0992 66.4722 64.1177 69.1456 63.3465 71.4077C62.5753 73.6698 61.734 76.2746 60.8927 79.1537C60.0513 82.0327 59.4203 84.5005 59.0698 86.4884C58.7192 88.4763 58.579 90.3956 58.6491 92.2464C58.7192 94.0973 59.0698 95.4682 59.7709 96.3594C59.841 96.4965 59.9111 96.6335 59.9812 96.7706C60.1916 97.0448 60.2617 97.319 60.2617 97.6618C60.2617 98.0731 60.1214 98.4158 59.841 98.69C59.5606 98.9642 59.21 99.1013 58.7894 99.1013C58.2285 99.1013 57.6676 99.0327 57.1067 98.8271C56.5458 98.6215 55.7746 98.2102 55.0034 97.6618C54.2322 97.0448 53.5311 96.0852 53.0404 94.6456C52.5496 93.2061 52.2692 91.4239 52.2692 89.2303C52.2692 83.2666 54.5127 74.2867 58.9997 62.2907C54.5828 61.6052 48.5533 60.1657 40.9815 58.1093C39.4391 57.698 38.2472 57.4238 37.476 57.2181C31.5868 63.8673 26.609 70.7907 22.3323 77.9198C18.0556 85.0488 14.9708 91.5609 13.0779 97.6618C12.8675 98.3473 12.3768 98.7586 11.6757 98.7586C11.5354 98.7586 11.3952 98.7585 11.255 98.69C10.8344 98.6215 10.5539 98.4158 10.3436 98.0045C10.1333 97.5932 10.1333 97.2505 10.2735 96.9077C14.2697 83.9521 22.2622 70.448 34.1108 56.327C27.871 54.8189 22.6829 54.0649 18.3361 54.0649C13.0779 54.0649 8.94139 55.7786 5.92668 59.1375C3.75328 61.6052 2.77174 64.073 3.12229 66.4722C3.12229 66.8835 2.98207 67.2262 2.77174 67.569C2.56141 67.9117 2.21086 68.1173 1.79021 68.1859C1.7201 68.1859 1.64999 68.1859 1.57988 68.1859C0.738561 68.1859 0.177684 67.7746 0.107574 66.8835C-0.383194 63.5246 0.808671 60.3028 3.61306 57.1496C7.25876 53.1052 12.2365 51.0488 18.3361 51.0488C23.0334 51.0488 28.9928 51.9399 36.214 53.7907C36.9151 53.0367 37.6162 52.1455 38.5277 51.2544C44.3468 44.8794 49.9555 39.6011 55.4942 35.4882C61.734 30.8269 66.7118 28.4963 70.4276 28.4963C72.0401 28.4963 73.2319 29.0447 74.0032 30.1414C74.6341 30.8955 74.9146 31.9923 74.9847 33.3632C75.0548 34.7342 74.9847 36.1737 74.7043 37.6818C74.4939 39.1899 73.933 41.2463 73.1618 43.7826C72.3906 46.3189 71.5493 48.7181 70.7781 50.9117C70.0069 53.1052 68.8851 56.1213 67.483 59.8915C67.4128 60.0286 67.4128 60.1657 67.4128 60.3028C70.2873 60.6456 73.1618 60.7826 76.0363 60.7826ZM41.6125 55.2302C49.3947 57.3552 55.4942 58.7262 59.9812 59.5488C60.2617 58.7947 60.8225 57.2181 61.8041 54.8189C62.4351 53.3109 62.8557 52.1455 63.1362 51.3229C63.4166 50.5004 63.8373 49.4036 64.4682 47.9641C65.0291 46.5245 65.4498 45.3592 65.7302 44.5366C66.0107 43.7141 66.3612 42.6858 66.7117 41.452C67.1324 40.2181 67.4128 39.2584 67.5531 38.5044C67.6933 37.7503 67.9036 36.9963 67.9737 36.1737C68.1139 35.4197 68.1139 34.7342 68.0438 34.1858C67.9737 33.6374 67.8335 33.2947 67.6232 33.0205C67.483 32.8148 67.2025 32.7463 66.7117 32.7463C65.0291 32.7463 61.8742 34.46 57.1768 37.8189C51.9186 41.8632 46.4501 47.0044 40.7712 53.2423C40.3505 53.7221 39.9299 54.202 39.4391 54.6818C40.4206 54.8875 41.1918 55.0931 41.6125 55.2302Z" fill="white"/>
<path d="M116.77 54.8877C117.401 54.1337 118.102 53.9966 118.943 54.6136C119.785 55.2305 119.925 55.916 119.294 56.67C118.102 58.3152 114.667 60.0289 108.988 61.9482C103.309 63.7991 97.0691 64.8958 90.3386 65.2386C92.4419 67.7063 93.9843 70.2426 95.1061 72.8475C96.2278 75.4523 96.7887 77.8515 96.7887 80.1822C96.7887 82.4443 96.6485 84.4322 96.368 86.1459C96.0175 87.8596 95.5267 89.5048 94.8957 91.0814C94.0544 93.1378 92.8625 95.0572 91.4604 96.9766C91.4604 96.9766 91.4604 96.9766 91.3902 97.0451L91.3201 97.1137L91.25 97.1822C89.287 99.787 87.1136 101.912 84.6597 103.489C82.2059 105.065 80.0325 105.888 78.2096 105.888C73.5123 105.888 71.1987 102.803 71.1987 96.7024C71.1987 86.8314 75.1248 74.0128 83.0472 58.1781C86.2021 51.8716 89.4272 46.1821 92.7223 41.1095C96.0175 36.1054 98.6816 32.6095 100.575 30.6901C101.346 30.0046 102.538 29.5248 104.01 29.3877C105.482 29.2506 106.604 29.5248 107.305 30.1417C108.287 31.1014 108.217 32.1982 107.095 33.295C105.693 34.6659 103.379 37.8192 100.154 42.8232C96.9289 47.8272 93.774 53.3797 90.619 59.412C90.0582 60.3716 89.6375 61.3999 89.2168 62.3595C95.8072 62.0853 101.837 61.1257 107.305 59.3434C112.704 57.6297 115.859 56.1216 116.77 54.8877ZM91.9511 89.779C95.5267 81.416 93.9142 73.6015 87.1136 66.2668C81.014 79.291 77.9993 89.3677 77.9993 96.5653C77.9993 98.0048 78.1395 99.1016 78.3499 99.8556C78.5602 100.61 78.8406 101.021 79.0509 101.158C79.2613 101.227 79.6118 101.295 80.0325 101.295C81.2243 101.295 82.6967 100.678 84.5195 99.3757C86.2722 98.0733 87.7445 96.7024 88.8663 95.1943C88.9364 95.1257 88.9364 95.1257 88.9364 95.1257C90.1984 93.412 91.1799 91.6298 91.9511 89.779Z" fill="white"/>
<path d="M174.751 25.4802C175.522 24.7948 176.293 24.8633 176.924 25.6859C177.555 26.5085 177.485 27.1254 176.644 27.7423C173.769 29.9359 170.544 31.7182 166.898 33.0206C163.323 34.323 158.625 34.9399 152.947 34.9399C148.319 34.9399 143.412 34.4601 138.083 33.5004C119.925 58.8634 110.811 77.44 110.811 89.1618C110.811 92.1094 111.301 94.303 112.283 95.8111C112.563 96.3594 112.563 96.8393 112.283 97.3191C112.003 97.799 111.582 98.0732 110.951 98.0732C110.32 98.0732 109.759 97.9361 109.128 97.7304C108.497 97.5248 107.866 97.0449 107.165 96.428C106.464 95.7425 105.903 94.6457 105.412 93.1377C104.921 91.6296 104.711 89.7102 104.711 87.5167C104.711 84.2949 105.342 80.6618 106.534 76.4804C107.726 72.2989 109.268 68.3231 111.021 64.4158C112.844 60.5086 114.947 56.4642 117.401 52.2827C119.855 48.1013 122.098 44.3311 124.202 41.1779C126.305 37.9561 128.478 34.8714 130.652 31.9924C127.707 31.3069 123.36 30.073 117.611 28.3593C112.634 26.9883 108.848 25.9601 106.254 25.2061C103.589 24.5206 100.224 23.7665 96.1578 23.081C92.0213 22.3956 88.2354 22.0528 84.8 22.0528C71.4792 22.0528 61.3133 25.7544 54.3023 33.1577C53.6012 33.8432 52.9001 33.9117 52.199 33.2262C51.4979 32.5407 51.4278 31.8553 52.1289 31.1012C53.6012 29.5932 55.1436 28.2222 56.7562 27.0569C58.3687 25.8915 60.5421 24.452 63.1361 23.1496C65.7302 21.8472 68.8851 20.8189 72.6009 20.1335C76.3167 19.448 80.4532 19.0367 84.9402 19.0367C88.5158 19.0367 92.5121 19.3794 96.7888 20.1335C101.065 20.8875 104.641 21.573 107.305 22.2585C110.039 22.9439 113.755 24.0407 118.593 25.4802C124.903 27.2625 129.6 28.4964 132.755 29.319C134.157 27.3996 135.349 25.8915 136.331 24.7262C137.172 23.698 138.434 22.8069 140.046 22.0528C141.659 21.2988 142.921 21.2302 143.762 21.9157C144.954 22.8069 144.884 24.2464 143.482 26.0972C143.342 26.3714 142.921 26.9198 142.29 27.7423C141.378 29.0448 140.607 30.073 140.117 30.7585C144.674 31.5125 148.95 31.9238 153.017 31.9238C156.102 31.9238 158.906 31.7182 161.5 31.3069C164.094 30.8956 166.267 30.2786 168.02 29.4561C169.773 28.6335 171.105 27.948 171.946 27.4682C172.788 26.9883 173.769 26.3028 174.751 25.4802Z" fill="white"/>
<path d="M179.308 55.2302C179.939 54.4762 180.64 54.3391 181.411 54.956C182.182 55.573 182.252 56.2585 181.621 57.081C179.168 60.0972 176.013 63.1819 172.227 66.4036C168.441 69.6254 164.515 72.3674 160.448 74.6295C160.378 74.698 160.168 74.7666 159.817 74.9037C159.817 74.9722 159.817 74.9722 159.747 74.9722C153.507 78.3996 147.969 80.0448 142.991 80.0448C142.43 80.0448 141.939 79.9763 141.449 79.9077C140.958 79.8392 140.257 79.6335 139.415 79.4279C138.574 79.2222 137.803 78.8109 137.172 78.3311C136.471 77.7827 135.84 77.1658 135.209 76.4117C134.578 75.6577 134.087 74.6295 133.737 73.3956C133.386 72.0932 133.176 70.6537 133.176 69.0085C133.176 63.3875 135.489 58.1093 140.117 53.1052C142.29 50.7746 144.604 48.9238 147.127 47.5528C149.651 46.1818 152.105 45.5649 154.419 45.5649C156.312 45.5649 157.504 46.3189 157.994 47.8955C158.065 48.1012 158.135 48.3068 158.205 48.5125C158.555 50.5689 157.363 52.7625 154.769 55.2988C152.105 57.7665 147.829 60.0972 141.799 62.1536C140.888 64.3472 140.397 66.5407 140.397 68.5972C140.397 71.0649 140.888 72.9158 141.939 74.0811C142.991 75.2464 144.604 75.8633 146.777 75.8633C149.932 75.8633 153.507 74.8351 157.574 72.7101C160.378 71.202 163.183 69.4198 165.987 67.3633C168.791 65.3069 171.315 63.2504 173.489 61.1939C175.802 59.206 177.695 57.1496 179.308 55.2302ZM155.05 50.0891C153.157 50.3633 151.264 51.2544 149.231 52.7625C147.198 54.2705 145.445 56.1214 143.902 58.2464C147.478 56.8068 150.072 55.3673 151.825 53.8593C153.578 52.4197 154.629 51.1859 155.05 50.0891Z" fill="white"/>
<path d="M211.068 50.9803C211.488 51.8714 211.208 52.5569 210.296 52.9682C208.123 53.8593 204.898 54.3392 200.761 54.4077C197.326 54.4077 194.942 54.7505 193.54 55.3674C191.297 56.4642 188.632 59.3432 185.548 63.936C182.533 68.5287 180.219 73.19 178.677 77.9199C178.677 78.057 178.677 78.1255 178.607 78.1941C178.186 79.0852 177.485 79.5651 176.433 79.5651C175.452 79.5651 174.611 79.0852 173.98 78.1255C173.349 77.1659 172.998 76.0691 172.998 74.7667C172.998 71.2707 173.769 67.2949 175.312 62.7021C176.994 57.7666 179.518 52.6255 182.954 47.2787C183.725 45.9077 184.917 44.948 186.389 44.4682C187.861 43.9884 189.053 44.0569 189.965 44.7424C190.525 45.0851 190.876 45.4964 191.016 46.1134C191.156 46.7303 191.086 47.4158 190.666 48.1698C188.492 51.7343 186.81 54.5448 185.688 56.5327C184.075 59.4118 182.813 62.0852 181.762 64.4844C185.548 58.1779 189.053 54.2706 192.278 52.694C194.101 51.8714 196.905 51.3916 200.832 51.3916C204.477 51.323 207.282 50.9118 209.175 50.0892C209.595 49.9521 209.946 49.9521 210.366 50.1577C210.647 50.4319 210.927 50.6376 211.068 50.9803Z" fill="white"/>
<path fill-rule="evenodd" clip-rule="evenodd" d="M214.76 8.14715L246.028 51.6755L211.534 100.619C210.413 102.196 207.959 103.43 206.066 103.43H189.24C185.384 103.43 183.981 100.893 186.155 97.7401L217.494 51.9497L190.502 13.7681C188.328 10.6834 189.66 8.14715 193.586 8.14715H214.76ZM247.992 56.8166L271.478 90.2683C273.652 93.353 272.32 95.8208 270.076 95.8893H269.936H251.497C249.534 95.8893 247.08 94.6554 246.028 93.0788L234.11 76.1473L247.992 56.8166ZM274.072 0.606812C277.928 0.606812 279.331 3.14311 277.157 6.29634L248.482 47.2198L234.11 27.9577L253.25 0.606812H274.072Z" fill="#0B59DE"/>
<mask id="mask0_238_1361" style="mask-type:alpha" maskUnits="userSpaceOnUse" x="185" y="0" width="94" height="104">
<path fill-rule="evenodd" clip-rule="evenodd" d="M214.76 8.14715L246.028 51.6755L211.534 100.619C210.413 102.196 207.959 103.43 206.066 103.43H189.24C185.384 103.43 183.981 100.893 186.155 97.7401L217.494 51.9497L190.502 13.7681C188.328 10.6834 189.66 8.14715 193.586 8.14715H214.76ZM247.992 56.8166L271.478 90.2683C273.652 93.353 272.32 95.8208 270.076 95.8893H269.936H251.497C249.534 95.8893 247.08 94.6554 246.028 93.0788L234.11 76.1473L247.992 56.8166ZM274.072 0.606812C277.928 0.606812 279.331 3.14311 277.157 6.29634L248.482 47.2198L234.11 27.9577L253.25 0.606812H274.072Z" fill="#0B59DE"/>
</mask>
<g mask="url(#mask0_238_1361)">
<path fill-rule="evenodd" clip-rule="evenodd" d="M201.147 43.4772L204.933 98.4532H264.666L268.452 43.4772C268.452 43.4772 257.936 48.3442 245.386 46.0135C235.43 44.1627 221.899 40.7353 213.977 47.1788C205.494 54.1023 203.39 63.2878 203.39 63.2878" fill="url(#paint0_linear_238_1361)"/>
<path fill-rule="evenodd" clip-rule="evenodd" d="M290.186 42.723L286.4 145.272L148.565 143.352L201.147 42.723C201.147 42.723 211.874 51.7714 224.423 49.4407C234.379 47.6585 235.921 40.9407 247.98 39.5697C260.81 38.1302 254.921 42.3802 254.921 42.3802L290.186 42.723Z" fill="url(#paint1_linear_238_1361)"/>
<path fill-rule="evenodd" clip-rule="evenodd" d="M182.719 85.9498C176.971 91.7764 188.398 95.3409 216.863 96.6433C245.327 97.9458 261.663 85.2643 265.87 58.5989L283.327 116.111L166.524 109.805L182.719 85.9498Z" fill="url(#paint2_linear_238_1361)"/>
<path opacity="0.6" d="M230.453 66.5012C231.847 66.5012 232.977 65.3963 232.977 64.0334C232.977 62.6705 231.847 61.5657 230.453 61.5657C229.059 61.5657 227.929 62.6705 227.929 64.0334C227.929 65.3963 229.059 66.5012 230.453 66.5012Z" fill="white"/>
<path opacity="0.4" d="M224.143 75.4125C225.537 75.4125 226.667 74.3076 226.667 72.9447C226.667 71.5818 225.537 70.477 224.143 70.477C222.749 70.477 221.619 71.5818 221.619 72.9447C221.619 74.3076 222.749 75.4125 224.143 75.4125Z" fill="white"/>
<path opacity="0.4" d="M247.279 74.7272C248.673 74.7272 249.803 73.6223 249.803 72.2594C249.803 70.8965 248.673 69.7917 247.279 69.7917C245.885 69.7917 244.755 70.8965 244.755 72.2594C244.755 73.6223 245.885 74.7272 247.279 74.7272Z" fill="white"/>
<path opacity="0.8" d="M231.294 54.5739C232.34 54.5739 233.187 53.7452 233.187 52.7231C233.187 51.7009 232.34 50.8723 231.294 50.8723C230.249 50.8723 229.401 51.7009 229.401 52.7231C229.401 53.7452 230.249 54.5739 231.294 54.5739Z" fill="white"/>
<path opacity="0.8" d="M237.604 51.832C238.649 51.832 239.497 51.0034 239.497 49.9812C239.497 48.959 238.649 48.1304 237.604 48.1304C236.558 48.1304 235.711 48.959 235.711 49.9812C235.711 51.0034 236.558 51.832 237.604 51.832Z" fill="white"/>
<path opacity="0.8" d="M232.556 47.0337C233.137 47.0337 233.608 46.5733 233.608 46.0055C233.608 45.4376 233.137 44.9772 232.556 44.9772C231.975 44.9772 231.504 45.4376 231.504 46.0055C231.504 46.5733 231.975 47.0337 232.556 47.0337Z" fill="white"/>
<path opacity="0.3" d="M205.003 94.6061C207.52 94.6061 209.56 92.6112 209.56 90.1504C209.56 87.6896 207.52 85.6948 205.003 85.6948C202.486 85.6948 200.446 87.6896 200.446 90.1504C200.446 92.6112 202.486 94.6061 205.003 94.6061Z" fill="white"/>
<path opacity="0.3" d="M255.832 84.324C257.768 84.324 259.338 82.7895 259.338 80.8965C259.338 79.0036 257.768 77.4691 255.832 77.4691C253.896 77.4691 252.327 79.0036 252.327 80.8965C252.327 82.7895 253.896 84.324 255.832 84.324Z" fill="white"/>
</g>
<defs>
<linearGradient id="paint0_linear_238_1361" x1="234.777" y1="43.4883" x2="234.777" y2="98.4655" gradientUnits="userSpaceOnUse">
<stop stop-color="#85BADC"/>
<stop offset="1" stop-color="#8CC9FF"/>
</linearGradient>
<linearGradient id="paint1_linear_238_1361" x1="219.374" y1="39.2838" x2="219.374" y2="145.232" gradientUnits="userSpaceOnUse">
<stop stop-color="#C0E6FF"/>
<stop offset="1" stop-color="#8CC9FF"/>
</linearGradient>
<linearGradient id="paint2_linear_238_1361" x1="224.87" y1="58.5299" x2="224.87" y2="116.063" gradientUnits="userSpaceOnUse">
<stop stop-color="#85BADC"/>
<stop offset="1" stop-color="#8CC9FF"/>
</linearGradient>
</defs>
</svg>
