<svg width="500" height="157" viewBox="0 0 500 157" fill="none" xmlns="http://www.w3.org/2000/svg">
<path d="M806 0H156.405V156.405H806V0Z" fill="white"/>
<path d="M156.565 156.566L-2.0504e-05 0.000162626H156.565V156.566Z" fill="white"/>
<path d="M198.247 84.1823C198.603 84.1823 198.857 84.2844 199.061 84.4884C199.264 84.6925 199.366 84.9985 199.366 85.3046C199.366 85.6107 199.264 85.8658 199.061 86.0698C198.857 86.2739 198.603 86.3759 198.247 86.3759C195.907 86.3759 193.568 86.2739 191.177 86.0698C190.313 88.4164 189.601 90.4059 189.041 92.0893C188.482 93.7728 187.871 95.7112 187.261 97.8538C186.651 99.9963 186.193 101.833 185.939 103.312C185.684 104.792 185.583 106.22 185.633 107.597C185.684 108.975 185.939 109.995 186.447 110.658C186.498 110.76 186.549 110.862 186.6 110.964C186.752 111.168 186.803 111.372 186.803 111.627C186.803 111.933 186.702 112.188 186.498 112.392C186.295 112.597 186.04 112.699 185.735 112.699C185.328 112.699 184.921 112.648 184.514 112.494C184.108 112.341 183.548 112.035 182.989 111.627C182.429 111.168 181.921 110.454 181.565 109.383C181.209 108.311 181.005 106.985 181.005 105.353C181.005 100.915 182.633 94.2319 185.888 85.3046C182.683 84.7945 178.309 83.7232 172.816 82.1928C171.698 81.8868 170.833 81.6827 170.273 81.5297C166.001 86.4779 162.39 91.6302 159.287 96.9356C156.185 102.241 153.947 107.087 152.574 111.627C152.421 112.137 152.065 112.443 151.557 112.443C151.455 112.443 151.353 112.443 151.251 112.392C150.946 112.341 150.743 112.188 150.59 111.882C150.438 111.576 150.438 111.321 150.539 111.066C153.438 101.425 159.237 91.3752 167.832 80.8665C163.305 79.7442 159.542 79.1831 156.388 79.1831C152.574 79.1831 149.573 80.4584 147.386 82.958C145.809 84.7945 145.097 86.631 145.351 88.4164C145.351 88.7225 145.25 88.9775 145.097 89.2326C144.945 89.4877 144.69 89.6407 144.385 89.6917C144.334 89.6917 144.283 89.6917 144.233 89.6917C143.622 89.6917 143.215 89.3857 143.164 88.7225C142.808 86.2229 143.673 83.8252 145.708 81.4787C148.352 78.4689 151.963 76.9385 156.388 76.9385C159.796 76.9385 164.119 77.6017 169.358 78.979C169.867 78.4179 170.375 77.7547 171.036 77.0915C175.258 72.3474 179.327 68.4194 183.345 65.3586C187.871 61.8897 191.482 60.1553 194.178 60.1553C195.348 60.1553 196.213 60.5634 196.772 61.3796C197.23 61.9407 197.433 62.7569 197.484 63.7772C197.535 64.7974 197.484 65.8687 197.281 66.991C197.128 68.1133 196.721 69.6437 196.162 71.5311C195.602 73.4186 194.992 75.2041 194.432 76.8365C193.873 78.4689 193.059 80.7135 192.042 83.5192C191.991 83.6212 191.991 83.7232 191.991 83.8252C194.076 84.0803 196.162 84.1823 198.247 84.1823ZM173.274 80.0503C178.92 81.6317 183.345 82.652 186.6 83.2641C186.803 82.703 187.21 81.5297 187.922 79.7442C188.38 78.6219 188.685 77.7547 188.889 77.1426C189.092 76.5304 189.397 75.7142 189.855 74.6429C190.262 73.5717 190.567 72.7044 190.77 72.0923C190.974 71.4801 191.228 70.7149 191.482 69.7967C191.788 68.8785 191.991 68.1643 192.093 67.6032C192.194 67.042 192.347 66.4809 192.398 65.8687C192.5 65.3076 192.5 64.7974 192.449 64.3893C192.398 63.9812 192.296 63.7262 192.144 63.5221C192.042 63.3691 191.838 63.3181 191.482 63.3181C190.262 63.3181 187.973 64.5934 184.565 67.093C180.751 70.1028 176.784 73.9288 172.664 78.5709C172.359 78.928 172.054 79.2851 171.698 79.6422C172.41 79.7952 172.969 79.9483 173.274 80.0503Z" fill="#0C2340"/>
<path d="M227.797 79.7957C228.255 79.2346 228.763 79.1326 229.374 79.5917C229.984 80.0508 230.086 80.5609 229.628 81.1221C228.763 82.3464 226.271 83.6217 222.151 85.0501C218.032 86.4274 213.505 87.2436 208.622 87.4987C210.148 89.3352 211.267 91.2226 212.081 93.1611C212.895 95.0996 213.302 96.8851 213.302 98.6195C213.302 100.303 213.2 101.782 212.996 103.058C212.742 104.333 212.386 105.557 211.928 106.731C211.318 108.261 210.453 109.689 209.436 111.118C209.436 111.118 209.436 111.118 209.385 111.169L209.334 111.22L209.284 111.271C207.86 113.209 206.283 114.791 204.503 115.964C202.723 117.137 201.146 117.749 199.823 117.749C196.416 117.749 194.737 115.454 194.737 110.914C194.737 103.568 197.586 94.0283 203.333 82.2444C205.622 77.5512 207.961 73.3171 210.352 69.5422C212.742 65.8182 214.675 63.2166 216.048 61.7882C216.608 61.2781 217.472 60.921 218.54 60.819C219.608 60.7169 220.422 60.921 220.931 61.3801C221.643 62.0943 221.592 62.9105 220.778 63.7267C219.761 64.747 218.083 67.0935 215.743 70.8175C213.403 74.5414 211.115 78.6735 208.826 83.1626C208.419 83.8768 208.114 84.642 207.809 85.3562C212.59 85.1521 216.964 84.4379 220.931 83.1116C224.847 81.8363 227.136 80.714 227.797 79.7957ZM209.792 105.761C212.386 99.5377 211.216 93.7223 206.283 88.2639C201.858 97.9563 199.671 105.455 199.671 110.812C199.671 111.883 199.773 112.699 199.925 113.26C200.078 113.821 200.281 114.127 200.434 114.229C200.586 114.28 200.841 114.331 201.146 114.331C202.01 114.331 203.079 113.872 204.401 112.903C205.672 111.934 206.741 110.914 207.554 109.791C207.605 109.74 207.605 109.74 207.605 109.74C208.521 108.465 209.233 107.139 209.792 105.761Z" fill="#0C2340"/>
<path d="M269.859 57.9109C270.419 57.4008 270.978 57.4518 271.436 58.064C271.894 58.6761 271.843 59.1352 271.232 59.5944C269.147 61.2268 266.807 62.5531 264.163 63.5223C261.569 64.4916 258.161 64.9507 254.041 64.9507C250.685 64.9507 247.124 64.5936 243.259 63.8794C230.086 82.7542 223.474 96.5787 223.474 105.302C223.474 107.495 223.83 109.128 224.542 110.25C224.745 110.658 224.745 111.015 224.542 111.372C224.338 111.73 224.033 111.934 223.576 111.934C223.118 111.934 222.711 111.832 222.253 111.678C221.795 111.525 221.338 111.168 220.829 110.709C220.32 110.199 219.914 109.383 219.558 108.261C219.202 107.138 219.049 105.71 219.049 104.078C219.049 101.68 219.507 98.9763 220.371 95.8645C221.236 92.7527 222.355 89.794 223.626 86.8862C224.949 83.9785 226.475 80.9687 228.255 77.857C230.035 74.7452 231.662 71.9395 233.188 69.5929C234.714 67.1953 236.291 64.8997 237.868 62.7572C235.731 62.247 232.578 61.3288 228.407 60.0535C224.796 59.0332 222.05 58.268 220.168 57.7069C218.235 57.1968 215.794 56.6356 212.844 56.1255C209.843 55.6154 207.097 55.3603 204.604 55.3603C194.941 55.3603 187.566 58.115 182.48 63.6244C181.971 64.1345 181.463 64.1855 180.954 63.6754C180.445 63.1653 180.395 62.6551 180.903 62.094C181.971 60.9717 183.09 59.9514 184.26 59.0842C185.43 58.217 187.007 57.1457 188.888 56.1765C190.77 55.2073 193.059 54.4421 195.755 53.9319C198.45 53.4218 201.451 53.1157 204.706 53.1157C207.3 53.1157 210.199 53.3708 213.302 53.9319C216.404 54.4931 218.998 55.0032 220.931 55.5133C222.914 56.0235 225.61 56.8397 229.119 57.9109C233.697 59.2373 237.105 60.1555 239.393 60.7677C240.411 59.3393 241.275 58.217 241.987 57.3498C242.598 56.5846 243.513 55.9214 244.683 55.3603C245.853 54.7991 246.768 54.7481 247.379 55.2583C248.243 55.9214 248.192 56.9927 247.175 58.37C247.073 58.5741 246.768 58.9822 246.31 59.5944C245.649 60.5636 245.09 61.3288 244.734 61.8389C248.04 62.4001 251.142 62.7061 254.092 62.7061C256.33 62.7061 258.365 62.5531 260.246 62.247C262.128 61.9409 263.705 61.4818 264.976 60.8697C266.248 60.2575 267.214 59.7474 267.825 59.3903C268.435 59.0332 269.147 58.5231 269.859 57.9109Z" fill="#0C2340"/>
<path d="M273.165 80.0502C273.623 79.4891 274.132 79.3871 274.691 79.8462C275.25 80.3053 275.301 80.8154 274.844 81.4276C273.063 83.6722 270.775 85.9677 268.028 88.3653C265.282 90.7629 262.433 92.8035 259.484 94.4869C259.433 94.5379 259.28 94.5889 259.026 94.6909C259.026 94.7419 259.026 94.7419 258.975 94.7419C254.448 97.2926 250.43 98.5169 246.819 98.5169C246.412 98.5169 246.056 98.4659 245.7 98.4149C245.344 98.3639 244.836 98.2108 244.225 98.0578C243.615 97.9047 243.055 97.5987 242.598 97.2416C242.089 96.8335 241.631 96.3744 241.174 95.8132C240.716 95.2521 240.36 94.4869 240.105 93.5686C239.851 92.5994 239.699 91.5281 239.699 90.3038C239.699 86.1208 241.377 82.1928 244.734 78.4688C246.311 76.7344 247.989 75.3571 249.82 74.3368C251.651 73.3165 253.431 72.8574 255.109 72.8574C256.483 72.8574 257.347 73.4186 257.703 74.5919C257.754 74.7449 257.805 74.8979 257.856 75.051C258.11 76.5814 257.246 78.2138 255.364 80.1013C253.431 81.9377 250.329 83.6722 245.955 85.2025C245.293 86.8349 244.937 88.4674 244.937 89.9977C244.937 91.8342 245.293 93.2116 246.056 94.0788C246.819 94.946 247.989 95.4051 249.566 95.4051C251.854 95.4051 254.448 94.6399 257.398 93.0585C259.433 91.9362 261.467 90.6099 263.502 89.0795C265.536 87.5491 267.367 86.0187 268.944 84.4884C270.622 83.009 271.995 81.4786 273.165 80.0502ZM255.567 76.2243C254.194 76.4283 252.821 77.0915 251.346 78.2138C249.871 79.3361 248.599 80.7134 247.48 82.2948C250.074 81.2235 251.956 80.1523 253.228 79.03C254.499 77.9587 255.262 77.0405 255.567 76.2243Z" fill="#0C2340"/>
<path d="M296.205 76.8875C296.51 77.5507 296.307 78.0608 295.646 78.3669C294.069 79.03 291.729 79.3871 288.729 79.4381C286.236 79.4381 284.507 79.6932 283.49 80.1523C281.862 80.9685 279.93 83.1111 277.692 86.5289C275.505 89.9468 273.826 93.4157 272.707 96.9355C272.707 97.0376 272.707 97.0886 272.657 97.1396C272.351 97.8028 271.843 98.1599 271.08 98.1599C270.368 98.1599 269.758 97.8028 269.3 97.0886C268.842 96.3744 268.588 95.5582 268.588 94.589C268.588 91.9873 269.147 89.0286 270.266 85.6107C271.487 81.9378 273.318 78.1118 275.81 74.1328C276.369 73.1125 277.234 72.3984 278.302 72.0413C279.37 71.6842 280.235 71.7352 280.896 72.2453C281.303 72.5004 281.557 72.8065 281.659 73.2656C281.761 73.7247 281.71 74.2348 281.405 74.796C279.828 77.4486 278.607 79.5402 277.794 81.0195C276.624 83.1621 275.708 85.1516 274.945 86.937C277.692 82.2438 280.235 79.3361 282.574 78.1628C283.897 77.5507 285.931 77.1936 288.78 77.1936C291.424 77.1426 293.459 76.8365 294.832 76.2243C295.137 76.1223 295.391 76.1223 295.697 76.2753C295.9 76.4794 296.104 76.6324 296.205 76.8875Z" fill="#0C2340"/>
<path fill-rule="evenodd" clip-rule="evenodd" d="M298.884 45.0121L321.568 77.4052L296.544 113.828C295.73 115.002 293.95 115.92 292.577 115.92H280.37C277.573 115.92 276.556 114.032 278.132 111.686L300.867 77.6093L281.286 49.1951C279.709 46.8995 280.675 45.0121 283.524 45.0121H298.884ZM322.992 81.2312L340.03 106.125C341.607 108.421 340.641 110.258 339.013 110.309H338.911H325.535C324.111 110.309 322.331 109.39 321.568 108.217L312.921 95.6168L322.992 81.2312ZM341.912 39.4006C344.709 39.4006 345.727 41.2881 344.15 43.6347L323.348 74.0894L312.921 59.7548L326.806 39.4006H341.912Z" fill="#0B59DE"/>
<mask id="mask0_234_950" style="mask-type:alpha" maskUnits="userSpaceOnUse" x="277" y="39" width="68" height="77">
<path fill-rule="evenodd" clip-rule="evenodd" d="M298.884 45.0121L321.568 77.4052L296.544 113.828C295.73 115.002 293.95 115.92 292.577 115.92H280.37C277.573 115.92 276.556 114.032 278.132 111.686L300.867 77.6093L281.286 49.1951C279.709 46.8995 280.675 45.0121 283.524 45.0121H298.884ZM322.992 81.2312L340.03 106.125C341.607 108.421 340.641 110.258 339.013 110.309H338.911H325.535C324.111 110.309 322.331 109.39 321.568 108.217L312.921 95.6168L322.992 81.2312ZM341.912 39.4006C344.709 39.4006 345.727 41.2881 344.15 43.6347L323.348 74.0894L312.921 59.7548L326.806 39.4006H341.912Z" fill="#0B59DE"/>
</mask>
<g mask="url(#mask0_234_950)">
<path fill-rule="evenodd" clip-rule="evenodd" d="M289.008 71.3043L291.755 112.217H335.088L337.835 71.3043C337.835 71.3043 330.206 74.9262 321.102 73.1918C313.879 71.8144 304.063 69.2638 298.316 74.059C292.162 79.2113 290.636 86.047 290.636 86.047" fill="url(#paint0_linear_234_950)"/>
<path fill-rule="evenodd" clip-rule="evenodd" d="M353.602 70.7429L350.855 147.058L250.863 145.63L289.008 70.7429C289.008 70.7429 296.79 77.4766 305.894 75.7421C313.116 74.4158 314.235 69.4166 322.984 68.3963C332.291 67.325 328.019 70.4878 328.019 70.4878L353.602 70.7429Z" fill="url(#paint1_linear_234_950)"/>
<path fill-rule="evenodd" clip-rule="evenodd" d="M275.64 102.912C271.47 107.248 279.76 109.901 300.41 110.87C321.059 111.839 332.91 102.402 335.961 82.5579L348.626 125.358L263.891 120.664L275.64 102.912Z" fill="url(#paint2_linear_234_950)"/>
<path opacity="0.6" d="M310.268 88.4378C311.28 88.4378 312.099 87.6156 312.099 86.6014C312.099 85.5871 311.28 84.7649 310.268 84.7649C309.257 84.7649 308.437 85.5871 308.437 86.6014C308.437 87.6156 309.257 88.4378 310.268 88.4378Z" fill="white"/>
<path opacity="0.4" d="M305.691 95.0701C306.702 95.0701 307.522 94.2479 307.522 93.2337C307.522 92.2194 306.702 91.3972 305.691 91.3972C304.68 91.3972 303.86 92.2194 303.86 93.2337C303.86 94.2479 304.68 95.0701 305.691 95.0701Z" fill="white"/>
<path opacity="0.4" d="M322.475 94.5599C323.486 94.5599 324.306 93.7377 324.306 92.7234C324.306 91.7092 323.486 90.887 322.475 90.887C321.464 90.887 320.644 91.7092 320.644 92.7234C320.644 93.7377 321.464 94.5599 322.475 94.5599Z" fill="white"/>
<path opacity="0.8" d="M310.879 79.5621C311.637 79.5621 312.252 78.9454 312.252 78.1847C312.252 77.424 311.637 76.8074 310.879 76.8074C310.12 76.8074 309.505 77.424 309.505 78.1847C309.505 78.9454 310.12 79.5621 310.879 79.5621Z" fill="white"/>
<path opacity="0.8" d="M315.456 77.5215C316.214 77.5215 316.829 76.9049 316.829 76.1442C316.829 75.3835 316.214 74.7668 315.456 74.7668C314.698 74.7668 314.083 75.3835 314.083 76.1442C314.083 76.9049 314.698 77.5215 315.456 77.5215Z" fill="white"/>
<path opacity="0.8" d="M311.794 73.9508C312.216 73.9508 312.557 73.6082 312.557 73.1856C312.557 72.763 312.216 72.4204 311.794 72.4204C311.373 72.4204 311.031 72.763 311.031 73.1856C311.031 73.6082 311.373 73.9508 311.794 73.9508Z" fill="white"/>
<path opacity="0.3" d="M291.806 109.354C293.632 109.354 295.112 107.869 295.112 106.038C295.112 104.206 293.632 102.722 291.806 102.722C289.98 102.722 288.5 104.206 288.5 106.038C288.5 107.869 289.98 109.354 291.806 109.354Z" fill="white"/>
<path opacity="0.3" d="M328.68 101.701C330.085 101.701 331.223 100.559 331.223 99.1507C331.223 97.7421 330.085 96.6001 328.68 96.6001C327.276 96.6001 326.137 97.7421 326.137 99.1507C326.137 100.559 327.276 101.701 328.68 101.701Z" fill="white"/>
</g>
<defs>
<linearGradient id="paint0_linear_234_950" x1="313.405" y1="71.3125" x2="313.405" y2="112.226" gradientUnits="userSpaceOnUse">
<stop stop-color="#85BADC"/>
<stop offset="1" stop-color="#8CC9FF"/>
</linearGradient>
<linearGradient id="paint1_linear_234_950" x1="302.231" y1="68.1835" x2="302.231" y2="147.029" gradientUnits="userSpaceOnUse">
<stop stop-color="#C0E6FF"/>
<stop offset="1" stop-color="#8CC9FF"/>
</linearGradient>
<linearGradient id="paint2_linear_234_950" x1="306.218" y1="82.5065" x2="306.218" y2="125.322" gradientUnits="userSpaceOnUse">
<stop stop-color="#85BADC"/>
<stop offset="1" stop-color="#8CC9FF"/>
</linearGradient>
</defs>
</svg>
