<?xml version="1.0" encoding="UTF-8"?><svg id="Capa_1" xmlns="http://www.w3.org/2000/svg" viewBox="0 0 700 144.71"><defs><style>.cls-1{fill:#f39200;}.cls-2{fill:#ffdd0b;}.cls-3{fill:#fbba0c;}.cls-4{fill:#e83944;}.cls-5,.cls-6{fill:#2b3185;}.cls-6{fill-rule:evenodd;}.cls-7{fill:#fcea19;}</style></defs><path class="cls-6" d="m90.16,42.6c0-18.16,14.73-32.89,32.89-32.89s32.89,14.73,32.89,32.89-14.73,32.9-32.89,32.9-32.89-14.73-32.89-32.9Z"/><polygon class="cls-1" points="92.23 37.7 107.57 35.96 108.57 50.39 115.72 37.74 129.67 42.72 125.74 29.64 133.83 20.71 122.84 20.72 118.59 6.83 110.22 18.88 93.58 11.78 103.06 27.35 92.23 37.7"/><polygon class="cls-1" points="122.94 57.17 135.71 57.17 135.7 69.74 143.38 59.16 154.63 63.94 148.16 53.8 153.98 47.94 145.92 47.93 144.41 38.58 138.27 45.8 129.67 42.72 132.44 51.65 122.94 57.17"/><path class="cls-6" d="m360.73,42.6c0-18.13,14.69-32.83,32.81-32.83s32.82,14.7,32.82,32.83-14.69,32.82-32.82,32.82-32.81-14.7-32.81-32.82Z"/><polygon class="cls-7" points="358.81 66.61 370.07 60.25 380.97 67.39 377.78 57.19 386.54 57.19 376.14 51.81 380.77 38.68 372.13 46.8 364.88 38.74 364.88 50.25 353.43 50.25 362.94 56.09 358.81 66.61"/><polygon class="cls-7" points="402.53 39.4 397.8 45.66 404.08 51.93 395.8 50.66 394.79 56.94 388.62 49 381.44 49 386.61 43.74 382.72 36.17 391.49 39.52 395.53 34.14 395.55 41.92 402.53 39.4"/><polygon class="cls-7" points="431.78 33.15 425.02 42.35 428.75 50.39 421.09 48.1 416.41 61.24 414.23 48.34 404.03 51.93 411.37 42.2 404.96 35.98 413.02 35.98 416.9 23.99 422.64 36.16 431.78 33.15"/><polygon class="cls-7" points="391.04 84.71 398.3 77.85 403.93 83.54 403.93 73.74 413.73 73.74 406.31 69.06 410.37 59.05 401.01 64.82 394.78 56.93 393.16 67.43 381.01 67.43 392.91 75.4 391.04 84.71"/><polygon class="cls-7" points="384.73 33.33 398.82 29.68 404.96 35.98 404.97 23.99 416.9 23.99 405.4 17.62 408.59 9.61 401.87 12.28 393.69 3.11 393.69 15.8 380.66 15.8 389.65 23.63 384.73 33.33"/><path class="cls-6" d="m270.73,42.6c0-18.09,14.66-32.75,32.75-32.75s32.75,14.66,32.75,32.75-14.66,32.74-32.75,32.74-32.75-14.66-32.75-32.74Z"/><polygon class="cls-2" points="345.74 38.08 337.88 46.85 341.55 53.17 332.41 53.01 326.03 60.23 326.03 49.2 317.99 49.18 323.83 42.54 317.97 34.59 328.07 34.59 333.49 28.51 336.22 38.08 345.74 38.08"/><polygon class="cls-2" points="282.18 76.14 284.79 65.44 293.99 71.13 291.06 59.82 303.25 56.81 289.58 53.56 286.93 42.49 282.98 49.81 273.96 42.54 277.08 55.83 266.87 58.35 279.32 64.69 282.18 76.14"/><polygon class="cls-2" points="311.88 33.02 307.37 41.12 315.49 45.54 306.57 45.54 306.56 54.52 301.07 48.44 294.58 51.3 297.77 43.68 291.34 38.99 299.77 38.98 299.76 30.53 304.29 37.08 311.88 33.02"/><polygon class="cls-2" points="291.82 26.93 301.07 22.87 304.93 31.39 309.05 20.92 318.88 20.95 312.44 14.46 317.72 6.1 308.6 8.72 303.48 0 300.01 9.83 288.55 9.83 295.87 17.18 291.82 26.93"/><path class="cls-6" d="m180.26,42.57c0-18.18,14.75-32.92,32.93-32.92s32.92,14.74,32.92,32.92-14.74,32.93-32.92,32.93-32.93-14.75-32.93-32.93Z"/><polygon class="cls-3" points="174.25 59.69 186.53 57.66 195.28 67.47 197.53 56.93 209.99 56.93 200.5 49.75 207.26 40.8 197.63 43.17 192.52 30.72 187.97 42.77 174.91 39.63 181.4 51.14 174.25 59.69"/><path class="cls-3" d="m233.79,12.93l-11.22,8.29,3.42,12.87-8.75-6.55-9.97,13.25.02-15.34-16.56-6.97,14.42-4.58,1.82-13.61,6.1,9.36,4.79-6.33s2.74,10.21,2.74,10.21l13.19-.59Z"/><polygon class="cls-3" points="248.59 42.44 239.69 46.03 239.69 58.97 234.33 48.83 229.65 55.6 229.64 46.6 220.63 46.6 228.32 42.49 225.96 34.11 231.84 38.54 239.69 28.91 239.69 38.83 248.59 42.44"/><path class="cls-6" d="m0,42.63C0,24.46,14.72,9.74,32.88,9.74s32.88,14.72,32.88,32.89-14.72,32.88-32.88,32.88S0,60.79,0,42.63Z"/><polygon class="cls-4" points="48.05 66.07 62.68 73.04 58.16 57.35 71.57 49.55 58.84 45.02 58.84 28.07 45.2 39.82 26.6 30.77 32.62 50.65 16.96 64.01 34.93 64.02 32.84 81.89 48.05 66.07"/><path class="cls-5" d="m4.78,135.55c-.64-2.06-1.06-4.83-1.06-8.66s.43-6.53,1.06-8.59c1.92-5.89,6.89-9.16,13.42-9.16,5.11,0,8.73,2.2,10.86,4.97.57.78.85,1.42.85,2.2,0,1.49-1.14,2.63-2.63,2.63-1.06,0-1.85-.57-2.63-1.42-1.56-1.7-3.41-2.84-6.46-2.84-3.69,0-6.46,1.78-7.6,5.33-.57,1.77-.78,3.9-.78,6.89s.21,5.18.78,6.96c1.14,3.55,3.91,5.33,7.6,5.33,3.05,0,4.9-1.14,6.46-2.84.78-.85,1.56-1.42,2.63-1.42,1.49,0,2.63,1.14,2.63,2.63,0,.78-.28,1.42-.85,2.2-2.13,2.77-5.75,4.97-10.86,4.97-6.53,0-11.5-3.27-13.42-9.16Z"/><path class="cls-5" d="m38.37,135.48c-.71-2.13-1.14-4.54-1.14-8.59s.35-6.46,1.06-8.59c1.92-5.89,6.82-9.16,13.28-9.16s11.5,3.27,13.35,9.09c.78,2.27,1.14,4.9,1.14,8.24,0,1.35-.92,2.27-2.34,2.27h-19.95c-.28,0-.43.14-.43.43,0,1.63.14,2.77.57,4.12,1.28,3.91,4.4,5.89,8.59,5.89,3.34,0,5.61-.99,8.17-2.91.71-.57,1.35-.85,2.06-.85,1.42,0,2.49,1.06,2.49,2.49,0,.85-.36,1.56-.92,2.13-2.91,2.7-6.96,4.69-12.21,4.69-7.03,0-11.79-3.27-13.7-9.23Zm21.16-11.5c.28,0,.43-.14.43-.43,0-1.56-.14-2.77-.5-3.83-1.14-3.41-3.98-5.32-7.81-5.32s-6.67,1.92-7.81,5.32c-.35,1.06-.5,2.27-.5,3.83,0,.28.14.43.43.43h15.76Z"/><path class="cls-5" d="m75.64,112.76c0-1.99,1.28-3.19,2.98-3.19s2.98,1.21,2.98,3.19v.99h.07c1.63-2.63,4.9-4.62,9.51-4.62,7.38,0,11.79,5.04,11.79,12.78v19.17c0,1.99-1.28,3.2-2.98,3.2s-2.98-1.21-2.98-3.2v-17.75c0-5.47-2.49-8.66-7.6-8.66-4.62,0-7.81,3.27-7.81,8.31v18.11c0,1.99-1.28,3.2-2.98,3.2s-2.98-1.21-2.98-3.2v-28.33Z"/><path class="cls-5" d="m124.5,144.29c-6.96,0-9.51-2.91-9.51-10.01v-19.1c0-.28-.14-.43-.43-.43h-1.92c-1.63,0-2.56-.99-2.56-2.41s.92-2.41,2.56-2.41h1.92c.28,0,.43-.14.43-.43v-7.46c0-1.99,1.28-3.19,2.98-3.19s2.98,1.21,2.98,3.19v7.46c0,.28.14.43.43.43h4.47c1.63,0,2.56.99,2.56,2.41s-.92,2.41-2.56,2.41h-4.47c-.28,0-.43.14-.43.43v18.89c0,3.62.92,4.69,4.54,4.69,1.85,0,2.91,1.14,2.91,2.77s-1.06,2.77-3.2,2.77h-.71Z"/><path class="cls-5" d="m136.85,141.09v-28.33c0-1.99,1.28-3.19,2.98-3.19s2.98,1.21,2.98,3.19v1.56h.07c1.42-3.05,4.54-5.18,8.73-5.18,2.34,0,3.91.57,5.04,1.21,1.21.64,1.7,1.56,1.7,2.56,0,1.7-1.21,2.98-2.98,2.98-.43,0-.99-.14-1.49-.35-1.28-.5-2.49-.85-3.91-.85-5.11,0-7.17,4.26-7.17,9.94v16.47c0,1.99-1.28,3.2-2.98,3.2s-2.98-1.21-2.98-3.2Z"/><path class="cls-5" d="m191.88,141.45c0,1.63-1.28,2.84-3.05,2.84-1.06,0-1.92-.5-2.63-1.49l-1.35-2.13h-.07c-2.27,2.56-5.47,4.05-10.44,4.05-7.6,0-12-3.76-12-10.23,0-7.03,4.83-10.51,13.28-10.51h7.74c.28,0,.43-.14.43-.43v-1.63c0-4.76-2.2-7.45-8.17-7.45-2.63,0-5.33.85-6.96,1.7-.57.28-1.21.5-1.7.5-1.56,0-2.56-.99-2.56-2.56,0-.92.43-1.85,1.42-2.41,2.13-1.42,5.68-2.56,10.37-2.56,9.09,0,13.35,4.33,13.35,12.71v12.21c0,1.78.14,2.49.64,3.48l1.21,2.2c.28.5.5,1.14.5,1.7Zm-8.09-8.52v-3.76c0-.28-.14-.43-.43-.43h-6.82c-5.82,0-8.45,1.7-8.45,5.54,0,3.55,2.56,5.32,7.1,5.32,5.25,0,8.59-2.49,8.59-6.67Z"/><path class="cls-5" d="m209.14,144.29c-6.11,0-8.31-2.98-8.31-9.09v-36.71c0-1.99,1.28-3.19,2.98-3.19s2.98,1.21,2.98,3.19v36.35c0,2.84.92,3.91,3.27,3.91,1.7,0,2.77,1.14,2.77,2.77s-1.06,2.77-3.05,2.77h-.64Z"/><path class="cls-4" d="m241.37,141.09v-.92h-.07c-1.63,2.7-4.62,4.54-9.66,4.54-5.75,0-9.94-3.2-11.72-8.52-.85-2.7-1.21-5.4-1.21-9.3s.35-6.53,1.21-9.23c1.78-5.33,5.96-8.52,11.72-8.52,5.11,0,8.09,1.92,9.66,4.54h.07v-15.19c0-1.99,1.28-3.19,2.98-3.19s2.98,1.21,2.98,3.19v42.6c0,1.99-1.28,3.2-2.98,3.2s-2.98-1.21-2.98-3.2Zm-.78-7.24c.64-1.85.78-3.98.78-6.96s-.14-5.04-.78-6.89c-1.14-3.41-3.69-5.33-7.53-5.33s-6.32,1.92-7.46,5.33c-.64,1.85-.78,3.98-.78,6.89s.14,5.11.78,6.96c1.14,3.41,3.69,5.33,7.46,5.33s6.39-1.92,7.53-5.33Z"/><path class="cls-4" d="m258.06,135.48c-.71-2.13-1.14-4.54-1.14-8.59s.35-6.46,1.06-8.59c1.92-5.89,6.82-9.16,13.28-9.16s11.5,3.27,13.35,9.09c.78,2.27,1.14,4.9,1.14,8.24,0,1.35-.92,2.27-2.34,2.27h-19.95c-.28,0-.43.14-.43.43,0,1.63.14,2.77.57,4.12,1.28,3.91,4.4,5.89,8.59,5.89,3.34,0,5.61-.99,8.17-2.91.71-.57,1.35-.85,2.06-.85,1.42,0,2.49,1.06,2.49,2.49,0,.85-.36,1.56-.92,2.13-2.91,2.7-6.96,4.69-12.21,4.69-7.03,0-11.79-3.27-13.7-9.23Zm21.16-11.5c.28,0,.43-.14.43-.43,0-1.56-.14-2.77-.5-3.83-1.14-3.41-3.98-5.32-7.81-5.32s-6.67,1.92-7.81,5.32c-.35,1.06-.5,2.27-.5,3.83,0,.28.14.43.43.43h15.76Z"/><path class="cls-5" d="m295.34,141.09v-28.33c0-1.99,1.28-3.19,2.98-3.19s2.98,1.21,2.98,3.19v1.56h.07c1.42-3.05,4.54-5.18,8.73-5.18,2.34,0,3.91.57,5.04,1.21,1.21.64,1.7,1.56,1.7,2.56,0,1.7-1.21,2.98-2.98,2.98-.43,0-.99-.14-1.49-.35-1.28-.5-2.49-.85-3.91-.85-5.11,0-7.17,4.26-7.17,9.94v16.47c0,1.99-1.28,3.2-2.98,3.2s-2.98-1.21-2.98-3.2Z"/><path class="cls-5" d="m322.04,135.48c-.71-2.13-1.14-4.54-1.14-8.59s.35-6.46,1.06-8.59c1.92-5.89,6.82-9.16,13.28-9.16s11.5,3.27,13.35,9.09c.78,2.27,1.14,4.9,1.14,8.24,0,1.35-.92,2.27-2.34,2.27h-19.95c-.28,0-.43.14-.43.43,0,1.63.14,2.77.57,4.12,1.28,3.91,4.4,5.89,8.59,5.89,3.34,0,5.61-.99,8.17-2.91.71-.57,1.35-.85,2.06-.85,1.42,0,2.49,1.06,2.49,2.49,0,.85-.36,1.56-.92,2.13-2.91,2.7-6.96,4.69-12.21,4.69-7.03,0-11.79-3.27-13.7-9.23Zm21.16-11.5c.28,0,.43-.14.43-.43,0-1.56-.14-2.77-.5-3.83-1.14-3.41-3.98-5.32-7.81-5.32s-6.67,1.92-7.81,5.32c-.35,1.06-.5,2.27-.5,3.83,0,.28.14.43.43.43h15.76Z"/><path class="cls-5" d="m358.46,140.95c-.92-.64-1.42-1.49-1.42-2.49,0-1.42,1.14-2.7,2.77-2.7.57,0,1.14.14,1.99.64,2.77,1.63,5.68,2.98,9.51,2.98,4.9,0,7.46-2.13,7.46-5.11s-1.28-4.26-6.67-4.83l-3.55-.35c-6.68-.71-10.15-4.12-10.15-9.59,0-6.46,4.62-10.37,12.57-10.37,3.98,0,7.53.99,10.15,2.49,1.21.64,1.78,1.42,1.78,2.49,0,1.42-1.14,2.56-2.56,2.56-.57,0-1.21-.14-2.13-.57-2.27-1.06-4.83-1.78-7.53-1.78-4.26,0-6.46,1.92-6.46,4.69s1.56,4.12,6.67,4.62l3.55.35c7.1.78,10.22,4.12,10.22,9.66,0,6.67-4.83,11.08-13.85,11.08-5.18,0-9.51-1.78-12.35-3.76Z"/><path class="cls-5" d="m393.18,135.48c-.71-2.13-1.14-4.54-1.14-8.59s.36-6.46,1.06-8.59c1.92-5.89,6.82-9.16,13.28-9.16s11.5,3.27,13.35,9.09c.78,2.27,1.14,4.9,1.14,8.24,0,1.35-.92,2.27-2.34,2.27h-19.95c-.28,0-.43.14-.43.43,0,1.63.14,2.77.57,4.12,1.28,3.91,4.4,5.89,8.59,5.89,3.34,0,5.61-.99,8.17-2.91.71-.57,1.35-.85,2.06-.85,1.42,0,2.49,1.06,2.49,2.49,0,.85-.36,1.56-.92,2.13-2.91,2.7-6.96,4.69-12.21,4.69-7.03,0-11.79-3.27-13.7-9.23Zm21.16-11.5c.28,0,.43-.14.43-.43,0-1.56-.14-2.77-.5-3.83-1.14-3.41-3.98-5.32-7.81-5.32s-6.67,1.92-7.81,5.32c-.35,1.06-.5,2.27-.5,3.83,0,.28.14.43.43.43h15.76Z"/><path class="cls-5" d="m430.46,141.09v-28.33c0-1.99,1.28-3.19,2.98-3.19s2.98,1.21,2.98,3.19v1.56h.07c1.42-3.05,4.54-5.18,8.73-5.18,2.34,0,3.91.57,5.04,1.21,1.21.64,1.7,1.56,1.7,2.56,0,1.7-1.21,2.98-2.98,2.98-.43,0-.99-.14-1.49-.35-1.28-.5-2.49-.85-3.91-.85-5.11,0-7.17,4.26-7.17,9.94v16.47c0,1.99-1.28,3.2-2.98,3.2s-2.98-1.21-2.98-3.2Z"/><path class="cls-5" d="m466.6,140.59l-10.3-26.7c-.21-.57-.28-.99-.28-1.49,0-1.56,1.14-2.84,2.91-2.84,1.42,0,2.34.85,2.84,2.13l8.8,23.64h.14l8.59-23.64c.5-1.28,1.42-2.13,2.84-2.13,1.77,0,2.91,1.28,2.91,2.84,0,.5-.07.92-.28,1.49l-10.37,26.7c-1.07,2.77-1.99,3.69-3.91,3.69s-2.84-.92-3.91-3.69Z"/><path class="cls-5" d="m520.5,141.45c0,1.63-1.28,2.84-3.05,2.84-1.06,0-1.92-.5-2.63-1.49l-1.35-2.13h-.07c-2.27,2.56-5.47,4.05-10.44,4.05-7.6,0-12-3.76-12-10.23,0-7.03,4.83-10.51,13.28-10.51h7.74c.28,0,.43-.14.43-.43v-1.63c0-4.76-2.2-7.45-8.17-7.45-2.63,0-5.32.85-6.96,1.7-.57.28-1.21.5-1.7.5-1.56,0-2.56-.99-2.56-2.56,0-.92.43-1.85,1.42-2.41,2.13-1.42,5.68-2.56,10.37-2.56,9.09,0,13.35,4.33,13.35,12.71v12.21c0,1.78.14,2.49.64,3.48l1.21,2.2c.28.5.5,1.14.5,1.7Zm-8.09-8.52v-3.76c0-.28-.14-.43-.43-.43h-6.82c-5.82,0-8.45,1.7-8.45,5.54,0,3.55,2.56,5.32,7.1,5.32,5.25,0,8.59-2.49,8.59-6.67Z"/><path class="cls-5" d="m528.74,140.95c-.92-.64-1.42-1.49-1.42-2.49,0-1.42,1.14-2.7,2.77-2.7.57,0,1.14.14,1.99.64,2.77,1.63,5.68,2.98,9.51,2.98,4.9,0,7.46-2.13,7.46-5.11s-1.28-4.26-6.68-4.83l-3.55-.35c-6.67-.71-10.15-4.12-10.15-9.59,0-6.46,4.62-10.37,12.57-10.37,3.98,0,7.53.99,10.15,2.49,1.21.64,1.78,1.42,1.78,2.49,0,1.42-1.14,2.56-2.56,2.56-.57,0-1.21-.14-2.13-.57-2.27-1.06-4.83-1.78-7.53-1.78-4.26,0-6.46,1.92-6.46,4.69s1.56,4.12,6.67,4.62l3.55.35c7.1.78,10.22,4.12,10.22,9.66,0,6.67-4.83,11.08-13.85,11.08-5.18,0-9.51-1.78-12.36-3.76Z"/><path class="cls-4" d="m566.94,136.19c2.2,0,4.05,1.85,4.05,4.05s-1.85,4.05-4.05,4.05-4.05-1.85-4.05-4.05,1.85-4.05,4.05-4.05Z"/><path class="cls-4" d="m580.14,135.55c-.64-2.06-1.07-4.83-1.07-8.66s.43-6.53,1.07-8.59c1.92-5.89,6.89-9.16,13.42-9.16,5.11,0,8.73,2.2,10.86,4.97.57.78.85,1.42.85,2.2,0,1.49-1.14,2.63-2.63,2.63-1.06,0-1.85-.57-2.63-1.42-1.56-1.7-3.41-2.84-6.46-2.84-3.69,0-6.46,1.78-7.6,5.33-.57,1.77-.78,3.9-.78,6.89s.21,5.18.78,6.96c1.14,3.55,3.91,5.33,7.6,5.33,3.05,0,4.9-1.14,6.46-2.84.78-.85,1.56-1.42,2.63-1.42,1.49,0,2.63,1.14,2.63,2.63,0,.78-.28,1.42-.85,2.2-2.13,2.77-5.75,4.97-10.86,4.97-6.53,0-11.5-3.27-13.42-9.16Z"/><path class="cls-4" d="m613.73,135.55c-.78-2.34-1.14-4.69-1.14-8.66s.36-6.25,1.14-8.59c1.85-5.82,6.82-9.16,13.42-9.16s11.57,3.34,13.42,9.16c.78,2.34,1.14,4.69,1.14,8.59s-.36,6.32-1.14,8.66c-1.85,5.75-6.82,9.16-13.42,9.16s-11.57-3.41-13.42-9.16Zm21.09-1.7c.57-1.85.78-3.69.78-6.96s-.21-5.04-.78-6.89c-1.14-3.41-3.9-5.33-7.67-5.33s-6.53,1.92-7.67,5.33c-.57,1.85-.78,3.62-.78,6.89s.21,5.11.78,6.96c1.14,3.41,3.91,5.33,7.67,5.33s6.53-1.92,7.67-5.33Z"/><path class="cls-4" d="m651.29,112.76c0-1.99,1.28-3.19,2.98-3.19s2.98,1.21,2.98,3.19v.99h.07c1.85-2.77,4.9-4.62,9.51-4.62s8.09,1.99,9.94,5.33h.07c2.27-3.2,5.68-5.33,11.01-5.33,7.67,0,12.14,4.83,12.14,12.78v19.17c0,1.99-1.28,3.2-2.98,3.2s-2.98-1.21-2.98-3.2v-17.75c0-5.47-2.49-8.66-7.6-8.66-4.62,0-7.81,3.27-7.81,8.31v18.11c0,1.99-1.28,3.2-2.98,3.2s-2.98-1.21-2.98-3.2v-17.75c0-5.47-2.49-8.66-7.6-8.66-4.62,0-7.81,3.27-7.81,8.31v18.11c0,1.99-1.28,3.2-2.98,3.2s-2.98-1.21-2.98-3.2v-28.33Z"/></svg>