<svg width="1211" height="162" viewBox="0 0 1211 162" fill="none" xmlns="http://www.w3.org/2000/svg">
<g clip-path="url(#clip0_314_242)">
<path d="M0 0V161.623H113.24V0H0ZM52.5768 13.4677H55.2705V10.7764H57.9641V13.4677H60.6577V16.1589H57.9641V18.8502H55.2705V16.1589H52.5768V13.4677ZM32.3519 129.3H26.959V134.688H21.566V129.3H16.1731V123.912H21.566V118.523H26.959V123.912H32.3519V129.3ZM32.3519 96.9762H26.959V102.364H21.566V96.9762H16.1731V91.588H21.566V86.1998H26.959V91.588H32.3519V96.9762ZM32.3519 64.6527H26.959V70.0409H21.566V64.6527H16.1731V59.2645H21.566V53.8763H26.959V59.2645H32.3519V64.6527ZM59.425 121.015C59.3508 121.973 59.3166 122.942 59.3166 123.917C59.3166 131.928 61.8162 139.358 66.0849 145.47H47.1611C51.4241 139.363 53.9294 131.934 53.9294 123.917C53.9294 122.942 53.8894 121.973 53.8209 121.015C44.73 119.658 37.7563 111.829 37.7563 102.364H75.5011C75.5011 111.824 68.5274 119.658 59.4364 121.015H59.425ZM64.7038 59.2645V64.6527H59.3109V70.0409H53.9179V64.6527H48.525V59.2645H53.9179V53.8763H59.3109V59.2645H64.7038ZM56.6173 75.4291C62.5752 75.4291 67.4031 80.2529 67.4031 86.2055C67.4031 92.1582 62.5752 96.9819 56.6173 96.9819C50.6594 96.9819 45.8314 92.1582 45.8314 86.2055C45.8314 80.2529 50.6594 75.4291 56.6173 75.4291ZM75.4897 47.1425H37.7448V43.0999H75.4897V47.1425ZM79.3018 36.2407L77.3216 39.063H72.2825L75.8892 33.8687C76.4998 32.9792 76.7166 31.8161 76.7166 31.0862C76.7166 29.8204 76.3057 28.7485 75.4954 27.916C74.5252 26.9125 73.3325 26.405 71.94 26.405C71.3408 26.405 70.9185 26.4621 70.9185 26.4621L70.9071 26.445C71.2096 27.5169 71.3694 28.5546 71.3694 29.5239C71.3694 31.2687 71.181 32.7569 70.2565 34.3191L67.4488 39.0687H62.5409L66.5357 32.295C66.9066 31.6735 67.1977 30.4533 67.1977 29.5239C67.1977 28.1384 66.764 27.0151 65.8737 26.1028C64.8351 25.0309 63.6366 24.4835 62.3184 24.4835C60.652 24.4835 59.4421 24.9625 58.6375 25.9489V39.0687H54.597V25.9489C53.7924 24.9625 52.5883 24.4835 50.9162 24.4835C49.5922 24.4835 48.3995 25.0252 47.3608 26.1028C46.4706 27.0151 46.0368 28.1327 46.0368 29.5239C46.0368 30.4533 46.3279 31.6678 46.6988 32.295L50.6936 39.0687H45.7857L42.978 34.3191C42.0535 32.7511 41.8652 31.2687 41.8652 29.5239C41.8652 28.5546 42.0249 27.5169 42.3274 26.445L42.316 26.4621C42.316 26.4621 41.8937 26.405 41.2945 26.405C39.9077 26.405 38.7093 26.9125 37.7391 27.916C36.9288 28.7542 36.5179 29.8204 36.5179 31.0862C36.5179 31.8161 36.7347 32.9792 37.3454 33.8687L40.9521 39.063H35.913L33.9327 36.2407C32.8541 34.6841 32.3519 33.0476 32.3519 31.0862C32.3519 28.5603 33.2422 26.4564 34.9827 24.8428C36.729 23.041 38.852 22.1287 41.2945 22.1287C42.3388 22.1287 43.4631 22.3397 44.6387 22.7388C44.73 22.6362 44.8213 22.5392 44.924 22.448C46.5219 20.9598 48.5364 20.2072 50.9162 20.2072C52.9763 20.2072 54.8938 20.8401 56.6173 22.0888C58.3407 20.8401 60.2582 20.2072 62.3184 20.2072C64.6981 20.2072 66.7126 20.9598 68.3105 22.448C68.4132 22.5392 68.5045 22.6362 68.5958 22.7388C69.7715 22.3397 70.8957 22.1287 71.94 22.1287C74.3826 22.1287 76.5055 23.041 78.2518 24.8428C79.9923 26.4564 80.8826 28.5603 80.8826 31.0862C80.8826 33.0476 80.3804 34.6841 79.3018 36.2407ZM97.0614 129.305H91.6685V134.694H86.2755V129.305H80.8826V123.917H86.2755V118.529H91.6685V123.917H97.0614V129.305ZM97.0614 96.9819H91.6685V102.37H86.2755V96.9819H80.8826V91.5937H86.2755V86.2055H91.6685V91.5937H97.0614V96.9819ZM97.0614 64.6584H91.6685V70.0466H86.2755V64.6584H80.8826V59.2702H86.2755V53.882H91.6685V59.2702H97.0614V64.6584Z" fill="#007BC4"/>
<path d="M188.348 118.108C188.348 135.607 178.264 145.448 163.409 145.448H145.586V91.5488H162.627C178.104 91.5488 188.348 101.156 188.348 118.108ZM180.843 118.108C180.843 104.748 173.105 98.1116 162.473 98.1116H152.623V138.885H162.941C173.419 138.885 180.843 132.015 180.843 118.108Z" fill="#007BC4"/>
<path d="M234.71 145.442H201.251V91.543H234.396L232.204 98.1057H208.281V114.35H229.705V120.913H208.281V138.879H232.518L234.71 145.442Z" fill="#007BC4"/>
<path d="M314.753 122.481C314.753 136.775 305.525 146.85 290.517 146.85C275.508 146.85 265.892 135.76 265.892 118.107C265.892 100.455 276.29 90.2998 292.24 90.2998C298.341 90.2998 305.451 92.5634 310.924 95.8477V103.893C304.281 99.7534 297.085 97.0222 292.24 97.0222C281.14 97.0222 273.396 105.381 273.396 118.113C273.396 131.706 280.119 140.139 290.517 140.139C299.899 140.139 306.541 134.204 307.323 124.129H292.234L290.123 117.566H314.28C314.594 119.048 314.748 120.69 314.748 122.486L314.753 122.481Z" fill="#007BC4"/>
<path d="M358.148 132.242H333.991L328.672 145.442H321.248L343.921 91.543H348.458L371.131 145.442H363.393L358.154 132.242H358.148ZM355.569 125.839L346.107 102.171L336.571 125.839H355.569Z" fill="#007BC4"/>
<path d="M415.142 145.442H380.901V91.543H387.938V138.879H412.956L415.148 145.442H415.142Z" fill="#007BC4"/>
<path d="M425.232 91.5488H432.268V145.448H425.232V91.5488Z" fill="#007BC4"/>
<path d="M445.165 118.107C445.165 101.39 454.313 90.2998 468.934 90.2998C475.269 90.2998 481.991 92.6432 486.916 96.3152V104.514C480.976 100.061 474.407 97.0165 468.934 97.0165C459.552 97.0165 452.67 104.982 452.67 118.107C452.67 131.233 459.238 139.98 468.934 139.98C474.407 139.98 480.976 136.935 486.916 132.482V140.681C481.991 144.353 475.269 146.696 468.934 146.696C454 146.696 445.165 135.293 445.165 118.107Z" fill="#007BC4"/>
<path d="M499.5 91.5488H506.536V145.448H499.5V91.5488Z" fill="#007BC4"/>
<path d="M553.212 132.242H529.056L523.737 145.442H516.312L538.985 91.543H543.522L566.195 145.442H558.457L553.218 132.242H553.212ZM550.633 125.839L541.171 102.171L531.635 125.839H550.633Z" fill="#007BC4"/>
<path d="M182.179 70.035L167.792 48.2427L153.565 70.035H145.592L163.808 42.3072L146.528 16.1416H154.814L168.26 36.5255L181.551 16.1416H189.523L172.243 42.4668L190.459 70.0407H182.173L182.179 70.035Z" fill="#007BC4"/>
<path d="M200.132 51.9945V16.1416H207.169V51.6809C207.169 60.0398 212.248 64.7267 220.066 64.7267C227.884 64.7267 232.963 60.0398 232.963 51.6809V16.1416H240V51.9945C240 64.0995 232.261 71.4434 220.066 71.4434C207.871 71.4434 200.132 64.0995 200.132 51.9945Z" fill="#007BC4"/>
<path d="M295.984 16.1416V70.035H291.995L262.445 28.868V70.035H255.408V16.1416H261.349L288.947 54.5717V16.1416H295.984Z" fill="#007BC4"/>
<path d="M354.832 22.7044H335.287V70.035H328.25V22.7044H308.704L306.513 16.1416H357.018L354.827 22.7044H354.832Z" fill="#007BC4"/>
<path d="M391.442 56.8352H367.285L361.966 70.0349H354.541L377.214 16.1357H381.751L404.424 70.0349H396.686L391.447 56.8352H391.442ZM388.862 50.4321L379.4 26.7639L369.864 50.4321H388.862Z" fill="#007BC4"/>
</g>
<path d="M762.528 37.8377C757.993 31.7909 753.458 26.416 747.244 22.5527C720.537 56.4819 683.584 96.7939 649.655 130.723C650.831 131.899 652.343 133.411 653.518 134.586C687.448 100.321 726.752 65.2162 762.528 37.8377Z" fill="#B62F31"/>
<path d="M775.966 75.1266C775.126 67.9041 773.278 60.6815 771.431 53.7949C740.189 66.3924 693.662 98.306 655.198 136.098C667.796 147.52 684.928 154.071 702.9 154.071C726.92 154.071 747.915 143.321 760.513 125.517C735.318 119.47 700.213 116.446 675.522 139.626C675.522 139.626 674.346 140.801 671.659 142.985C671.659 142.985 670.819 142.985 670.483 142.145C669.643 142.145 669.307 141.305 669.307 141.305C678.377 130.556 690.639 122.661 703.236 117.286C721.881 110.064 744.388 105.864 771.095 108.216C773.782 102.841 774.958 97.4662 775.63 91.4194C753.962 92.5951 732.631 97.4662 714.658 104.689C695.678 111.911 679.553 121.485 662.757 138.618C661.917 137.778 661.581 137.778 660.069 137.442L670.819 129.38C697.022 103.849 738.173 83.525 775.966 75.1266ZM718.353 129.716C722.217 129.716 725.576 130.556 729.775 130.891C736.326 132.067 745.06 135.427 749.595 138.114C743.044 139.29 731.623 141.977 720.201 138.954C711.131 135.595 701.221 135.595 692.319 138.954C689.631 140.13 686.944 141.641 683.584 142.817C683.584 142.817 682.409 143.657 680.897 143.657C679.385 143.657 679.049 143.657 679.049 143.657C689.799 134.251 703.572 128.876 718.353 129.716Z" fill="#B62F31"/>
<path d="M709.619 8.1084C701.557 46.5727 681.737 87.0526 654.694 114.767L645.624 123.837C644.784 122.997 644.784 122.661 644.448 121.15C673.842 91.4197 688.287 53.6273 690.975 8.78025C684.928 9.62009 680.225 10.6279 674.178 13.3153C676.026 39.1822 672.331 61.6897 665.108 81.1738C659.733 94.4431 651.839 106.369 641.929 116.279C641.929 116.279 641.089 115.439 641.089 115.103C641.089 114.767 640.249 113.927 640.249 113.927C641.425 112.751 643.608 110.064 643.608 110.064C666.116 86.0448 663.428 50.2679 657.718 23.8972C653.182 27.2566 649.655 31.1198 646.296 35.6549C648.983 40.19 652.343 48.9242 653.518 54.6351C654.358 57.9944 654.694 61.8576 654.694 66.0568C654.694 80.166 650.159 94.6111 641.425 105.361C641.425 105.361 641.425 104.185 642.265 102.673C642.265 101.498 643.104 99.986 643.104 99.986C644.28 97.2985 645.792 94.6111 646.464 91.9236C649.823 83.1893 649.823 72.9434 647.304 63.3693C643.944 52.6195 646.128 41.7016 648.143 35.4869C637.394 48.0844 631.347 64.0412 631.347 81.1738C631.347 99.1462 637.897 116.279 649.991 128.876C685.768 92.5955 719.697 48.9242 732.295 12.9794C724.064 10.7958 716.842 8.94823 709.619 8.1084Z" fill="#B62F31"/>
<path d="M854.575 118.967L837.779 91.0843L822.158 118.967H809.56L832.068 81.1743L810.736 45.9014H824.006L839.29 71.7682L853.736 45.9014H866.333L845.337 81.6782L867.005 119.471L854.575 118.967Z" fill="#787878"/>
<path d="M919.746 69.9208V119.135H908.997V115.776C905.637 118.463 900.934 120.311 895.727 120.311C880.442 120.311 871.708 108.889 871.708 92.4283C871.708 77.1434 881.618 65.3857 896.903 65.3857C904.125 65.3857 911.348 69.9208 915.883 69.9208C915.547 69.9208 919.746 69.9208 919.746 69.9208ZM882.458 92.4283C882.458 103.85 887.833 110.401 896.567 110.401C901.942 110.401 906.477 107.713 909.164 103.85V78.6551C905.805 77.8153 901.942 74.7919 896.567 74.7919C887.833 75.1278 882.458 82.5183 882.458 92.4283Z" fill="#787878"/>
<path d="M940.742 83.1902V101.834C943.43 107.209 947.965 110.905 954.012 110.905C960.058 110.905 965.433 107.041 967.281 101.834L976.351 107.209C972.488 115.944 964.593 121.319 953.172 121.319C943.262 121.319 934.527 114.768 929.992 104.522V81.3425C934.527 71.4325 943.262 65.3857 953.172 65.3857C963.922 65.3857 971.816 70.7607 976.351 78.6551L967.281 84.03C964.593 78.6551 960.058 74.9598 954.012 74.9598C948.805 74.4559 943.43 78.3192 940.742 83.1902Z" fill="#787878"/>
<path d="M1035.64 92.4283C1035.64 109.561 1024.89 120.983 1009.78 120.983C994.659 120.983 983.909 109.561 983.909 92.4283C983.909 75.6317 994.659 65.3857 1009.78 65.3857C1025.4 65.2178 1035.64 75.9676 1035.64 92.4283ZM1009.44 75.1278C1000.37 75.1278 994.155 81.6785 994.155 92.2603C994.155 103.682 999.53 110.905 1009.44 110.905C1018.51 110.905 1024.73 103.682 1024.73 92.2603C1024.56 81.6785 1019.35 75.1278 1009.44 75.1278Z" fill="#787878"/>
<path d="M1069.57 65.2185C1084.02 65.2185 1093.59 76.6402 1093.59 92.261C1093.59 109.058 1084.52 120.143 1069.57 120.143C1064.2 120.143 1059.66 118.968 1056.3 115.608V118.296H1045.55V45.0625H1056.3V70.2575C1059.66 68.4098 1064.2 65.2185 1069.57 65.2185ZM1068.4 75.1285C1063.86 75.1285 1059.66 78.9917 1055.8 81.1753V105.362C1058.49 108.05 1063.02 110.737 1068.4 110.737C1076.46 110.737 1081.67 104.187 1081.67 92.0931C1082.17 81.6792 1076.79 75.1285 1068.4 75.1285Z" fill="#787878"/>
<path d="M1101.99 92.4283C1101.99 75.6317 1111.06 65.3857 1126.34 65.3857C1140.79 65.3857 1149.52 76.8075 1149.52 93.2682V95.9556H1112.57C1113.41 104.69 1119.12 111.912 1127.02 111.912C1132.39 111.912 1136.09 109.225 1139.61 105.362L1148.68 110.737C1144.15 117.959 1136.09 122.158 1127.02 122.158C1112.24 120.983 1101.99 109.057 1101.99 92.4283ZM1138.61 86.2136C1137.77 79.6629 1134.07 73.6161 1126.01 73.6161C1117.95 73.6161 1112.74 79.6629 1112.74 86.2136H1138.61Z" fill="#787878"/>
<path d="M1211 92.4283C1211 109.561 1200.25 120.983 1185.13 120.983C1170.02 120.983 1159.27 109.561 1159.27 92.4283C1159.27 75.6317 1170.02 65.3857 1185.13 65.3857C1200.25 65.2178 1211 75.9676 1211 92.4283ZM1185.13 75.1278C1176.06 75.1278 1169.85 81.6785 1169.85 92.2603C1169.85 103.682 1175.22 110.905 1185.13 110.905C1194.2 110.905 1200.42 103.682 1200.42 92.2603C1199.58 81.6785 1194.2 75.1278 1185.13 75.1278Z" fill="#787878"/>
<defs>
<clipPath id="clip0_314_242">
<rect width="566.19" height="161.623" fill="white"/>
</clipPath>
</defs>
</svg>
