<svg width="1196" height="193" viewBox="0 0 1196 193" fill="none" xmlns="http://www.w3.org/2000/svg">
<g clip-path="url(#clip0_305_345)">
<path d="M707.246 0V139.519H804.999V0H707.246ZM752.632 11.6257H754.957V9.30256H757.282V11.6257H759.608V13.9489H757.282V16.2721H754.957V13.9489H752.632V11.6257ZM735.173 111.616H730.518V116.267H725.862V111.616H721.207V106.965H725.862V102.313H730.518V106.965H735.173V111.616ZM735.173 83.7132H730.518V88.3645H725.862V83.7132H721.207V79.0619H725.862V74.4106H730.518V79.0619H735.173V83.7132ZM735.173 55.8104H730.518V60.4617H725.862V55.8104H721.207V51.1592H725.862V46.5079H730.518V51.1592H735.173V55.8104ZM758.543 104.464C758.479 105.291 758.45 106.128 758.45 106.97C758.45 113.885 760.608 120.298 764.292 125.575H747.957C751.637 120.303 753.799 113.89 753.799 106.97C753.799 106.128 753.765 105.291 753.706 104.464C745.858 103.293 739.838 96.535 739.838 88.3645H772.421C772.421 96.5301 766.401 103.293 758.553 104.464H758.543ZM763.1 51.1592V55.8104H758.445V60.4617H753.79V55.8104H749.134V51.1592H753.79V46.5079H758.445V51.1592H763.1ZM756.12 65.113C761.263 65.113 765.43 69.277 765.43 74.4156C765.43 79.5541 761.263 83.7181 756.12 83.7181C750.977 83.7181 746.809 79.5541 746.809 74.4156C746.809 69.277 750.977 65.113 756.12 65.113ZM772.411 40.695H739.828V37.2053H772.411V40.695ZM775.702 31.2842L773.992 33.7206H769.642L772.756 29.2366C773.283 28.4688 773.47 27.4647 773.47 26.8347C773.47 25.742 773.115 24.8167 772.416 24.0981C771.578 23.2318 770.549 22.7937 769.347 22.7937C768.83 22.7937 768.465 22.843 768.465 22.843L768.455 22.8282C768.716 23.7535 768.854 24.6493 768.854 25.4861C768.854 26.9922 768.692 28.2768 767.894 29.6255L765.47 33.7255H761.233L764.682 27.8781C765.002 27.3417 765.253 26.2883 765.253 25.4861C765.253 24.29 764.879 23.3204 764.11 22.5329C763.214 21.6075 762.179 21.135 761.041 21.135C759.603 21.135 758.558 21.5485 757.864 22.4V33.7255H754.376V22.4C753.681 21.5485 752.642 21.135 751.198 21.135C750.055 21.135 749.026 21.6026 748.129 22.5329C747.361 23.3204 746.986 24.2851 746.986 25.4861C746.986 26.2883 747.238 27.3367 747.558 27.8781L751.006 33.7255H746.77L744.346 29.6255C743.548 28.2719 743.385 26.9922 743.385 25.4861C743.385 24.6493 743.523 23.7535 743.784 22.8282L743.774 22.843C743.774 22.843 743.41 22.7937 742.893 22.7937C741.695 22.7937 740.661 23.2318 739.823 24.0981C739.124 24.8216 738.769 25.742 738.769 26.8347C738.769 27.4647 738.956 28.4688 739.484 29.2366L742.597 33.7206H738.247L736.538 31.2842C735.607 29.9405 735.173 28.5279 735.173 26.8347C735.173 24.6542 735.941 22.838 737.444 21.4451C738.951 19.8898 740.784 19.1022 742.893 19.1022C743.794 19.1022 744.765 19.2844 745.779 19.6289C745.858 19.5403 745.937 19.4566 746.026 19.3779C747.405 18.0932 749.144 17.4435 751.198 17.4435C752.977 17.4435 754.632 17.9899 756.12 19.0678C757.607 17.9899 759.263 17.4435 761.041 17.4435C763.095 17.4435 764.834 18.0932 766.214 19.3779C766.302 19.4566 766.381 19.5403 766.46 19.6289C767.475 19.2844 768.445 19.1022 769.347 19.1022C771.455 19.1022 773.288 19.8898 774.795 21.4451C776.298 22.838 777.066 24.6542 777.066 26.8347C777.066 28.5279 776.633 29.9405 775.702 31.2842ZM791.032 111.621H786.377V116.272H781.722V111.621H777.066V106.97H781.722V102.318H786.377V106.97H791.032V111.621ZM791.032 83.7181H786.377V88.3694H781.722V83.7181H777.066V79.0668H781.722V74.4156H786.377V79.0668H791.032V83.7181ZM791.032 55.8154H786.377V60.4666H781.722V55.8154H777.066V51.1641H781.722V46.5128H786.377V51.1641H791.032V55.8154Z" fill="#007BC4"/>
<path d="M869.834 101.954C869.834 117.06 861.129 125.555 848.306 125.555H832.921V79.0273H847.631C860.991 79.0273 869.834 87.3209 869.834 101.954ZM863.356 101.954C863.356 90.4217 856.676 84.6926 847.498 84.6926H838.995V119.89H847.902C856.947 119.89 863.356 113.959 863.356 101.954Z" fill="#007BC4"/>
<path d="M909.855 125.55H880.972V79.0225H909.584L907.692 84.6877H887.041V98.7104H905.535V104.376H887.041V119.885H907.963L909.855 125.55Z" fill="#007BC4"/>
<path d="M978.952 105.729C978.952 118.068 970.986 126.766 958.03 126.766C945.073 126.766 936.772 117.192 936.772 101.954C936.772 86.7153 945.748 77.9492 959.517 77.9492C964.784 77.9492 970.922 79.9033 975.646 82.7383V89.6832C969.912 86.1099 963.7 83.7522 959.517 83.7522C949.936 83.7522 943.251 90.9679 943.251 101.959C943.251 113.693 949.054 120.972 958.03 120.972C966.128 120.972 971.863 115.849 972.538 107.151H959.512L957.69 101.486H978.543C978.814 102.766 978.947 104.183 978.947 105.734L978.952 105.729Z" fill="#007BC4"/>
<path d="M1016.41 114.156H995.558L990.967 125.55H984.558L1004.13 79.0225H1008.05L1027.62 125.55H1020.94L1016.42 114.156H1016.41ZM1014.18 108.628L1006.02 88.197L997.785 108.628H1014.18Z" fill="#007BC4"/>
<path d="M1065.61 125.55H1036.05V79.0225H1042.13V119.885H1063.72L1065.62 125.55H1065.61Z" fill="#007BC4"/>
<path d="M1074.32 79.0273H1080.39V125.555H1074.32V79.0273Z" fill="#007BC4"/>
<path d="M1091.53 101.954C1091.53 87.5225 1099.42 77.9492 1112.05 77.9492C1117.51 77.9492 1123.32 79.9722 1127.57 83.1419V90.2197C1122.44 86.3757 1116.77 83.7473 1112.05 83.7473C1103.95 83.7473 1098.01 90.6233 1098.01 101.954C1098.01 113.284 1103.68 120.835 1112.05 120.835C1116.77 120.835 1122.44 118.206 1127.57 114.362V121.44C1123.32 124.61 1117.51 126.633 1112.05 126.633C1099.15 126.633 1091.53 116.789 1091.53 101.954Z" fill="#007BC4"/>
<path d="M1138.43 79.0273H1144.51V125.555H1138.43V79.0273Z" fill="#007BC4"/>
<path d="M1184.8 114.156H1163.94L1159.35 125.55H1152.94L1172.52 79.0225H1176.43L1196 125.55H1189.32L1184.8 114.156H1184.8ZM1182.57 108.628L1174.4 88.197L1166.17 108.628H1182.57Z" fill="#007BC4"/>
<path d="M864.508 60.4572L852.089 41.6454L839.808 60.4572H832.926L848.651 36.5216L833.734 13.9346H840.887L852.493 31.5307L863.967 13.9346H870.849L855.932 36.6594L871.656 60.4621H864.503L864.508 60.4572Z" fill="#007BC4"/>
<path d="M880.007 44.884V13.9346H886.081V44.6133C886.081 51.829 890.465 55.8748 897.214 55.8748C903.963 55.8748 908.348 51.829 908.348 44.6133V13.9346H914.422V44.884C914.422 55.3334 907.742 61.6729 897.214 61.6729C886.687 61.6729 880.007 55.3334 880.007 44.884Z" fill="#007BC4"/>
<path d="M962.749 13.9346V60.4572H959.305L933.797 24.9205V60.4572H927.723V13.9346H932.851L956.675 47.1088V13.9346H962.749Z" fill="#007BC4"/>
<path d="M1013.55 19.5998H996.676V60.4572H990.602V19.5998H973.73L971.838 13.9346H1015.44L1013.54 19.5998H1013.55Z" fill="#007BC4"/>
<path d="M1045.15 49.0628H1024.3L1019.71 60.4572H1013.3L1032.87 13.9297H1036.79L1056.36 60.4572H1049.68L1045.16 49.0628H1045.15ZM1042.92 43.5354L1034.76 23.1043L1026.52 43.5354H1042.92Z" fill="#007BC4"/>
</g>
<path d="M336.832 117.518H322.495V0H336.832V117.518Z" fill="#007BC4"/>
<path d="M378.118 117.518H363.828V37.5146H378.118V117.518Z" fill="#007BC4"/>
<path d="M413.265 78.2373C413.265 93.8447 418.325 106.254 435.841 106.254C442.514 106.254 449.539 104.641 454.589 101.901L455.725 114.464C450.456 116.564 442.027 118.645 432.796 118.645C413.895 118.645 398.145 109.633 398.145 80.1846C398.145 54.4301 411.194 36.2168 437.588 36.2168C443.774 36.2168 449.988 37.1905 455.563 38.7942L453.959 51.5187C449.014 49.5904 443.153 48.1395 436.939 48.1395C421.036 48.1395 413.246 60.0621 413.246 78.2469L413.265 78.2373Z" fill="#007BC4"/>
<path d="M488.601 117.518H474.32V37.5146H488.601V117.518Z" fill="#007BC4"/>
<path d="M569.31 65.1215C577.109 69.6557 580.889 77.846 580.889 88.0027C580.889 104.88 568.317 118.912 546.257 118.912C541.618 118.912 537.943 118.425 533.828 117.451H506.938V106.006H520.321C516.178 102.799 513.649 97.1475 513.649 90.3987C513.649 73.1876 525.409 60.635 547.985 60.635C551.335 60.635 555.297 61.1027 558.018 61.5895C561.492 60.1481 563.124 57.5708 563.124 54.9839C563.124 50.4782 559.134 48.7314 549.579 48.7314H534.945C521.648 48.7314 512.895 43.6817 509.649 34.6513C509.907 33.7636 522.431 23.2441 522.431 23.2441C522.364 23.5114 522.364 23.8073 522.364 24.1033C522.364 31.8162 527.805 36.6655 538.926 36.6655H544.997C544.997 36.6655 560.652 36.4841 566.886 38.5365C573.94 40.8752 578.226 47.4904 578.226 51.786C578.226 57.4276 574.875 62.5823 569.31 65.1406V65.1215ZM566.924 89.4155C566.924 77.5214 559.755 71.0876 547.355 71.0876C534.955 71.0876 527.796 77.6837 527.796 89.4155C527.796 101.147 534.783 108.116 546.887 108.116C558.991 108.116 566.933 100.202 566.933 89.4155H566.924Z" fill="#007BC4"/>
<path d="M292.149 65.1215C299.976 69.6557 303.775 77.846 303.775 88.0027C303.775 104.88 291.232 118.912 269.115 118.912C264.485 118.912 260.838 118.425 256.686 117.451H229.824V106.006H243.179C239.045 102.799 236.506 97.1475 236.506 90.3987C236.506 73.1876 248.257 60.635 270.852 60.635C274.183 60.635 278.183 61.1027 280.865 61.5895C284.369 60.1481 285.953 57.5708 285.953 54.9839C285.953 50.4782 281.973 48.7314 272.446 48.7314H257.812C244.496 48.7314 235.771 43.6817 232.507 34.6513C232.764 33.7636 245.279 23.2441 245.279 23.2441C245.25 23.5114 245.25 23.8073 245.25 24.1033C245.25 31.8162 250.663 36.6655 261.803 36.6655H267.826C267.826 36.6655 283.548 36.4841 289.743 38.5365C296.826 40.8752 301.083 47.4904 301.083 51.786C301.083 57.4276 297.723 62.5823 292.149 65.1406V65.1215ZM289.781 89.4155C289.781 77.5214 282.631 71.0876 270.222 71.0876C257.812 71.0876 250.663 77.6837 250.663 89.4155C250.663 101.147 257.65 108.116 269.745 108.116C281.839 108.116 289.781 100.202 289.781 89.4155Z" fill="#007BC4"/>
<path d="M211.897 48.9404H198.524C202.657 52.1764 205.215 57.7893 205.215 64.5669C205.215 81.7779 193.426 94.3497 170.85 94.3497C167.481 94.3497 163.519 93.8533 160.818 93.3665C157.324 94.8079 155.739 97.4043 155.739 99.9721C155.739 104.449 159.71 106.253 169.256 106.253H183.89C197.197 106.253 205.941 111.274 209.186 120.314C208.928 121.183 196.443 131.721 196.462 130.872C196.462 123.121 191.059 118.329 179.928 118.329H173.886C166.994 118.329 163.958 121.231 160.789 125.65C127.684 176.329 93.1382 193.244 65.4745 192.394C39.0995 192.232 17.6215 186.457 0 176.978V159.891C16.9056 171.68 38.6604 179.145 66.7154 179.336C76.118 179.603 86.4847 177.484 97.2906 172.195L99.8775 170.888C103.686 168.874 107.581 166.42 111.772 163.318L114.778 160.998C119.084 157.581 123.408 153.648 127.751 148.923C135.808 140.341 143.941 129.631 151.969 116.429C149.353 115.398 147.225 114.253 145.869 113.441C142.604 111.036 140.628 107.475 140.628 103.208C140.628 97.5857 143.979 92.4023 149.535 89.8441C141.755 85.3385 137.927 77.1291 137.927 67.0106C137.927 50.0955 150.518 36.0918 172.607 36.0918C177.236 36.0918 180.873 36.5786 185.016 37.5332H211.907V48.9595L211.897 48.9404ZM191.068 65.5023C191.068 53.7515 184.062 46.8594 171.967 46.8594C159.873 46.8594 151.931 54.7061 151.931 65.5023C151.931 77.4441 159.061 83.8589 171.499 83.8589C183.938 83.8589 191.078 77.2627 191.078 65.5023H191.068Z" fill="#007BC4"/>
<defs>
<clipPath id="clip0_305_345">
<rect width="488.754" height="139.519" fill="white" transform="translate(707.246)"/>
</clipPath>
</defs>
</svg>
