<svg width="1211" height="255" viewBox="0 0 1211 255" fill="none" xmlns="http://www.w3.org/2000/svg">
<path d="M294.937 204.903V241.539H292.641L291.328 238.557C288.503 240.547 286.05 241.96 282.954 241.96C276.206 241.96 273.538 236.674 273.538 228.407C273.538 217.786 278.924 214.897 283.896 214.897C286.884 214.897 289.552 216.423 291.014 217.465V204.91H294.937V204.903ZM291.014 221.445C289.545 219.719 286.877 218.249 284.78 218.249C279.181 218.249 277.447 221.595 277.447 228.293C277.447 235.254 280.015 238.557 283.211 238.557C286.877 238.557 289.338 236.517 291.014 235.055V221.445Z" fill="#4D4E55"/>
<path d="M311.158 229.291C311.158 236.617 315.452 238.5 319.532 238.5C322.257 238.5 323.669 237.93 326.651 236.981L327.279 240.02C324.14 241.111 322.093 241.846 319.111 241.846C312.356 241.846 307.228 238.029 307.228 228.443C307.228 219.911 311.886 214.84 318.113 214.84C324.347 214.84 327.956 219.284 327.956 226.089C327.956 227.037 327.907 228.393 327.857 229.277H311.158V229.291ZM324.19 226.31C324.19 221.595 322.835 218.249 318.12 218.249C313.255 218.249 311.579 222.073 311.422 226.31H324.19Z" fill="#4D4E55"/>
<path d="M352.302 233.643C352.302 227.309 339.006 229.919 339.006 221.759C339.006 217.308 342.044 214.854 347.223 214.854C350.361 214.854 354.285 215.996 354.128 216.103L353.45 219.455C353.5 219.455 350.304 218.25 347.323 218.25C344.134 218.25 342.929 219.298 342.929 221.916C342.929 226.574 356.225 224.948 356.225 233.95C356.225 238.822 352.665 241.853 346.488 241.853C343.449 241.853 340.204 240.747 338.585 239.813L339.526 236.881C339.526 236.881 342.929 238.451 346.274 238.451C349.94 238.451 352.302 236.831 352.302 233.643Z" fill="#4D4E55"/>
<path d="M369.207 218.513H365.647V215.367H369.257V207.885H373.187V215.367H379.571V218.513H373.137V235.154C373.137 237.779 374.443 238.664 376.697 238.664C377.481 238.664 378.109 238.557 379.257 238.343L379.835 241.168C378.523 241.588 377.424 241.852 375.955 241.852C372.766 241.852 369.207 240.547 369.207 235.889V218.513Z" fill="#4D4E55"/>
<path d="M395.114 209.561H391.191V204.903H395.114V209.561ZM391.184 215.367H395.107V241.539H391.184V215.367Z" fill="#4D4E55"/>
<path d="M413.018 241.54H409.088V215.368H411.599L412.226 217.929C413.953 216.574 416.1 214.848 420.187 214.848C424.788 214.848 428.554 217.722 428.554 223.372V241.532H424.631V224.52C424.631 220.49 422.905 218.186 419.345 218.186C416.62 218.186 414.266 219.498 413.011 220.754V241.54H413.018Z" fill="#4D4E55"/>
<path d="M456.772 225.89C456.772 219.506 455.617 218.25 450.438 218.25C447.292 218.25 444.732 218.771 443.219 219.349L442.485 216.317C445.787 215.219 448.719 214.848 451.594 214.848C457.764 214.848 460.802 217.822 460.802 224.056V241.54H458.498L457.136 238.451C453.841 241.176 451.957 241.853 448.926 241.853C443.954 241.853 441.179 238.608 441.179 233.95C441.179 228.921 445.21 225.89 454.625 225.89H456.772ZM454.468 229.192C447.093 229.192 445.103 230.655 445.103 233.643C445.103 236.411 446.722 238.558 449.24 238.558C451.751 238.558 453.741 237.566 456.829 234.685V229.185H454.468V229.192Z" fill="#4D4E55"/>
<path d="M476.188 218.513H472.629V215.367H476.238V207.885H480.169V215.367H486.553V218.513H480.119V235.154C480.119 237.779 481.424 238.664 483.678 238.664C484.463 238.664 485.09 238.557 486.239 238.343L486.817 241.168C485.511 241.588 484.406 241.852 482.936 241.852C479.748 241.852 476.188 240.547 476.188 235.889V218.513Z" fill="#4D4E55"/>
<path d="M502.096 209.561H498.173V204.903H502.096V209.561ZM498.173 215.367H502.096V241.539H498.173V215.367Z" fill="#4D4E55"/>
<path d="M513.509 228.457C513.509 220.133 517.175 214.854 524.501 214.854C531.826 214.854 536.17 220.133 536.17 228.457C536.17 236.782 532.09 241.86 524.765 241.86C517.432 241.853 513.509 236.782 513.509 228.457ZM517.432 228.564C517.432 235.105 519.679 238.451 524.707 238.451C529.786 238.451 532.24 235.476 532.24 228.564C532.24 221.866 529.465 218.257 524.657 218.257C519.008 218.25 517.432 222.016 517.432 228.564Z" fill="#4D4E55"/>
<path d="M552.341 241.54H548.418V215.368H550.929L551.549 217.929C553.275 216.574 555.422 214.848 559.51 214.848C564.11 214.848 567.877 217.722 567.877 223.372V241.532H563.954V224.52C563.954 220.49 562.227 218.186 558.668 218.186C555.943 218.186 553.589 219.498 552.334 220.754V241.54H552.341Z" fill="#4D4E55"/>
<path d="M619.178 218.357C621.011 216.894 623.736 214.797 627.502 214.797C632.06 214.797 635.919 217.422 635.919 223.072V241.546H632.103V224.691C632.103 220.297 629.899 218.2 626.817 218.2C623.836 218.2 620.904 220.24 620.169 220.817C620.319 221.495 620.426 222.28 620.426 223.064V241.539H616.603V224.684C616.603 220.29 614.406 218.192 611.317 218.192C607.907 218.192 606.388 219.448 604.876 220.71V241.539H600.946V215.368H603.464L604.141 218.036C605.974 216.516 607.964 214.79 611.995 214.79C614.998 214.797 617.715 215.953 619.178 218.357Z" fill="#4D4E55"/>
<path d="M664.137 225.89C664.137 219.506 662.989 218.25 657.803 218.25C654.657 218.25 652.097 218.771 650.577 219.349L649.843 216.317C653.145 215.219 656.077 214.848 658.952 214.848C665.129 214.848 668.167 217.822 668.167 224.056V241.54H665.863L664.508 238.451C661.206 241.176 659.322 241.853 656.284 241.853C651.312 241.853 648.537 238.608 648.537 233.95C648.537 228.921 652.567 225.89 661.99 225.89H664.137ZM661.833 229.192C654.458 229.192 652.468 230.655 652.468 233.643C652.468 236.411 654.094 238.558 656.598 238.558C659.108 238.558 661.091 237.566 664.187 234.685V229.185H661.833V229.192Z" fill="#4D4E55"/>
<path d="M686.856 241.54H682.933V215.368H685.444L686.071 217.929C687.805 216.574 689.945 214.848 694.025 214.848C698.633 214.848 702.406 217.722 702.406 223.372V241.532H698.476V224.52C698.476 220.49 696.75 218.186 693.183 218.186C690.473 218.186 688.112 219.498 686.856 220.754V241.54Z" fill="#4D4E55"/>
<path d="M730.617 225.89C730.617 219.506 729.462 218.25 724.283 218.25C721.138 218.25 718.57 218.771 717.065 219.349L716.323 216.317C719.625 215.219 722.557 214.848 725.432 214.848C731.609 214.848 734.648 217.822 734.648 224.056V241.54H732.343L730.988 238.451C727.686 241.176 725.803 241.853 722.764 241.853C717.799 241.853 715.025 238.608 715.025 233.95C715.025 228.921 719.055 225.89 728.47 225.89H730.617ZM728.313 229.192C720.931 229.192 718.941 230.655 718.941 233.643C718.941 236.411 720.56 238.558 723.071 238.558C725.581 238.558 727.571 237.566 730.653 234.685V229.185H728.313V229.192Z" fill="#4D4E55"/>
<path d="M763.9 239.029C761.439 240.812 759.085 241.903 756.261 241.903C749.506 241.903 746.838 236.611 746.838 228.351C746.838 217.722 752.231 214.848 757.202 214.848C760.184 214.848 762.695 216.203 764.578 218.721L765.933 215.318H768.237V242.845C768.237 250.748 763.843 254.101 757.766 254.101C754.791 254.101 752.587 253.259 749.342 252.061L750.069 249.279C753.165 250.27 755.355 250.691 757.766 250.691C760.854 250.691 764.257 248.701 764.257 243.309V238.758L763.9 239.029ZM764.264 225.212C764.264 220.711 760.555 218.25 758.037 218.25C752.437 218.25 750.711 221.546 750.711 228.251C750.711 235.213 752.751 238.508 756.468 238.508C760.134 238.508 762.595 236.468 764.264 235.006V225.212Z" fill="#4D4E55"/>
<path d="M784.465 229.291C784.465 236.617 788.752 238.5 792.839 238.5C795.564 238.5 796.976 237.93 799.958 236.981L800.585 240.02C797.447 241.111 795.407 241.846 792.418 241.846C785.67 241.846 780.542 238.029 780.542 228.443C780.542 219.911 785.199 214.84 791.427 214.84C797.661 214.84 801.27 219.284 801.27 226.089C801.27 227.037 801.213 228.393 801.163 229.277H784.465V229.291ZM797.504 226.31C797.504 221.595 796.149 218.249 791.427 218.249C786.555 218.249 784.886 222.073 784.722 226.31H797.504Z" fill="#4D4E55"/>
<path d="M831.985 218.357C833.818 216.894 836.543 214.797 840.309 214.797C844.867 214.797 848.734 217.422 848.734 223.072V241.546H844.91V224.691C844.91 220.297 842.713 218.2 839.632 218.2C836.643 218.2 833.711 220.24 832.977 220.817C833.134 221.495 833.241 222.28 833.241 223.064V241.539H829.417V224.684C829.417 220.29 827.22 218.192 824.132 218.192C820.722 218.192 819.21 219.448 817.69 220.71V241.539H813.767V215.368H816.278L816.956 218.036C818.789 216.516 820.779 214.79 824.809 214.79C827.805 214.797 830.53 215.953 831.985 218.357Z" fill="#4D4E55"/>
<path d="M864.968 229.291C864.968 236.617 869.262 238.5 873.343 238.5C876.067 238.5 877.487 237.93 880.461 236.981L881.089 240.02C877.951 241.111 875.903 241.846 872.929 241.846C866.174 241.846 861.045 238.029 861.045 228.443C861.045 219.911 865.703 214.84 871.93 214.84C878.165 214.84 881.774 219.284 881.774 226.089C881.774 227.037 881.717 228.393 881.667 229.277H864.968V229.291ZM878.001 226.31C878.001 221.595 876.638 218.249 871.923 218.249C867.058 218.249 865.389 222.073 865.225 226.31H878.001Z" fill="#4D4E55"/>
<path d="M898.258 241.54H894.335V215.368H896.853L897.481 217.929C899.207 216.574 901.354 214.848 905.434 214.848C910.042 214.848 913.808 217.722 913.808 223.372V241.532H909.885V224.52C909.885 220.49 908.152 218.186 904.593 218.186C901.875 218.186 899.514 219.498 898.258 220.754V241.54Z" fill="#4D4E55"/>
<path d="M929.187 218.513H925.635V215.367H929.244V207.885H933.168V215.367H939.552V218.513H933.118V235.154C933.118 237.779 934.423 238.664 936.677 238.664C937.462 238.664 938.089 238.557 939.245 238.343L939.823 241.168C938.51 241.588 937.419 241.852 935.949 241.852C932.761 241.852 929.187 240.547 929.187 235.889V218.513Z" fill="#4D4E55"/>
<path d="M152.89 95.2197V47.5566H168.533V95.2197C168.533 107.417 178.719 117.425 191.458 117.425C204.012 117.425 214.384 107.417 214.384 95.2197V47.5566H230.034V95.2197C230.034 105.413 225.847 114.871 218.564 121.976C211.295 129.059 201.644 132.697 191.451 132.697C181.087 132.697 171.443 129.059 164.16 121.976C156.891 114.871 152.89 105.406 152.89 95.2197Z" fill="#4E86A3"/>
<path d="M309.717 79.9411L309.539 79.5845C305.901 68.835 296.621 61.5664 286.428 61.5664C276.427 61.5664 267.147 68.835 263.331 79.5845L263.138 79.9411H309.717ZM326.095 93.0374H261.876V93.4012C263.688 107.232 274.059 117.597 286.064 117.775C293.525 117.418 301.172 114.315 306.45 109.044L319.547 116.869C316.272 120.514 312.635 123.595 308.455 126.149C302.085 129.972 294.26 131.977 286.428 132.333C275.514 132.333 265.514 127.79 258.231 119.601C251.683 112.511 247.681 103.409 246.946 93.4012C246.768 92.1315 246.768 90.8547 246.768 89.5779C246.768 86.3038 247.132 83.0297 247.866 79.7557C249.5 72.1162 253.138 65.1971 258.231 59.562C265.514 51.5587 275.7 47.0078 286.428 47.0078C297.348 47.0078 307.349 51.5587 314.817 59.562C319.91 65.1971 323.734 72.1162 325.182 79.7557C326.458 87.224 326.28 91.3968 326.095 93.0374Z" fill="#4E86A3"/>
<path d="M398.146 106.318C398.146 111.055 396.869 115.598 394.137 119.422C391.59 123.238 387.953 126.148 383.038 128.516C378.665 130.521 373.387 131.605 368.116 131.605C365.205 131.605 362.48 131.241 359.563 130.699C350.468 128.88 341.909 124.878 334.64 118.694L344.462 107.959C354.106 116.14 362.295 117.781 367.395 117.781C370.847 117.781 374.129 117.046 377.039 115.784C379.4 114.692 383.587 111.96 383.587 106.325C383.587 100.683 378.672 97.2236 367.395 95.2263C366.846 95.048 353.015 92.5015 347.929 89.5841C340.282 85.2186 336.281 78.485 336.281 70.118C336.281 65.5671 337.736 61.1945 340.282 57.3783C342.643 54.0971 345.917 51.5506 350.64 49.3679C355.019 47.3707 359.734 46.2793 365.02 46.2793C367.024 46.2793 369.214 46.4576 371.211 46.6431C379.222 47.9128 387.047 51.3723 393.581 56.6436L384.493 67.2005C376.297 60.8307 369.207 59.9177 365.74 59.9177C362.466 59.9177 359.378 60.4598 356.831 61.7366C353.186 63.5627 350.832 66.8296 350.832 70.1108C350.832 75.5676 355.19 78.4779 366.289 80.839C366.475 80.839 381.39 84.1201 385.577 86.4812C390.485 89.0277 392.311 91.0321 394.308 93.5786C396.869 97.2164 398.146 101.589 398.146 106.318Z" fill="#4E86A3"/>
<path d="M435.43 63.0347H461.088V47.5488H435.43V15.3359H419.78V47.5488H407.419V63.0347H419.787V103.222C419.787 118.694 432.163 130.884 447.442 130.884H461.109V115.969H447.806C441.258 115.969 435.437 109.599 435.437 102.858V63.0347H435.43Z" fill="#4E86A3"/>
<path d="M103.608 227.502H24.9443V241.618H103.608V227.502Z" fill="#4E86A3"/>
<path d="M64.2831 178.184L59.4611 174.161C57.0288 172.135 0 123.88 0 64.276C0 28.8389 28.8389 0 64.276 0C79.5764 0 94.3917 5.47105 105.997 15.386L96.2249 26.8346C87.3442 19.2379 75.9956 15.065 64.2831 15.065C37.1418 15.065 15.065 37.1418 15.065 64.2831C15.0579 107.324 51.0299 145.578 64.2831 158.211C76.1382 146.912 106.154 115.142 112.367 77.7788H67.2433V62.7138H128.352L128.338 70.817C124.408 127.418 71.3591 172.27 69.1122 174.154L64.2831 178.184Z" fill="#4E86A3"/>
<path d="M707.927 115.706C706.472 117.525 705.017 119.337 703.376 120.977C695.187 129.173 684.274 133.532 672.626 133.532C660.984 133.532 649.878 129.173 641.704 120.977C633.508 112.603 628.964 101.69 628.964 90.0557C628.964 78.4074 633.508 67.4867 641.704 59.1267C649.878 50.9309 660.984 46.5654 672.626 46.5654C684.274 46.5654 695.187 50.9309 703.376 59.1267C705.017 60.7531 706.472 62.3937 707.749 64.2126L695.195 73.4927C690.109 66.5808 681.913 61.8587 672.633 61.8587C657.175 61.8587 644.614 74.5912 644.614 90.0628C644.614 105.52 657.168 118.26 672.633 118.26C681.92 118.26 690.109 113.538 695.195 106.433L707.927 115.706Z" fill="#4E86A3"/>
<path d="M788.16 90.0478C788.16 74.5834 775.606 62.2075 760.141 62.2075C744.684 62.2075 732.122 74.5834 732.122 90.0478C732.122 105.512 744.684 118.059 760.141 118.059C775.606 118.059 788.16 105.512 788.16 90.0478ZM803.81 90.0478C803.81 101.696 799.252 112.603 790.885 120.977C782.703 129.173 771.782 133.709 760.141 133.709C748.493 133.709 737.579 129.166 729.212 120.977C721.016 112.603 716.472 101.696 716.472 90.0478C716.472 78.4067 721.016 67.4789 729.212 59.1189C737.572 50.9302 748.493 46.5576 760.141 46.5576C771.782 46.5576 782.703 50.9302 790.885 59.1189C799.259 67.486 803.81 78.4067 803.81 90.0478Z" fill="#4E86A3"/>
<path d="M963.911 86.9593V131.719H948.261V86.9593C948.261 73.3138 937.169 62.0222 923.702 62.0222C910.056 62.0222 898.965 73.3138 898.965 86.9593V131.719H883.315V86.9593C883.315 73.3138 872.394 62.0222 858.748 62.0222C845.281 62.0222 834.175 73.3138 834.175 86.9593V131.719H818.532V48.3766H834.175V56.3942C841.279 50.9303 849.832 46.7432 858.748 46.7432C869.477 46.7432 879.67 51.4795 887.316 59.119C888.771 60.5742 890.041 62.0222 891.14 63.6628C892.395 62.0222 893.679 60.5742 895.134 59.119C902.774 51.4724 912.96 46.7432 923.695 46.7432C934.43 46.7432 944.438 50.7377 952.077 58.3914C959.731 66.0381 963.911 76.0386 963.911 86.9593Z" fill="#4E86A3"/>
<path d="M1195.35 90.0482C1195.35 74.5766 1182.8 61.837 1167.33 61.837C1151.87 61.837 1139.32 74.5695 1139.32 90.0482C1139.32 105.513 1151.87 118.245 1167.33 118.245C1182.8 118.252 1195.35 105.513 1195.35 90.0482ZM1211 48.3769V135.714C1211 147.369 1206.46 158.468 1198.08 166.65C1189.9 174.839 1178.98 179.397 1167.33 179.397C1158.6 179.397 1150.6 177.029 1143.86 173.02C1141.14 171.379 1138.41 169.204 1136.03 167.021L1147.87 156.65C1153.14 160.83 1160.61 163.747 1167.33 164.111C1182.8 164.111 1195.35 151.193 1195.35 135.721V122.076C1187.53 128.624 1177.7 133.538 1167.33 133.538C1155.68 133.538 1144.77 129.18 1136.4 120.991C1128.21 112.617 1123.66 101.704 1123.66 90.0625C1123.66 78.4214 1128.21 67.4935 1136.4 59.1264C1144.77 50.9377 1155.68 46.5723 1167.33 46.5723C1177.7 46.5723 1187.53 51.4869 1195.35 58.0422V48.3769H1211Z" fill="#4E86A3"/>
<path d="M1003.63 48.541H988.035V131.563H1003.63V48.541Z" fill="#4E86A3"/>
<path d="M1111.12 86.9739V131.563H1095.52V86.9739C1095.52 73.3711 1084.64 62.1366 1071.06 62.1366C1057.65 62.1366 1046.58 73.3711 1046.58 86.9739V131.563H1030.99V48.541H1046.58V56.5086C1053.64 51.0732 1062.18 46.9004 1071.06 46.9004C1081.75 46.9004 1091.91 50.8949 1099.52 58.4987C1106.95 66.1168 1111.12 76.0888 1111.12 86.9739Z" fill="#4E86A3"/>
<path d="M984.932 17.6186C984.932 11.9764 989.49 7.43262 995.304 7.43262C1000.94 7.43262 1005.49 11.9835 1005.49 17.6186C1005.49 23.2537 1000.94 27.9758 995.304 27.9758C989.49 27.9758 984.932 23.2609 984.932 17.6186Z" fill="#4E86A3"/>
<path d="M574.846 46.7432C585.588 46.7432 595.767 50.7377 603.414 58.3914C610.875 66.0381 615.055 76.0386 615.055 86.9593V131.719H599.412V86.9593C599.412 73.3067 588.491 62.0293 574.846 62.0293V46.7432Z" fill="#4E86A3"/>
<path d="M531.684 17.783C531.684 12.1407 536.234 7.58984 542.062 7.58984C547.69 7.58984 552.248 12.1407 552.248 17.783C552.248 23.4181 547.69 28.1473 542.062 28.1473C536.234 28.1402 531.684 23.4181 531.684 17.783Z" fill="#4E86A3"/>
<path d="M549.787 48.3906H534.137V131.726H549.787V48.3906Z" fill="#4E86A3"/>
</svg>
