<svg width="1200" height="489" viewBox="0 0 1200 489" fill="none" xmlns="http://www.w3.org/2000/svg">
<g clip-path="url(#clip0_62_298)">
<path d="M498.562 276.699C498.562 268.917 491.833 268.392 486.371 268.392C460.197 268.392 429.13 287.585 400.597 320.768C374.686 351.109 356.028 395.178 356.028 430.941C356.028 466.703 370.273 480.955 396.184 480.955C445.909 480.955 508.131 412.01 508.131 389.713C508.131 385.822 505.291 384.773 499.305 384.773C493.318 384.773 458.887 393.08 439.442 400.599C435.816 401.911 440.753 394.391 445.647 392.293C475.971 379.09 513.549 372.313 513.549 388.402C513.549 421.585 445.647 489 396.184 489C361.709 489 349.823 460.757 349.823 430.941C349.823 397.233 360.704 360.946 394.917 317.139C420.566 284.481 456.571 262.971 484.055 262.971C494.935 262.971 503.237 266.862 503.237 275.169C503.237 283.476 498.3 297.99 494.673 302.144C491.046 305.772 487.42 304.723 489.473 301.357C494.673 292.263 498.562 284.525 498.562 276.743V276.699Z" fill="#1D1D1B"/>
<path d="M529.629 450.133C532.731 404.228 540.247 364.575 548.549 328.55C561.264 272.546 567.731 258.556 571.882 258.556C574.198 258.556 574.723 264.764 573.936 267.125C573.15 270.229 569.785 275.694 566.945 281.902C566.42 283.213 559.429 308.877 554.492 331.917C550.341 351.372 538.936 404.491 534.523 452.188C532.469 476.059 536.577 478.901 533.999 479.163C530.634 479.425 528.056 469.589 529.585 450.133H529.629Z" fill="#1D1D1B"/>
<path d="M566.42 421.628C565.896 427.574 566.945 431.99 570.571 431.99C582.238 431.99 598.536 408.906 598.536 386.347C598.536 382.194 598.012 378.827 597.225 375.986C593.599 377.297 589.71 377.822 586.083 377.822C579.092 377.822 573.63 374.718 574.417 368.728C575.203 364.575 579.616 361.208 585.559 361.208C591.501 361.208 597.488 364.05 600.852 369.777C622.088 358.629 643.848 324.135 665.608 277.486C668.186 272.021 670.546 273.857 668.186 279.322C644.591 329.599 623.879 362.258 602.644 373.406C603.954 376.773 604.697 380.926 604.697 385.604C604.697 416.732 584.51 436.406 570.222 436.406C563.755 436.406 560.39 429.411 561.395 421.104C562.706 408.644 568.124 398.282 577.475 386.609C579.791 383.768 582.937 381.144 585.777 381.669C590.19 382.456 589.142 383.505 586.039 386.872C575.946 396.971 567.382 412.273 566.333 421.628H566.42ZM595.696 372.095C593.118 367.417 589.229 365.362 585.34 365.099C582.5 365.099 579.66 366.149 579.136 368.99C578.611 371.57 581.714 373.668 586.651 373.668C589.491 373.668 592.594 373.144 595.74 372.095H595.696Z" fill="#1D1D1B"/>
<path d="M737.662 384.555C726.519 386.391 678.324 396.228 661.763 404.01C660.977 406.589 659.447 409.693 657.874 412.579C647.781 429.411 632.75 431.772 629.647 427.094C627.594 423.727 634.585 412.317 655.034 403.004C655.296 403.004 655.558 402.742 656.083 402.48C657.918 397.802 658.399 393.648 657.131 391.594C655.821 389.539 651.451 391.069 644.678 397.058C638.474 402.742 632.225 408.207 629.385 407.682C625.496 407.158 627.55 397.845 628.599 393.954C636.901 364.663 646.47 325.009 658.923 286.624C664.123 270.535 667.749 263.015 671.376 266.163C673.692 268.48 673.211 276.262 669.322 283.52C665.171 291.826 663.861 297.247 662.069 302.188C647.038 345.47 642.363 365.712 633.055 393.954C632.531 396.009 630.215 402.261 631.482 402.261C632.531 402.261 637.425 397.845 641.838 393.43C650.665 384.861 657.656 382.806 661.02 385.385C663.598 387.222 664.647 392.381 663.074 399.638C687.937 390.063 727.568 381.232 736.657 381.232C740.283 381.232 741.594 384.074 737.705 384.599L737.662 384.555ZM653.199 408.425C642.581 414.634 633.492 421.629 634.803 423.99C636.114 425.826 647.256 419.836 652.412 410.262L653.199 408.425Z" fill="#1D1D1B"/>
<path d="M847.511 277.486C848.036 275.912 852.187 274.382 850.351 278.798C817.973 358.629 774.977 420.842 752.955 420.842C738.972 420.842 749.59 401.386 747.493 399.332C746.969 398.807 745.177 399.332 737.137 403.747C729.359 407.901 721.057 411.529 718.479 411.529C714.853 411.529 712.275 409.212 712.275 407.376C712.275 402.698 715.639 395.965 725.208 388.446C733.511 382.237 738.667 380.926 743.342 380.926C749.022 380.926 752.649 390.019 750.333 390.238C747.755 390.238 746.706 384.773 744.128 385.035C741.55 385.035 736.351 386.872 728.835 392.031C722.368 396.446 717.169 403.966 717.169 406.021C717.169 406.545 717.431 406.808 717.955 406.808C720.271 406.808 724.684 404.971 732.2 401.343C742.031 396.665 750.595 392.511 751.644 392.511C752.693 392.511 754.746 393.298 754.746 395.091C754.746 398.457 745.658 416.863 752.431 416.863C772.399 416.863 821.6 338.3 847.511 277.399V277.486Z" fill="#1D1D1B"/>
<path d="M813.298 450.133C816.4 404.228 823.916 364.575 832.218 328.55C844.933 272.546 851.4 258.556 855.551 258.556C857.867 258.556 858.391 264.764 857.605 267.125C856.818 270.229 853.454 275.694 850.614 281.902C850.089 283.213 843.098 308.877 838.161 331.917C834.009 351.372 822.605 404.491 818.192 452.188C816.138 476.059 820.245 478.901 817.667 479.163C814.303 479.425 811.725 469.589 813.254 450.133H813.298Z" fill="#1D1D1B"/>
<path d="M118.938 81.2304C106.223 68.0272 91.1918 61.2944 73.3205 61.2944C53.614 61.2944 38.5828 68.5518 27.9649 83.3289V64.6608H0V267.256L27.9649 241.024V175.839C34.7813 185.151 43.433 191.49 53.9635 194.813C59.8187 196.693 66.2419 197.611 73.3205 197.611C91.1918 197.611 106.223 191.141 118.938 177.937C131.61 164.691 137.815 148.646 137.815 129.453C137.815 110.26 131.61 94.4774 118.938 81.2304ZM98.183 159.269C90.4053 167.051 80.5739 170.942 68.9073 170.942C57.2407 170.942 47.4092 167.051 39.6315 159.269C31.8538 151.225 27.9649 141.388 27.9649 129.453C27.9649 117.517 31.8538 107.681 39.6315 99.8985C47.4092 91.8542 57.2407 87.9632 68.9073 87.9632C80.5739 87.9632 90.4053 91.8542 98.183 99.8985C105.961 107.681 109.85 117.517 109.85 129.453C109.85 141.388 105.961 151.225 98.183 159.269Z" fill="#00ABA0"/>
<path d="M289.393 129.715C289.393 110.785 283.145 94.4774 270.997 81.2304C258.806 68.0272 243.251 61.2944 224.375 61.2944C204.406 61.2944 187.802 67.7649 175.13 80.9681C162.415 93.9527 155.948 109.998 155.948 129.453C155.948 148.908 162.415 165.477 175.392 178.462C188.326 191.141 205.455 197.611 226.428 197.611C251.553 197.611 270.473 188.299 283.145 169.368L260.117 155.903C252.602 166.527 241.459 171.948 226.69 171.948C205.192 171.948 189.375 161.062 185.224 141.388H288.344C289.131 136.448 289.393 132.557 289.393 129.715ZM184.962 118.567C188.85 98.8493 203.357 86.6953 224.069 86.6953C242.508 86.6953 257.233 97.5814 261.122 118.567H184.962Z" fill="#00ABA0"/>
<path d="M415.803 83.0665C405.185 68.5517 390.154 61.2943 370.447 61.2943C352.576 61.2943 337.545 67.7648 324.873 80.968C312.158 94.2149 305.953 110.26 305.953 129.453C305.953 148.645 312.158 164.69 324.873 177.937C337.545 191.141 352.576 197.611 370.447 197.611C390.154 197.611 405.185 190.354 415.803 175.576V194.245H443.768V56.835L415.803 83.0665ZM404.136 159.269C396.359 167.051 386.527 170.942 374.861 170.942C363.194 170.942 353.363 167.051 345.585 159.269C337.807 151.225 333.918 141.388 333.918 129.453C333.918 117.517 337.807 107.68 345.585 99.8984C353.363 91.8541 363.194 87.9631 374.861 87.9631C386.527 87.9631 396.359 91.8541 404.136 99.8984C411.914 107.68 415.803 117.517 415.803 129.453C415.803 141.388 411.914 151.225 404.136 159.269Z" fill="#00ABA0"/>
<path d="M531.857 128.141L588.88 64.6608H554.666L504.417 121.933V0L476.408 26.2316V194.245H504.417V134.393L557.506 194.245H590.933L531.857 128.141Z" fill="#00ABA0"/>
<path d="M728.223 81.2306C715.29 68.0274 699.472 61.5132 681.076 61.5132C658.049 61.5132 640.658 71.1314 628.73 90.0619V64.661H611.645V246.096H628.73V168.844C640.658 187.774 658.049 197.393 681.076 197.393C699.472 197.393 715.29 190.878 728.223 177.675C741.463 164.428 747.93 148.383 747.93 129.453C747.93 110.522 741.463 94.4775 728.223 81.2306ZM716.076 166.002C706.201 175.839 694.054 180.779 679.809 180.779C665.565 180.779 653.374 175.839 643.499 166.002C633.667 155.903 628.73 143.705 628.73 129.453C628.73 115.2 633.667 103.003 643.499 93.1659C653.374 83.0668 665.521 78.1265 679.809 78.1265C694.098 78.1265 706.201 83.0668 716.076 93.1659C725.908 103.003 730.845 115.2 730.845 129.453C730.845 143.705 725.908 155.903 716.076 166.002Z" fill="#00ABA0"/>
<path d="M884.958 81.2306C871.762 68.0274 855.682 61.5132 836.806 61.5132C817.929 61.5132 801.544 68.0274 788.348 81.2306C775.108 94.2152 768.641 110.26 768.641 129.453C768.641 148.646 775.108 164.691 788.348 177.938C794.946 184.408 802.33 189.261 810.414 192.54L795.601 160.275C789.047 151.4 785.726 141.126 785.726 129.453C785.726 115.2 790.664 103.003 800.495 93.1659C810.37 83.0668 822.517 78.1265 836.806 78.1265C851.094 78.1265 863.198 83.0668 873.073 93.1659C882.904 103.003 887.842 115.2 887.842 129.453C887.842 141.126 884.521 151.444 877.923 160.319L863.154 192.496C871.106 189.217 878.404 184.364 884.958 177.938C898.197 164.691 904.927 148.646 904.927 129.453C904.927 110.26 898.197 94.2152 884.958 81.2306Z" fill="#00ABA0"/>
<path d="M950.763 15.9137C945.825 10.9734 938.047 10.9734 933.154 15.9137C928.216 20.8103 928.216 28.5923 933.154 33.5326C938.047 38.4728 945.825 38.4728 950.763 33.5326C955.7 28.5923 955.7 20.8103 950.763 15.9137ZM933.416 64.6607V194.245H950.501V64.6607H933.416Z" fill="#00ABA0"/>
<path d="M1047.42 61.5132C1027.97 61.5132 1013.47 69.2952 1003.9 84.8593V64.661H986.768V194.245H1003.9V126.349C1003.9 93.4282 1020.98 78.1265 1045.84 78.1265C1068.39 78.1265 1081.11 91.592 1081.11 114.676V194.245H1098.19V114.676C1098.19 82.2798 1078.75 61.5132 1047.42 61.5132Z" fill="#00ABA0"/>
<path d="M1200 81.2306V64.661H1162.68V28.374L1145.6 33.5329V64.661H1118.38V81.2306H1145.6V159.794C1145.6 189.873 1163.73 199.71 1200 194.245V179.205C1175.14 180.255 1162.68 182.091 1162.68 159.794V81.2306H1200Z" fill="#00ABA0"/>
<path d="M811.463 167.926L836.762 223.056L862.105 167.926H811.463Z" fill="#00ABA0"/>
</g>
<defs>
<clipPath id="clip0_62_298">
<rect width="1200" height="489" fill="white"/>
</clipPath>
</defs>
</svg>
