<svg xmlns="http://www.w3.org/2000/svg" xmlns:xlink="http://www.w3.org/1999/xlink" width="138" height="35" viewBox="0 0 138 35">
    <defs>
        <path id="prefix__a" d="M29.22 2.137v2.801h2.108V8.21H29.22v2.25c0 1.211 1.747.7 2.285.513.067.12.155.284.155.284v2.822s-1.45.44-2.44.44c-2.66 0-3.703-1.717-3.703-3.32V2.138h3.703zm8.203 2.531c4.2 0 5.636 2.224 5.32 6.053h-5.885c.836 1.596 3.376.682 3.926.437.38.79.563 1.27 1.068 2.32-.669.428-1.729 1.041-3.807 1.041-2.51 0-5.338-1.423-5.338-4.932 0-2.91 2.065-4.919 4.716-4.919zM17.44 4.642c1.084 0 2.066.507 2.8 1.327 0-.57.462-1.031 1.032-1.031h2.74v9.306h-2.7c-.592 0-1.072-.506-1.072-1.1-.734.82-1.716 1.327-2.8 1.327-2.265 0-4.104-2.2-4.104-4.915 0-2.714 1.839-4.914 4.104-4.914zm47.184 0c1.083 0 2.066.507 2.8 1.328 0-.57.461-1.032 1.032-1.032h2.74v9.307h-2.7c-.592 0-1.073-.508-1.073-1.1-.733.82-1.716 1.326-2.799 1.326-2.265 0-4.104-2.2-4.104-4.914 0-2.714 1.839-4.915 4.104-4.915zm11.491.296l1.126 4.635 1.29-4.388h2.494l1.291 4.388 1.126-4.635h3.902v.232l-3.051 9.075h-3.105l-1.41-3.786-1.408 3.786h-3.107L72.208 5.17v-.233h3.906zM92.144.97V8.17l2.378-3.232h4.405v.288l-7.843 9.018h-2.71V.971h3.77zm-41.107 0v4.564h3.984V.972h4.118v13.273h-4.118V9.342h-3.984v4.903H46.92V.972h4.118zm-43.236.064a4.653 4.653 0 012.319 8.66v-.001l2.977 4.326-.113.224H8.81L6.25 10.352H4.388v3.892H.249V1.034zM18.759 7.92a1.638 1.638 0 100 3.276 1.638 1.638 0 000-3.276zm47.173-.01a1.637 1.637 0 10-.003 3.274 1.637 1.637 0 00.003-3.274zm-27.864-.736c-.837 0-1.514.678-1.514 1.514h3.027c0-.836-.677-1.514-1.513-1.514zM7.018 4.57h-2.63v2.45h2.63a1.224 1.224 0 000-2.45z"/>
        <path id="prefix__b" d="M12.873.697L34.32 13.023c.56.322.922.898.974 1.535l.007.16v11.926c0 .644-.317 1.243-.84 1.606l-.136.086-10.32 5.973a1.955 1.955 0 01-1.798.082l-.154-.08-16.02-9.199c2.865-.51 5.644-.878 6.163-.978 1.08-.209 1.152-1.234 1.156-1.331v-.007L.77 20.416c-.38-.071-.583-.314-.721-.584l-.05-.102 24.452 3.76c.172.026.338.078.495.152l.153.082 4.267 2.668-.303.933 1.269-.436a1.81 1.81 0 001.19-2.054l-.035-.146-1.063-4.696a1.805 1.805 0 00-.485-.813l-.12-.106L7.606 1.477s.403-.3.736-.058c.333.241 7.385 5.238 7.385 5.238s.617-1.163-.06-2.101c-.862-1.195-1.836-2.538-2.795-3.86zm122.832 23.156a1.907 1.907 0 110 3.813 1.907 1.907 0 010-3.813zM25.636 18.528l3.946 3.113a.999.999 0 01-1.948.089.982.982 0 01.037-.626 197.734 197.734 0 01-1.99-2.19c-.12-.147-.045-.386-.045-.386z"/>
    </defs>
    <g fill="none" fill-rule="evenodd" transform="translate(0 -.5)">
        <g transform="translate(39 13)">
            <use fill="#191919" xlink:href="#prefix__a"/>
        </g>
        <use fill="#FAB420" xlink:href="#prefix__b"/>
    </g>
</svg>
