<?xml version="1.0" encoding="UTF-8"?>
<svg width="145px" height="31px" viewBox="0 0 145 31" version="1.1" xmlns="http://www.w3.org/2000/svg" xmlns:xlink="http://www.w3.org/1999/xlink">
    <!-- Generator: Sketch 41.2 (35397) - http://www.bohemiancoding.com/sketch -->
    <title>Group Copy 2</title>
    <desc>Created with Sketch.</desc>
    <defs></defs>
    <g id="Page-1" stroke="none" stroke-width="1" fill="none" fill-rule="evenodd">
        <g id="Group-Copy-2">
            <g id="Group-13">
                <path d="M43.0121643,11.1651441 C42.7747625,10.3575979 42.4421239,9.6703837 42.0239102,9.12297724 C41.5905139,8.55470395 40.9901081,8.0803314 40.2420163,7.71237966 C39.4966851,7.34651461 38.6112591,7.16010428 37.611273,7.16010428 C36.3262666,7.16010428 35.1068219,7.48214899 33.9853743,8.11719613 C33.2800701,8.5164481 32.6700027,9.04437885 32.1600028,9.69681501 C31.825984,9.12506392 31.4029395,8.63817127 30.8936298,8.23961485 C29.980599,7.52318709 28.8067022,7.16010428 27.4050653,7.16010428 C26.2297883,7.16010428 25.109721,7.42719968 24.0752288,7.95443487 C23.6404522,8.17631881 23.2346608,8.45384762 22.8626852,8.7835435 L22.8488828,8.27161065 C22.838531,7.84384068 22.49209,7.50232026 22.0669751,7.50232026 L19.8516849,7.50232026 C19.4182886,7.50232026 19.0683969,7.85566521 19.0683969,8.29108636 L19.0683969,15.8358358 C18.995244,15.6466433 18.921401,15.4602329 18.8378963,15.2912116 C18.6101562,14.832837 18.2837287,14.3932425 17.8655151,13.9849482 C17.4818075,13.6107364 17.0960295,13.2845183 16.7199133,13.0174229 C16.3403464,12.7475453 15.8614021,12.4693209 15.2616864,12.1667519 C14.6847448,11.876703 14.1499006,11.6290833 13.669576,11.4329351 C13.2023637,11.2409603 12.6054086,11.0030785 11.8704291,10.7158118 C11.5170869,10.5815685 11.0146784,10.4090694 10.3632036,10.1976189 C9.72829181,9.99242841 9.19896858,9.81853818 8.77454382,9.67733931 C8.3832449,9.54796497 7.93190541,9.35807684 7.43156728,9.11393495 C6.96021426,8.88370428 6.58547825,8.65069136 6.31840121,8.42324294 C6.07685867,8.21666134 5.86430123,7.94191477 5.68486963,7.60804552 C5.51924045,7.29782534 5.43849623,6.96117385 5.43849623,6.5793109 C5.43849623,5.55335851 5.8249643,4.84736416 6.65311017,4.35838483 C7.59374585,3.80263164 8.8539078,3.52092946 10.3983998,3.52092946 C11.5647053,3.52092946 12.6412949,3.78802486 13.5984935,4.3124778 C14.5556921,4.83832187 15.2968826,5.58465876 15.8641626,6.59391768 C15.974582,6.79006586 16.1636753,6.92917805 16.383134,6.97647619 C16.4369634,6.98760517 16.4907929,6.99316965 16.5446224,6.99316965 C16.7109417,6.99316965 16.8751906,6.93961146 17.0097643,6.83805956 L18.7571521,5.53388281 C19.0911709,5.28556755 19.1732954,4.81815061 18.9469355,4.46828345 C17.933147,2.90814027 16.6874776,1.76185585 15.2430532,1.06003487 C13.8207126,0.370038418 12.0767755,0.0201712672 10.05886,0.0201712672 C8.97398895,0.0201712672 7.92500419,0.14885004 6.94365134,0.403425343 C5.94918618,0.66147845 5.03132451,1.05307926 4.21698108,1.56640323 C3.36054023,2.10754964 2.67041868,2.83441082 2.1652497,3.72751106 C1.65663011,4.62687135 1.39921477,5.65212817 1.39921477,6.77545908 C1.39921477,7.08915706 1.41784805,7.39589944 1.45718498,7.7082063 C1.73254348,9.53127151 2.8602021,11.0072518 4.80910537,12.093718 C5.61102662,12.5444415 6.96435499,13.1008902 8.98572102,13.8096668 C9.04645172,13.8270559 9.13271691,13.8583561 9.26867086,13.9105232 C10.1396043,14.2144833 10.7331088,14.422456 11.0491845,14.536528 C11.3624997,14.6485133 11.8352329,14.8321414 12.4687645,15.0881078 C13.2423908,15.3997191 13.5253406,15.5624804 13.6254082,15.6320365 C13.8490076,15.7878421 14.1512809,16.0041616 14.5336082,16.2830815 C14.9166257,16.5613059 15.0325661,16.7470207 15.066382,16.8137945 C15.1781817,17.0447207 15.2886012,17.3305963 15.3962601,17.6630744 C15.4880463,17.9524278 15.5349746,18.2828192 15.5349746,18.6431198 C15.5349746,19.2239132 15.4355971,19.7441927 15.2402927,20.1886562 C15.0463685,20.6268596 14.7924038,20.9822912 14.4852997,21.2459088 C14.1499006,21.5331755 13.7427289,21.7787085 13.2762067,21.9741611 C12.789671,22.1779605 12.2907131,22.3226371 11.7924454,22.4047133 C11.2762345,22.4895718 10.7248273,22.5333921 10.1561672,22.5333921 C8.32527469,22.5333921 6.85324542,22.1431824 5.78079652,21.3752831 C4.72491054,20.6178173 3.96922744,19.4207569 3.5358311,17.8160978 C3.47648065,17.595605 3.32396379,17.4126725 3.12037793,17.3132073 C3.01271897,17.2610402 2.89677855,17.2353044 2.78083812,17.2353044 C2.67593965,17.2353044 2.57035105,17.2561713 2.47097355,17.299296 L0.481353104,18.1638783 C0.147334272,18.3092505 -0.0445195203,18.6674644 0.0217321489,19.0291561 C0.210135333,20.0787575 0.570378785,21.0379361 1.08935019,21.8795648 C1.60556112,22.7170202 2.21493845,23.4125811 2.90091927,23.9460764 C3.56964706,24.4656604 4.32878077,24.9017771 5.16313773,25.2426019 C5.98162189,25.5778623 6.80355667,25.8185264 7.60409767,25.9576386 C8.39428685,26.0946641 9.20448955,26.1649157 10.0105515,26.1649157 C12.8448808,26.1649157 15.1554077,25.505524 16.8765709,24.2055206 C17.9007113,23.4320568 18.626029,22.4735738 19.0683969,21.3523296 L19.0683969,24.9685509 C19.0683969,25.4039721 19.4182886,25.757317 19.8516849,25.757317 L22.1484094,25.757317 C22.5797354,25.757317 22.929627,25.4039721 22.929627,24.9685509 L22.929627,15.4644063 C22.929627,14.6102575 23.0993969,13.7867133 23.4313454,13.0153362 C23.7591531,12.2564793 24.2305062,11.6429945 24.8764599,11.140104 C25.484457,10.6636447 26.1524947,10.4327185 26.9199099,10.4327185 C27.7984346,10.4327185 28.3698552,10.7443298 28.7176765,11.4113727 C29.140721,12.2279613 29.3553488,13.4597997 29.3553488,15.0728055 L29.3553488,24.9685509 C29.3553488,25.4039721 29.7059306,25.757317 30.1386368,25.757317 L32.4353613,25.757317 C32.8666873,25.757317 33.217269,25.4039721 33.217269,24.9685509 L33.217269,15.3336408 C33.217269,14.5163567 33.3897994,13.7185483 33.7307195,12.9610825 C34.0661186,12.2126589 34.5436827,11.6109987 35.1861858,11.1220194 C35.7969434,10.6587758 36.4573897,10.4327185 37.2068618,10.4327185 C37.6747642,10.4327185 38.0667532,10.5266192 38.3724771,10.712334 C38.6747503,10.8938754 38.9066311,11.1595797 39.0833023,11.523358 C39.291719,11.9518236 39.4428556,12.4484541 39.5318813,13.0000339 C39.6278082,13.5850006 39.6747364,14.2826483 39.6747364,15.0728055 L39.6747364,24.9685509 C39.6747364,25.4039721 40.0253182,25.757317 40.4580244,25.757317 L42.7547489,25.757317 C43.1860749,25.757317 43.5366566,25.4039721 43.5366566,24.9685509 L43.5366566,15.5784783 C43.5366566,14.7528475 43.5056012,14.0016416 43.4448705,13.3443366 C43.3813793,12.6606002 43.2343834,11.9281745 43.0121643,11.1651441" id="Fill-5" fill="#6CAAE4"></path>
                <path d="M59.8648636,7.84759671 C59.719248,7.63127726 59.4770153,7.50259848 59.2182197,7.50259848 L56.9532408,7.50259848 C56.630954,7.50259848 56.3424832,7.70083335 56.2244724,8.0027068 C54.285921,12.9773586 52.8069905,16.7862503 51.8139056,19.3702592 C51.452972,18.4514232 51.0306176,17.3684348 50.5496029,16.1226852 L48.3336226,10.402392 L47.4116202,8.0061846 C47.2956797,7.70222447 47.0058287,7.50259848 46.6821617,7.50259848 L44.3212558,7.50259848 C44.0596998,7.50259848 43.816777,7.63336394 43.6711613,7.85177007 C43.5255457,8.06948065 43.4972507,8.3463139 43.5959381,8.58906467 L49.8256654,23.9491368 L49.5482365,24.7629431 C48.739414,27.1626283 47.4047189,27.4401572 46.4723647,27.4401572 C46.0610523,27.4401572 45.6214449,27.4046836 45.1659646,27.3351275 C45.1273178,27.3288674 45.0879809,27.3260852 45.048644,27.3260852 C44.8802543,27.3260852 44.7146251,27.3810345 44.5786712,27.4832819 C44.4109716,27.6112651 44.3005522,27.8004577 44.2722572,28.0105171 L44.0300245,29.853058 C43.9782654,30.2453544 44.2239487,30.6153928 44.6028254,30.7183359 C45.2266953,30.8880527 45.8671281,30.9736067 46.5048004,30.9736067 C47.3122427,30.9736067 48.0589542,30.8546658 48.7214709,30.6188706 C49.3826073,30.3844666 49.9616193,30.0707686 50.4433242,29.6861234 C50.9229586,29.3035649 51.3922413,28.7596363 51.8352993,28.0710309 C52.2521327,27.4248548 52.6144466,26.770332 52.9139593,26.1262426 C53.2051906,25.5009333 53.5523218,24.675998 53.9450009,23.6764769 C54.4087626,22.4926322 55.3369761,20.1576342 56.7324019,16.6714827 C58.129898,13.181158 59.2002766,10.4837727 59.9456078,8.58071793 C60.0401545,8.33727161 60.0104793,8.0632206 59.8648636,7.84759671" id="Fill-7" fill="#6CAAE4"></path>
                <path d="M68.8576996,7.4862528 C68.1268608,7.4862528 67.418106,7.5878047 66.7500683,7.78812625 C66.0489048,7.99818565 65.3615438,8.39117758 64.7086888,8.95597306 C64.7024777,8.96153755 64.6969567,8.96640647 64.6907456,8.97197096 L64.6907456,8.2910168 C64.6907456,7.85559566 64.3401639,7.5022507 63.9081478,7.5022507 L61.6762947,7.5022507 C61.2442786,7.5022507 60.8936968,7.85559566 60.8936968,8.2910168 L60.8936968,24.9684814 C60.8936968,25.4039025 61.2442786,25.7572475 61.6762947,25.7572475 L63.9730192,25.7572475 C64.4050353,25.7572475 64.755617,25.4039025 64.755617,24.9684814 L64.755617,16.2955321 C64.755617,15.570062 64.8322205,14.8939768 64.982667,14.2860565 C65.1289728,13.6969164 65.362924,13.1432499 65.6776194,12.6417505 C65.9633298,12.1854625 66.3580793,11.8362909 66.884642,11.5733689 C67.4250072,11.3034912 68.0889042,11.1664657 68.8576996,11.1664657 C69.2897157,11.1664657 69.6402974,10.8131208 69.6402974,10.3776996 L69.6402974,8.2750189 C69.6402974,7.83959776 69.2897157,7.4862528 68.8576996,7.4862528" id="Fill-9" fill="#31343F"></path>
                <path d="M77.7702744,7.16024339 C75.400397,7.16024339 73.4632258,7.99491651 72.0091396,9.64130925 C70.5798979,11.2619662 69.85389,13.6213089 69.85389,16.6539546 C69.85389,19.6274776 70.563335,21.9694313 71.9594509,23.6144329 C73.3859321,25.2956037 75.3362157,26.1483614 77.7544016,26.1483614 C80.1718974,26.1483614 82.1235612,25.2900392 83.5500424,23.5956528 C84.9447781,21.9409133 85.6535329,19.5885262 85.6535329,16.6052653 C85.6535329,13.5934865 84.927525,11.2473595 83.4975932,9.63226696 C82.0428169,7.99213427 80.1159975,7.16024339 77.7702744,7.16024339 M74.3155259,20.2882605 C74.1091795,19.7192917 73.9649441,19.135716 73.8869604,18.5535315 C73.8062162,17.9504802 73.7641188,17.2945662 73.7641188,16.6052653 C73.7641188,15.7476387 73.8365815,14.9491348 73.9766762,14.2313159 C74.1126301,13.530886 74.3382999,12.8561919 74.6474744,12.2260137 C74.9214526,11.6626093 75.309991,11.2334482 75.8303427,10.9134902 C76.3500042,10.5942277 76.9980284,10.4328576 77.7544016,10.4328576 C78.3561876,10.4328576 78.8931022,10.5441473 79.3499626,10.7639446 C79.806133,10.9830463 80.1760381,11.2689218 80.4513966,11.6132245 C80.7460785,11.984654 80.9972828,12.4451154 81.1932773,12.9820884 C81.3996236,13.5468839 81.5466195,14.1290684 81.6301242,14.712644 C81.7156993,15.3136087 81.7584868,15.9611759 81.7584868,16.6379567 C81.7584868,17.3272576 81.7184598,17.9831716 81.6370255,18.5862229 C81.5576615,19.1677118 81.4141162,19.7478097 81.20846,20.3105185 C81.0124654,20.8467959 80.7633316,21.3072573 80.4665793,21.6793824 C80.1932912,22.023685 79.823386,22.3095606 79.3665255,22.5279667 C78.9082848,22.747764 78.3713703,22.8590537 77.7702744,22.8590537 C77.1567563,22.8590537 76.6143208,22.747764 76.1567702,22.5279667 C75.695769,22.3067783 75.3375959,22.0278584 75.0587868,21.6745134 C74.7634148,21.2975194 74.5115204,20.830798 74.3155259,20.2882605" id="Fill-11" fill="#31343F"></path>
                <path d="M94.9801807,7.16024339 C92.6103032,7.16024339 90.673132,7.99491651 89.2190459,9.64130925 C87.7891141,11.2619662 87.0637963,13.6213089 87.0637963,16.6539546 C87.0637963,19.6274776 87.7732413,21.9694313 89.168667,23.6144329 C90.5958384,25.2956037 92.5461219,26.1483614 94.9643079,26.1483614 C97.3818037,26.1483614 99.3334674,25.2900392 100.759949,23.5956528 C102.154684,21.9409133 102.863439,19.5885262 102.863439,16.6052653 C102.863439,13.5934865 102.137431,11.2473595 100.707499,9.63226696 C99.2527232,7.99213427 97.3259038,7.16024339 94.9801807,7.16024339 M91.5254321,20.2882605 C91.3190858,19.7192917 91.1748504,19.135716 91.0968667,18.5535315 C91.0161224,17.9504802 90.974025,17.2945662 90.974025,16.6052653 C90.974025,15.7476387 91.0464878,14.9491348 91.1865825,14.2313159 C91.3225364,13.530886 91.5482062,12.8561919 91.8573806,12.2260137 C92.1313589,11.6626093 92.5198973,11.2334482 93.040249,10.9134902 C93.5599105,10.5942277 94.2079346,10.4328576 94.9643079,10.4328576 C95.5660939,10.4328576 96.1030084,10.5441473 96.5598689,10.7639446 C97.0160392,10.9830463 97.3859444,11.2689218 97.6613029,11.6132245 C97.9559848,11.984654 98.207189,12.4451154 98.4031836,12.9820884 C98.6095299,13.5468839 98.7565258,14.1290684 98.8400305,14.712644 C98.9256056,15.3136087 98.9683931,15.9611759 98.9683931,16.6379567 C98.9683931,17.3272576 98.9283661,17.9831716 98.8469317,18.5862229 C98.7675677,19.1677118 98.6240225,19.7478097 98.4183662,20.3105185 C98.2223717,20.8467959 97.9732378,21.3072573 97.6764856,21.6793824 C97.4031974,22.023685 97.0332923,22.3095606 96.5764318,22.5279667 C96.1181911,22.747764 95.5812765,22.8590537 94.9801807,22.8590537 C94.3666626,22.8590537 93.824227,22.747764 93.3666765,22.5279667 C92.9056753,22.3067783 92.5475022,22.0278584 92.2686931,21.6745134 C91.973321,21.2975194 91.7214267,20.830798 91.5254321,20.2882605" id="Fill-13" fill="#31343F"></path>
                <path d="M128.766531,11.1651441 C128.529819,10.3575979 128.198561,9.6703837 127.778967,9.12228168 C127.34488,8.55470395 126.745855,8.0803314 125.997763,7.71307522 C125.251051,7.34581905 124.366316,7.16010428 123.36702,7.16010428 C122.081323,7.16010428 120.862568,7.48214899 119.741121,8.11719613 C119.034436,8.51575254 118.425749,9.04507441 117.915749,9.69681501 C117.581731,9.12506392 117.158686,8.63817127 116.648686,8.23961485 C115.735655,7.52318709 114.562449,7.16010428 113.160812,7.16010428 C111.985535,7.16010428 110.864777,7.42719968 109.831666,7.95443487 C109.396199,8.17631881 108.991097,8.45315206 108.617742,8.78423906 L108.604629,8.27161065 C108.594968,7.84384068 108.247837,7.50232026 107.822032,7.50232026 L105.606051,7.50232026 C105.174035,7.50232026 104.824834,7.85566521 104.824834,8.29108636 L104.824834,24.9685509 C104.824834,25.4039721 105.174035,25.757317 105.606051,25.757317 L107.904156,25.757317 C108.336172,25.757317 108.685374,25.4039721 108.685374,24.9685509 L108.685374,15.4644063 C108.685374,14.6102575 108.853763,13.7867133 109.187782,13.0153362 C109.5149,12.2571748 109.986253,11.6429945 110.631516,11.1394084 C111.240204,10.6643403 111.907551,10.4327185 112.675656,10.4327185 C113.554181,10.4327185 114.125602,10.7443298 114.472043,11.4120683 C114.895777,12.2279613 115.111786,13.4597997 115.111786,15.0728055 L115.111786,24.9685509 C115.111786,25.4039721 115.462367,25.757317 115.894383,25.757317 L118.191108,25.757317 C118.623124,25.757317 118.973706,25.4039721 118.973706,24.9685509 L118.973706,15.3336408 C118.973706,14.5163567 119.146236,13.7178528 119.486466,12.9610825 C119.821865,12.2119634 120.298049,11.6109987 120.941932,11.1220194 C121.55269,10.6580802 122.213826,10.4327185 122.962608,10.4327185 C123.430511,10.4327185 123.82319,10.5266192 124.128224,10.7116384 C124.430497,10.8938754 124.663068,11.1595797 124.839739,11.523358 C125.046085,11.951128 125.197222,12.4484541 125.286938,12.9993383 C125.382865,13.5850006 125.430483,14.2826483 125.430483,15.0728055 L125.430483,24.9685509 C125.430483,25.4039721 125.781755,25.757317 126.213771,25.757317 L128.510496,25.757317 C128.942512,25.757317 129.293093,25.4039721 129.293093,24.9685509 L129.293093,15.5784783 C129.293093,14.753543 129.262038,14.0016416 129.200617,13.3443366 C129.135746,12.6612957 128.99013,11.9281745 128.766531,11.1651441" id="Fill-15" fill="#31343F"></path>
                <path d="M143.277924,16.5105299 C142.225488,15.6918547 140.732065,15.1117569 138.718981,14.7389362 C138.170334,14.6318199 137.713473,14.536528 137.347709,14.450974 C137.015761,14.3730712 136.662418,14.2617814 136.301485,14.1184959 C135.979198,13.9912082 135.730064,13.856965 135.562365,13.7192439 C135.416059,13.5996074 135.298048,13.4472796 135.202811,13.2532181 C135.111025,13.0688944 135.067547,12.8539661 135.067547,12.5952174 C135.067547,11.8954831 135.290457,11.4113727 135.769401,11.071939 C136.322879,10.6803382 137.194502,10.4821033 138.360117,10.4821033 C139.296612,10.4821033 140.043324,10.6365178 140.579548,10.9418691 C141.089548,11.2333091 141.483608,11.711855 141.78381,12.4046337 C141.910793,12.6967693 142.195123,12.8783107 142.500847,12.8783107 C142.553296,12.8783107 142.607125,12.8727462 142.660265,12.8616173 C142.774135,12.8379682 142.875583,12.7906701 142.963918,12.7259829 C143.039832,12.6786847 143.334514,12.5034034 144.455961,11.8627918 C144.816205,11.6569057 144.955609,11.2040956 144.772037,10.8291882 C144.128153,9.50692688 143.2586,8.54983503 142.184081,7.98364843 C141.148208,7.43763309 139.817654,7.16010428 138.231755,7.16010428 C136.251106,7.16010428 134.610687,7.61500113 133.354666,8.51157918 C132.01514,9.46797546 131.33399,10.8312749 131.33399,12.5625261 C131.33399,13.2935606 131.440959,13.9550391 131.648685,14.5288768 C131.859862,15.1103658 132.139362,15.5986496 132.480282,15.9819036 C132.817751,16.3616799 133.262189,16.6969403 133.803245,16.979338 C134.298752,17.2380867 134.786668,17.4446683 135.25319,17.5935183 C135.701769,17.7368039 136.258697,17.8780027 136.908102,18.0136371 C139.366315,18.5269611 140.342146,18.9401243 140.729305,19.1960907 C140.880441,19.2969471 141.346273,19.6057761 141.346273,20.7458005 C141.346273,21.3147693 141.346273,22.8269188 137.875652,22.8269188 C136.759725,22.8269188 135.912256,22.6321617 135.358089,22.2475165 C134.808752,21.8663492 134.361553,21.2146086 134.033055,20.3110749 C133.958522,20.1100578 133.807385,19.9479921 133.613461,19.8617425 C133.514084,19.8165311 133.405045,19.7942731 133.297386,19.7942731 C133.198008,19.7942731 133.09656,19.8137488 133.002014,19.8527002 L131.255316,20.5698236 C130.888171,20.7214559 130.690797,21.1269679 130.797075,21.5123086 C131.028956,22.349764 131.397481,23.0926231 131.891608,23.7221057 C132.389876,24.3550662 132.976479,24.8530878 133.637616,25.2022594 C134.262866,25.5319553 134.921932,25.7754016 135.5948,25.9256428 C136.256627,26.0731017 136.95296,26.1482223 137.664475,26.1482223 C140.02331,26.1482223 141.8404,25.6550696 143.065366,24.6833709 C144.348302,23.6664609 144.997706,22.1932628 144.997706,20.3055104 C144.997706,18.6751156 144.418695,17.3980657 143.277924,16.5105299" id="Fill-17" fill="#31343F"></path>
            </g>
        </g>
    </g>
</svg>