<svg width="1196" height="242" viewBox="0 0 1196 242" fill="none" xmlns="http://www.w3.org/2000/svg">
<path d="M91.4521 112.18C37.9993 101.23 25.7596 86.7414 25.7596 62.9097V62.2676C25.7596 38.7599 47.6576 19.7588 80.8235 19.7588C105.62 19.7588 126.876 26.8469 148.129 45.1987L158.756 31.9957C135.89 13.6411 114.316 4.625 81.4671 4.625C39.6076 4.625 9.01464 30.3874 9.01464 63.8759V64.5209C9.01464 98.6572 30.9112 117.012 85.0119 127.959C136.214 138.263 148.772 152.111 148.772 175.939V176.585C148.772 202.349 125.583 221.347 91.7732 221.347C58.6073 221.347 35.7446 210.717 10.944 187.857L0 200.411C27.0482 224.565 54.7414 236.478 90.8071 236.478C134.282 236.478 165.519 211.362 165.519 174.976V174.329C165.52 141.486 143.619 122.81 91.4521 112.18Z" fill="#009BDB"/>
<path d="M310.889 0C244.346 0 190.209 54.1364 190.209 120.679C190.209 187.224 244.346 241.355 310.889 241.355C377.431 241.355 431.567 187.224 431.567 120.679C431.567 54.1364 377.431 0 310.889 0ZM310.889 224.946C253.393 224.946 206.622 178.175 206.622 120.679C206.622 63.1824 253.393 16.4096 310.889 16.4096C368.383 16.4096 415.156 63.1824 415.156 120.679C415.156 178.175 368.383 224.946 310.889 224.946Z" fill="#009BDB"/>
<path d="M1179.9 111.858H1037.41V127.312H1179.9V111.858Z" fill="#009BDB"/>
<path d="M1056.04 217.803H1037.41H912.419V7.84473H895.674V233.255H1037.41H1056.04H1196V217.803H1056.04Z" fill="#009BDB"/>
<path d="M1194.39 7.84766H1037.41V23.3025H1194.39V7.84766Z" fill="#009BDB"/>
<path d="M590.05 142.503C591.785 141.691 593.636 140.866 595.437 140.044C594.25 133.765 593.599 127.299 593.599 120.677C593.599 63.1824 640.378 16.4096 697.87 16.4096C744.042 16.4096 783.277 46.5887 796.95 88.2455C802.59 87.9944 808.264 87.8488 813.966 87.8303C799.626 37.2059 753.027 0 697.87 0C631.329 0 577.191 54.1363 577.191 120.677C577.191 129.795 578.243 138.664 580.168 147.214C583.413 145.634 586.696 144.064 590.05 142.503Z" fill="#BA007C"/>
<path d="M815.11 116.807C810.744 116.807 806.392 116.915 802.047 117.063C802.09 118.264 802.14 119.464 802.14 120.677C802.14 178.174 755.366 224.945 697.871 224.945C657.415 224.945 622.297 201.771 605.015 168.01C599.968 170.342 594.996 172.683 590.187 175.037C610.103 214.339 650.88 241.353 697.871 241.353C764.412 241.353 818.549 187.217 818.549 120.678C818.549 119.404 818.491 118.144 818.451 116.881C817.337 116.871 816.228 116.807 815.11 116.807Z" fill="#BA007C"/>
<path d="M592.72 148.223C538.241 173.635 497.247 201.139 477.316 215.537V7.84766H460.911V233.261H480.971C517.124 206.458 694.049 84.3558 875.827 115.601V98.9716C767.445 81.2434 662.358 115.739 592.72 148.223Z" fill="#009BDB"/>
</svg>
