<svg width="348" height="169" viewBox="0 0 348 169" fill="none" xmlns="http://www.w3.org/2000/svg">
<path d="M125.749 162.395H115.135V168.509H112.471V154.864H115.135V159.976H125.749V154.864H128.417V168.509H125.749V162.395Z" fill="white"/>
<path d="M145.338 166.555C149.106 166.555 152.14 164.401 152.14 161.688C152.14 158.975 149.106 156.795 145.338 156.795C141.571 156.795 138.54 158.971 138.54 161.688C138.54 164.405 141.597 166.555 145.338 166.555ZM145.338 154.35C150.647 154.35 154.925 157.652 154.925 161.688C154.925 165.724 150.644 169 145.338 169C140.033 169 135.752 165.724 135.752 161.688C135.752 157.652 140.056 154.35 145.338 154.35Z" fill="white"/>
<path d="M159.69 157.308V154.864H175.561V157.308H168.959V168.509H166.291V157.308H159.69Z" fill="white"/>
<path d="M181.675 154.864H195.248V157.308H184.365V160.146H193.536V162.591H184.339V166.064H195.248V168.509H181.675V154.864Z" fill="white"/>
<path d="M205.126 166.064H215.763V168.509H202.458V154.864H205.126V166.064Z" fill="white"/>
<path d="M227.915 169C225.346 169 222.682 168.365 221.265 167.386V164.182C222.61 165.38 225.52 166.555 227.964 166.555C230.632 166.555 232.318 165.675 232.318 164.768C232.318 163.646 230.217 163.275 227.991 162.935C224.764 162.421 220.947 161.737 220.947 158.457C220.947 155.646 224.469 154.471 227.696 154.471C229.971 154.471 232.465 154.962 233.738 155.914V158.824C231.951 157.577 229.752 156.916 227.477 156.916C226.302 156.916 223.781 157.233 223.781 158.48C223.781 159.727 225.958 160.097 228.331 160.46C231.558 160.974 235.106 161.514 235.106 164.62C235.106 167.727 231.486 169 227.915 169Z" fill="white"/>
<path d="M201.219 88.8617C198.944 88.8617 197.103 90.7057 197.103 92.9767C197.103 95.2478 198.947 97.0918 201.219 97.0918C203.49 97.0918 205.334 95.2478 205.334 92.9767C205.334 90.7057 203.49 88.8617 201.219 88.8617Z" fill="white"/>
<path d="M0 89.6628V96.6346L30.623 96.5137L0 121.495V128.565H42.5261V121.593H11.3816L42.2616 96.5137V89.6628H0Z" fill="white"/>
<path d="M80.4799 110.231L87.6255 98.3313L94.9222 110.231H80.4799ZM84.2624 89.6628L60.785 128.565H69.4459L76.2854 117.199H99.1582L106.017 128.565H114.466L90.9886 89.6628H84.2586H84.2624Z" fill="white"/>
<path d="M135.026 128.565H142.625V111.693H168.842V104.721H142.697V96.6346H173.721V89.6628H135.026V128.565Z" fill="white"/>
<path d="M205.016 102.507H197.417V128.565H205.016V102.507Z" fill="white"/>
<path d="M254.79 105.073H239.452V96.6383H254.79C260.647 96.6383 262.808 98.1007 262.808 100.821C262.808 103.542 260.647 105.076 254.79 105.076M270.755 100.821C270.755 92.3873 262.597 89.6665 255.489 89.6665H231.853V128.569H239.452V112.048H253.815L264.271 128.569H273.332L262.177 111.209C266.916 109.883 270.751 106.818 270.751 100.821" fill="white"/>
<path d="M320.181 122.988C309.514 122.988 300.8 116.855 300.8 109.116C300.8 101.377 309.518 95.1722 320.181 95.1722C330.845 95.1722 339.562 101.377 339.562 109.116C339.562 116.855 330.917 122.988 320.181 122.988ZM320.181 88.2004C305.123 88.2004 292.853 97.6133 292.853 109.116C292.853 120.618 305.123 129.963 320.181 129.963C335.239 129.963 347.509 120.618 347.509 109.116C347.509 97.6133 335.307 88.2004 320.181 88.2004Z" fill="white"/>
<path d="M228.558 38.899C224.802 42.7193 220.713 46.2336 216.122 49.0147C211.489 51.8186 206.384 53.8553 201.143 55.1817C190.389 57.8986 178.845 57.4905 168.272 54.1727C162.403 52.3325 156.89 49.6004 151.426 46.8231C146.234 44.1855 141.008 41.4799 135.344 40.0024C129.978 38.6043 123.898 37.9997 118.898 40.8715C114.118 43.6187 111.469 48.9845 112.815 54.4184C114.296 60.4077 120.123 63.8841 126.067 63.7745C132.585 63.6574 138.589 60.385 143.948 56.9614L136.53 53.417C133.28 55.2157 129.657 56.8745 125.87 56.9199C122.583 56.9577 119.25 54.9549 119.307 51.3424C119.363 47.6279 123.505 45.6857 126.732 45.6932C130.526 45.7046 134.24 46.6341 137.766 47.9831C141.733 49.5022 145.505 51.5012 149.287 53.4245C149.287 53.4245 149.283 53.4245 149.28 53.4283L149.525 53.5455C154.619 56.1339 159.784 58.6014 165.218 60.3926C170.822 62.2366 176.645 63.3589 182.54 63.699C195.422 64.4472 208.636 61.5451 219.727 54.8567C225.471 51.3916 230.538 46.9326 235.072 42.0089L228.562 38.899H228.558Z" fill="white"/>
<path d="M194.171 22.1629L186.723 18.6034L153.746 41.7293L160.926 45.1604L194.171 22.1629Z" fill="white"/>
<path d="M118.951 24.9177C122.707 21.0973 126.796 17.5831 131.387 14.8019C136.02 11.9981 141.125 9.96136 146.366 8.63502C157.12 5.9181 168.665 6.3262 179.237 9.64395C185.106 11.4842 190.619 14.2162 196.083 16.9936C201.275 19.6312 206.501 22.3368 212.166 23.8143C217.531 25.2124 223.611 25.817 228.611 22.9451C233.391 20.198 236.04 14.8322 234.694 9.39832C233.213 3.40901 227.386 -0.067443 221.442 0.0421407C214.924 0.159282 208.92 3.43168 203.561 6.85523L210.979 10.3997C214.229 8.60101 217.853 6.94214 221.639 6.89679C224.93 6.85901 228.259 8.86174 228.203 12.4742C228.142 16.185 224.004 18.131 220.777 18.1197C216.983 18.1083 213.269 17.1788 209.747 15.8298C205.779 14.3107 202.008 12.3117 198.226 10.3884C198.226 10.3884 198.229 10.3884 198.233 10.3846L197.988 10.2674C192.894 7.679 187.728 5.21147 182.291 3.42034C176.687 1.57631 170.864 0.454025 164.969 0.113938C152.087 -0.630476 138.873 2.26782 127.782 8.95621C122.039 12.4213 116.971 16.8803 112.437 21.804L118.948 24.9139L118.951 24.9177Z" fill="white"/>
</svg>
