<?xml version="1.0" encoding="utf-8"?>
<!-- Generator: Adobe Illustrator 27.0.1, SVG Export Plug-In . SVG Version: 6.00 Build 0)  -->
<svg version="1.1" id="Слой_1" xmlns="http://www.w3.org/2000/svg" xmlns:xlink="http://www.w3.org/1999/xlink" x="0px" y="0px"
	 viewBox="0 0 270 90" style="enable-background:new 0 0 270 90;" xml:space="preserve">
<style type="text/css">
	.st0{fill-rule:evenodd;clip-rule:evenodd;fill:#E00918;}
	.st1{fill:#FFFFFF;}
</style>
<rect class="st0" width="270" height="90"/>
<path class="st1" d="M236.9,35.8h-7.1c0.1-1.5,0.4-2.6,0.9-3.4c0.8-1.1,1.9-1.9,3.3-2.3c1.8-0.5,5-0.8,9.6-0.8
	c3.6,0,5.9,0.2,7.2,0.5c1.1,0.3,2.1,1,2.8,2.1c0.7,1,1.1,2.9,1.1,5.5v11.5h-6.8v-2.6h-0.3c-0.5,1.1-1.4,1.9-2.5,2.4
	c-0.7,0.3-1.7,0.5-2.9,0.6c-1,0-2.6,0.1-4.9,0.1c-2.5,0-4.3-0.2-5.3-0.6c-1.3-0.5-2.1-1.3-2.6-2.5c-0.3-0.8-0.4-1.7-0.4-2.8
	c0-2.2,0.6-3.8,1.6-4.8c1.2-1,3.1-1.7,5.7-1.8c1.5,0,3.4-0.1,5.8-0.1c1.7,0,2.9,0.1,3.8,0.5c0.5,0.2,1,0.5,1.5,1h0.3v-1
	c0-1.3-0.2-2.1-0.6-2.5c-0.4-0.4-1.1-0.7-2.2-0.8c-0.4,0-1.1,0-2.1,0c-2.8,0-4.5,0.1-5.1,0.4C237.3,34.5,237,35,236.9,35.8
	L236.9,35.8z M241.7,40.9c-2.4,0-3.9,0.1-4.5,0.5c-0.7,0.3-1.1,0.8-1.1,1.6s0.4,1.4,1.3,1.7c0.7,0.2,1.9,0.3,3.6,0.3
	c2.2,0,3.8-0.1,4.7-0.3c1.1-0.3,1.7-0.9,1.7-1.8c0-0.8-0.4-1.3-1.2-1.6C245.9,40.9,244.4,40.9,241.7,40.9z M217,29.8h7.1v19.1H217
	V29.8z M217,22h7.1v5.4H217C217,27.3,217,22,217,22z M182.5,56.8v-27h6.8v2.6h0.4c0.4-0.9,1-1.5,1.6-1.8c0.9-0.5,1.9-0.8,2.9-1
	c1.2-0.2,2.6-0.2,4.1-0.2c3,0,5.4,0.3,7,0.8c1.8,0.6,2.9,1.7,3.5,3.4c0.4,1.2,0.6,3.2,0.6,5.9c0,2.4-0.2,4.1-0.5,5.2
	c-0.6,2.1-1.9,3.4-3.8,4c-1.4,0.5-3.8,0.7-7.1,0.7c-2.1,0-3.7-0.1-4.7-0.4c-1.5-0.4-2.6-1.2-3.4-2.5h-0.3v10.4L182.5,56.8
	L182.5,56.8z M196.1,34.7c-2.9,0-4.7,0.3-5.4,0.9c-0.7,0.6-1.1,2-1.1,4c0,1.1,0.1,2,0.4,2.5c0.3,0.8,1.1,1.3,2.2,1.6
	c1,0.2,2.2,0.3,3.8,0.3c2.6,0,4.3-0.3,5.1-0.8c0.5-0.3,0.8-0.9,1-1.6c0.1-0.6,0.2-1.4,0.2-2.6c0-1.1-0.1-1.9-0.3-2.4
	c-0.4-0.8-1.2-1.4-2.5-1.7C198.7,34.8,197.6,34.7,196.1,34.7z M160.6,29.3c3.7,0,6.4,0.2,8.3,0.6c2,0.4,3.4,1.4,4.2,3
	c0.4,0.9,0.7,1.8,0.8,2.7s0.1,2,0.1,3.4c0,2.6-0.1,4.4-0.4,5.4c-0.6,2.2-1.9,3.6-3.9,4.3c-1.6,0.5-4.6,0.8-9.2,0.8
	c-4,0-6.9-0.2-8.7-0.6c-2.1-0.5-3.5-1.6-4.2-3.4c-0.3-0.8-0.5-1.7-0.6-2.6c-0.1-1.1-0.1-2.4-0.1-3.8c0-2.4,0.2-4.1,0.4-5
	c0.7-2,2-3.3,4.1-3.9C153.2,29.6,156.2,29.3,160.6,29.3L160.6,29.3z M160.5,34.7c-2.3,0-3.9,0.2-4.7,0.6c-0.6,0.3-1.1,0.8-1.3,1.5
	c-0.2,0.6-0.3,1.5-0.3,2.8s0.1,2.3,0.4,2.8c0.4,0.7,1.2,1.2,2.5,1.5c0.9,0.2,2.1,0.2,3.6,0.2c2.5,0,4.2-0.2,5-0.7
	c0.6-0.3,0.9-0.8,1.1-1.5c0.1-0.5,0.2-1.4,0.2-2.5c0-1.5-0.2-2.5-0.5-3.1c-0.4-0.7-1.2-1.1-2.5-1.3C163,34.8,161.9,34.7,160.5,34.7
	L160.5,34.7z M115.5,42.8h7.3c0,0.6,0.3,1.1,0.7,1.4c0.8,0.5,2.5,0.8,5.2,0.8c2.7,0,4.4-0.2,5.1-0.5c0.6-0.3,0.9-0.7,0.9-1.3
	c0-0.7-0.4-1.1-1.2-1.3c-0.4-0.1-2.4-0.2-6.1-0.2c-3.4,0-5.6-0.1-6.3-0.2c-2.3-0.3-3.8-1-4.6-2.2c-0.6-0.8-0.9-2-0.9-3.5
	c0-2.8,1.1-4.7,3.1-5.5c1.6-0.7,4.9-1,10.1-1c3.6,0,6.3,0.2,7.9,0.5c0.9,0.2,1.7,0.5,2.4,1s1.1,1.1,1.4,1.8c0.2,0.6,0.3,1.5,0.4,2.5
	h-7.3c-0.1-0.5-0.3-0.8-0.5-0.9c-0.6-0.4-2.1-0.6-4.5-0.6c-2.5,0-4.1,0.1-4.9,0.4c-0.6,0.2-0.9,0.6-0.9,1.2c0,0.8,0.6,1.2,1.7,1.2
	c0.9,0.1,4.1,0.1,9.7,0.2c2.7,0,4.6,0.5,5.8,1.4s1.8,2.4,1.8,4.6c0,1.7-0.3,3-0.9,3.9c-0.4,0.6-1,1.1-1.7,1.5
	c-0.8,0.4-1.8,0.7-3.1,0.8c-1.8,0.3-4.4,0.4-7.9,0.4c-3.8,0-6.5-0.2-8.2-0.5c-1.1-0.2-2-0.7-2.7-1.3c-0.8-0.6-1.3-1.4-1.5-2.3
	C115.6,44.6,115.5,43.8,115.5,42.8L115.5,42.8z M108.5,22v26.9h-6.7v-2.5h-0.4c-0.5,0.8-1.1,1.5-1.7,1.8c-1.3,0.8-3.6,1.2-6.8,1.2
	c-3.1,0-5.4-0.2-7-0.7c-0.9-0.2-1.7-0.7-2.3-1.3c-0.7-0.6-1.1-1.3-1.4-2.1c-0.4-1.3-0.7-3.3-0.7-6c0-1.7,0.1-3,0.2-4
	c0.2-1,0.4-1.9,0.8-2.6c0.7-1.5,2.1-2.4,4-2.8c1.4-0.4,3.3-0.5,6-0.5c2.5,0,4.2,0.1,5.1,0.4c1.4,0.4,2.5,1.3,3.3,2.7h0.3V22H108.5
	L108.5,22z M95.2,34.6c-2.6,0-4.2,0.2-5.1,0.7c-0.6,0.3-1,0.8-1.2,1.6c-0.2,0.5-0.2,1.3-0.2,2.4c0,1.4,0.1,2.4,0.4,3.1
	c0.4,0.8,1.2,1.3,2.7,1.5c0.8,0.1,1.9,0.2,3.1,0.2c2.6,0,4.4-0.3,5.3-0.8c0.5-0.3,0.8-0.8,1-1.6c0.1-0.5,0.2-1.2,0.2-2.2
	c0-1.6-0.2-2.7-0.5-3.3c-0.4-0.6-1.1-1-2.3-1.2C97.7,34.7,96.6,34.6,95.2,34.6z M67.1,42.8h7.1c-0.2,2.1-0.8,3.5-1.9,4.4
	c-1,0.8-2.4,1.4-4.3,1.7c-1.6,0.3-3.9,0.4-7.1,0.4c-3.4,0-6-0.2-7.7-0.7c-1.9-0.5-3.2-1.5-3.8-3.1c-0.4-0.9-0.6-1.8-0.7-2.8
	s-0.1-2.1-0.1-3.3c0-2.6,0.2-4.4,0.5-5.4c0.7-2,2-3.3,4.1-4c1.6-0.5,4.4-0.7,8.5-0.7c3.2,0,5.5,0.1,6.7,0.3c1.4,0.2,2.6,0.7,3.4,1.2
	c0.8,0.6,1.5,1.4,1.9,2.4c0.5,1.3,0.8,3.1,0.8,5.4c0,0.5,0,1.2,0,2.2H55.6c0,0.9,0,1.6,0.2,2.1c0.2,0.8,0.8,1.3,1.8,1.5
	c0.9,0.2,2.2,0.3,3.7,0.3c2,0,3.4-0.1,4.3-0.3C66.4,44.3,66.9,43.8,67.1,42.8z M67.1,37c0-0.6,0-1-0.1-1.3c-0.1-0.8-0.6-1.3-1.4-1.5
	c-0.9-0.3-2.2-0.4-4-0.4c-2.8,0-4.5,0.3-5.2,0.9c-0.5,0.5-0.8,1.3-0.8,2.4h11.5V37z M15,22h7.1v10.4h0.3c0.5-0.9,1.1-1.5,1.8-1.9
	c0.6-0.4,1.5-0.7,2.4-0.8c1-0.2,2.2-0.3,3.8-0.3c2.7,0,4.9,0.2,6.6,0.6c2.1,0.5,3.5,1.7,4.2,3.4c0.4,0.9,0.6,1.8,0.6,2.8
	c0,0.9,0.1,2,0.1,3.2c0,2.3-0.1,4-0.4,5c-0.6,2.1-1.8,3.6-3.6,4.3c-1.6,0.6-4,0.8-7.3,0.8s-5.6-0.4-6.9-1.1c-0.6-0.4-1.1-1-1.6-1.9
	h-0.4V49h-6.8C15,48.9,15,22,15,22z M28.5,34.6c-2.4,0-4,0.2-4.9,0.7c-0.6,0.3-1,0.8-1.2,1.5c-0.1,0.6-0.2,1.5-0.2,2.8
	c0,1.5,0.2,2.5,0.5,3c0.4,0.5,1,0.8,1.9,1.1c1,0.2,2.3,0.3,4,0.3c2.5,0,4.2-0.3,5-0.8c0.5-0.3,0.8-0.8,1-1.6
	c0.1-0.5,0.2-1.4,0.2-2.6c0-1.4-0.2-2.3-0.5-2.9c-0.3-0.5-0.9-0.9-1.9-1.1C31.5,34.8,30.2,34.6,28.5,34.6z"/>
<g>
	<path class="st1" d="M198.5,74.7c-0.2-0.2-0.3-0.5-0.3-0.8c0-0.5,0.1-0.8,0.5-1.2c0.3-0.3,0.7-0.5,1.2-0.5c0.3,0,0.6,0.1,0.8,0.3
		c0.2,0.2,0.3,0.5,0.3,0.8c0,0.5-0.1,0.8-0.5,1.2c-0.3,0.3-0.7,0.5-1.2,0.5C199.1,75,198.7,74.9,198.5,74.7z"/>
	<path class="st1" d="M208,66.9c0.6-0.8,1.3-1.4,2.1-1.9c0.8-0.5,1.7-0.7,2.7-0.7c1.3,0,2.2,0.2,2.9,0.9c0.7,0.6,1.2,1.4,1.2,2.6
		h-2.3c-0.1-0.5-0.3-0.9-0.7-1.2c-0.3-0.2-0.8-0.5-1.5-0.5c-0.9,0-1.6,0.3-2.2,0.9c-0.6,0.6-1,1.5-1.3,2.6c0,0.3-0.1,0.7-0.1,0.9
		c0,0.8,0.2,1.4,0.6,1.9c0.5,0.5,0.9,0.7,1.7,0.7c1.3,0,2.1-0.6,2.7-1.6h2.3c-0.5,1-1.2,1.9-2.1,2.4s-2,0.9-3.2,0.9
		c-1.3,0-2.3-0.3-3-1c-0.7-0.7-1.2-1.7-1.2-3c0-0.3,0-0.8,0.1-1.2C207,68.7,207.4,67.7,208,66.9z"/>
	<path class="st1" d="M223.7,74.5c-0.7-0.3-1.2-0.9-1.5-1.5c-0.3-0.7-0.6-1.4-0.6-2.2c0-1.2,0.2-2.2,0.8-3.1
		c0.6-0.9,1.3-1.7,2.2-2.2c0.9-0.6,2-0.8,3.1-0.8c0.9,0,1.6,0.2,2.3,0.6c0.7,0.3,1.2,0.9,1.6,1.5c0.3,0.7,0.6,1.4,0.6,2.2
		c0,1.2-0.2,2.2-0.8,3.1c-0.6,0.9-1.3,1.7-2.3,2.2c-1,0.5-2,0.8-3.1,0.8C225.1,75,224.3,74.8,223.7,74.5z M228.1,72.6
		c0.6-0.3,1-0.9,1.4-1.6c0.3-0.7,0.5-1.4,0.5-2.1c0-0.8-0.2-1.5-0.7-2s-1-0.7-1.9-0.7c-0.7,0-1.4,0.2-2,0.6s-1,0.9-1.3,1.6
		c-0.3,0.7-0.5,1.4-0.5,2.2s0.2,1.5,0.7,2c0.5,0.5,1,0.7,1.7,0.7C226.9,73.3,227.5,73.1,228.1,72.6z"/>
	<path class="st1" d="M253.8,65.3c0.6,0.6,0.9,1.4,0.9,2.4c0,0.2,0,0.6-0.1,1l-1,6h-2.1l1-5.7c0-0.3,0.1-0.6,0.1-0.7
		c0-0.7-0.2-1.2-0.6-1.5c-0.3-0.3-0.9-0.6-1.6-0.6c-0.8,0-1.5,0.2-2.1,0.7c-0.6,0.5-0.9,1.2-1,2.1l-1,5.7h-2.1l1-5.7
		c0-0.3,0.1-0.6,0.1-0.7c0-0.7-0.2-1.2-0.6-1.5c-0.3-0.3-0.9-0.6-1.6-0.6c-0.8,0-1.5,0.2-2.1,0.7c-0.6,0.5-0.9,1.2-1,2.1V69l-1,5.8
		h-2.1l1.7-10.2h2.1l-0.2,1.2c0.5-0.5,0.9-0.8,1.5-1c0.6-0.2,1.2-0.3,1.7-0.3c0.8,0,1.5,0.2,2.1,0.5c0.6,0.3,1,0.8,1.3,1.5
		c0.5-0.6,0.9-1.2,1.7-1.5c0.7-0.3,1.4-0.6,2.2-0.6C252.3,64.5,253.1,64.7,253.8,65.3z"/>
</g>
</svg>
