<svg width="341" height="204" viewBox="0 0 341 204" fill="none" xmlns="http://www.w3.org/2000/svg">
<g clip-path="url(#clip0_168_309)">
<path d="M440.458 13H0V189H440.458V13Z" fill="white"/>
<path d="M341 73L281 13H341V73Z" fill="#F3F6FE"/>
</g>
<path d="M142.212 144.498H136.032V148.058H134.481V140.114H136.032V143.09H142.212V140.114H143.765V148.058H142.212V144.498Z" fill="#001930"/>
<path d="M153.616 146.92C155.81 146.92 157.576 145.666 157.576 144.087C157.576 142.507 155.81 141.238 153.616 141.238C151.423 141.238 149.659 142.505 149.659 144.087C149.659 145.669 151.438 146.92 153.616 146.92ZM153.616 139.814C156.707 139.814 159.198 141.737 159.198 144.087C159.198 146.436 156.705 148.344 153.616 148.344C150.528 148.344 148.035 146.436 148.035 144.087C148.035 141.737 150.541 139.814 153.616 139.814Z" fill="#001930"/>
<path d="M161.972 141.537V140.114H171.212V141.537H167.369V148.058H165.815V141.537H161.972Z" fill="#001930"/>
<path d="M174.772 140.114H182.674V141.537H176.338V143.189H181.677V144.613H176.323V146.634H182.674V148.058H174.772V140.114Z" fill="#001930"/>
<path d="M188.425 146.634H194.618V148.058H186.872V140.114H188.425V146.634Z" fill="#001930"/>
<path d="M201.693 148.344C200.197 148.344 198.646 147.974 197.821 147.404V145.539C198.604 146.236 200.298 146.92 201.722 146.92C203.275 146.92 204.256 146.408 204.256 145.88C204.256 145.226 203.033 145.011 201.737 144.813C199.858 144.514 197.636 144.115 197.636 142.206C197.636 140.569 199.687 139.885 201.565 139.885C202.89 139.885 204.342 140.171 205.083 140.725V142.419C204.043 141.693 202.762 141.308 201.438 141.308C200.754 141.308 199.286 141.493 199.286 142.219C199.286 142.945 200.553 143.161 201.935 143.372C203.814 143.671 205.88 143.986 205.88 145.794C205.88 147.602 203.772 148.344 201.693 148.344Z" fill="#001930"/>
<path d="M186.15 101.622C184.826 101.622 183.754 102.696 183.754 104.018C183.754 105.34 184.828 106.414 186.15 106.414C187.472 106.414 188.546 105.34 188.546 104.018C188.546 102.696 187.472 101.622 186.15 101.622Z" fill="#001930"/>
<path d="M69 102.089V106.148L86.8288 106.077L69 120.622V124.738H93.7588V120.679H75.6264L93.6048 106.077V102.089H69Z" fill="#001930"/>
<path d="M115.856 114.063L120.016 107.136L124.264 114.063H115.856ZM118.058 102.089L104.389 124.738H109.432L113.414 118.12H126.73L130.723 124.738H135.642L121.974 102.089H118.056H118.058Z" fill="#001930"/>
<path d="M147.613 124.738H152.037V114.915H167.3V110.856H152.079V106.148H170.141V102.089H147.613V124.738Z" fill="#001930"/>
<path d="M188.361 109.567H183.937V124.738H188.361V109.567Z" fill="#001930"/>
<path d="M217.339 111.06H208.41V106.15H217.339C220.749 106.15 222.008 107.001 222.008 108.585C222.008 110.169 220.749 111.063 217.339 111.063M226.634 108.585C226.634 103.675 221.885 102.091 217.746 102.091H203.985V124.74H208.41V115.122H216.772L222.859 124.74H228.135L221.64 114.633C224.399 113.861 226.632 112.077 226.632 108.585" fill="#001930"/>
<path d="M255.41 121.491C249.2 121.491 244.127 117.92 244.127 113.414C244.127 108.909 249.202 105.296 255.41 105.296C261.619 105.296 266.694 108.909 266.694 113.414C266.694 117.92 261.661 121.491 255.41 121.491ZM255.41 101.237C246.643 101.237 239.5 106.718 239.5 113.414C239.5 120.111 246.643 125.552 255.41 125.552C264.177 125.552 271.321 120.111 271.321 113.414C271.321 106.718 264.217 101.237 255.41 101.237Z" fill="#001930"/>
<path d="M202.067 72.3052C199.88 74.5294 197.5 76.5754 194.827 78.1946C192.13 79.827 189.157 81.0128 186.106 81.785C179.845 83.3668 173.124 83.1292 166.968 81.1976C163.552 80.1262 160.342 78.5356 157.161 76.9186C154.138 75.383 151.095 73.8078 147.797 72.9476C144.673 72.1336 141.134 71.7816 138.223 73.4536C135.44 75.053 133.898 78.177 134.681 81.3406C135.543 84.8276 138.936 86.8516 142.396 86.7878C146.191 86.7196 149.687 84.8144 152.807 82.8212L148.488 80.7576C146.596 81.8048 144.486 82.7706 142.282 82.797C140.368 82.819 138.428 81.653 138.461 79.5498C138.494 77.3872 140.905 76.2564 142.784 76.2608C144.992 76.2674 147.155 76.8086 149.208 77.594C151.518 78.4784 153.713 79.6422 155.915 80.762C155.915 80.762 155.913 80.762 155.911 80.7642L156.054 80.8324C159.02 82.3394 162.027 83.776 165.191 84.8188C168.453 85.8924 171.843 86.5458 175.275 86.7438C182.775 87.1794 190.469 85.4898 196.926 81.5958C200.27 79.5784 203.22 76.9824 205.86 74.1158L202.069 72.3052H202.067Z" fill="#001930"/>
<path d="M182.047 62.5614L177.711 60.489L158.511 73.953L162.691 75.9506L182.047 62.5614Z" fill="#001930"/>
<path d="M138.254 64.1652C140.441 61.941 142.821 59.895 145.494 58.2758C148.191 56.6434 151.163 55.4576 154.215 54.6854C160.476 53.1036 167.197 53.3412 173.353 55.2728C176.769 56.3442 179.979 57.9348 183.16 59.5518C186.183 61.0874 189.226 62.6626 192.523 63.5228C195.647 64.3368 199.187 64.6888 202.098 63.0168C204.881 61.4174 206.423 58.2934 205.64 55.1298C204.777 51.6428 201.385 49.6188 197.924 49.6826C194.129 49.7508 190.634 51.656 187.514 53.6492L191.833 55.7128C193.725 54.6656 195.834 53.6998 198.039 53.6734C199.955 53.6514 201.893 54.8174 201.86 56.9206C201.825 59.081 199.416 60.214 197.537 60.2074C195.328 60.2008 193.166 59.6596 191.115 58.8742C188.805 57.9898 186.61 56.826 184.408 55.7062C184.408 55.7062 184.41 55.7062 184.412 55.704L184.269 55.6358C181.303 54.1288 178.296 52.6922 175.13 51.6494C171.868 50.5758 168.477 49.9224 165.045 49.7244C157.546 49.291 149.852 50.9784 143.395 54.8724C140.051 56.8898 137.101 59.4858 134.461 62.3524L138.252 64.163L138.254 64.1652Z" fill="#001930"/>
<path d="M29 188.776L29 27.7922L-4.76108e-05 27.7922L-5.53131e-05 204L29 188.776Z" fill="#0949B6"/>
<path d="M6.82877e-06 15.2238L-1.63742e-06 176.208L29 176.208L29 1.05362e-06L6.82877e-06 15.2238Z" fill="#0949B6"/>
<path d="M10.4688 176.133L10.4688 173.115C10.4688 172.467 10.5664 171.914 10.7617 171.457C10.957 171 11.2461 170.65 11.6289 170.408C12.0078 170.162 12.4766 170.039 13.0352 170.039C13.461 170.039 13.836 170.117 14.1602 170.273C14.4844 170.43 14.7578 170.65 14.9805 170.936C15.1992 171.221 15.3692 171.561 15.4902 171.955L15.707 172.4L15.707 175.113L14.541 175.125L14.541 173.092C14.541 172.74 14.4785 172.447 14.3535 172.213C14.2285 171.979 14.0586 171.803 13.8438 171.686C13.625 171.564 13.3789 171.504 13.1055 171.504C12.8086 171.504 12.5508 171.562 12.332 171.68C12.1094 171.793 11.9395 171.969 11.8223 172.207C11.7012 172.445 11.6406 172.748 11.6406 173.115L11.6406 174.662L19 174.662L19 176.133L10.4688 176.133ZM19 171.264L15.168 173.268L15.1621 171.727L18.9238 169.693L19 169.693L19 171.264ZM17.834 162.99L19 162.99L19 167.52L17.834 167.52L17.834 162.99ZM10.4688 167.104L19 167.104L19 168.574L10.4688 168.574L10.4688 167.104ZM14.0313 163.582L15.1797 163.582L15.1797 167.52L14.0313 167.52L14.0313 163.582ZM10.4688 163.02L11.6406 163.02L11.6406 167.52L10.4688 167.52L10.4688 163.02ZM17.834 156.445L19 156.445L19 160.729L17.834 160.729L17.834 156.445ZM10.4688 160.318L19 160.318L19 161.789L10.4688 161.789L10.4688 160.318ZM14.5 148.893L14.9688 148.893C15.6133 148.893 16.1914 148.977 16.7031 149.145C17.2149 149.312 17.6504 149.553 18.0098 149.865C18.3692 150.174 18.6445 150.545 18.836 150.979C19.0235 151.412 19.1172 151.893 19.1172 152.42C19.1172 152.943 19.0235 153.422 18.836 153.855C18.6445 154.285 18.3692 154.658 18.0098 154.975C17.6504 155.291 17.2149 155.537 16.7031 155.713C16.1914 155.885 15.6133 155.971 14.9688 155.971L14.5 155.971C13.8555 155.971 13.2793 155.885 12.7715 155.713C12.2598 155.541 11.8242 155.299 11.4649 154.986C11.1016 154.67 10.8262 154.297 10.6387 153.867C10.4473 153.434 10.3516 152.955 10.3516 152.432C10.3516 151.904 10.4473 151.424 10.6387 150.99C10.8262 150.557 11.1016 150.184 11.4649 149.871C11.8242 149.559 12.2598 149.318 12.7715 149.15C13.2793 148.979 13.8555 148.893 14.5 148.893ZM14.9688 150.363L14.4883 150.363C14.0117 150.363 13.5918 150.41 13.2285 150.504C12.8613 150.594 12.5547 150.729 12.3086 150.908C12.0586 151.084 11.8711 151.301 11.7461 151.559C11.6172 151.816 11.5527 152.107 11.5527 152.432C11.5527 152.756 11.6172 153.045 11.7461 153.299C11.8711 153.553 12.0586 153.77 12.3086 153.949C12.5547 154.125 12.8613 154.26 13.2285 154.354C13.5918 154.447 14.0117 154.494 14.4883 154.494L14.9688 154.494C15.4453 154.494 15.8672 154.447 16.2344 154.354C16.6016 154.26 16.9121 154.123 17.166 153.943C17.416 153.76 17.6055 153.541 17.7344 153.287C17.8594 153.033 17.9219 152.744 17.9219 152.42C17.9219 152.092 17.8594 151.801 17.7344 151.547C17.6055 151.293 17.416 151.078 17.166 150.902C16.9121 150.727 16.6016 150.594 16.2344 150.504C15.8672 150.41 15.4453 150.363 14.9688 150.363ZM16.4395 143.912L10.4688 143.912L10.4688 142.447L16.4395 142.447C17.0059 142.447 17.4883 142.568 17.8867 142.811C18.2852 143.053 18.5899 143.383 18.8008 143.801C19.0117 144.219 19.1172 144.693 19.1172 145.225C19.1172 145.768 19.0254 146.25 18.8418 146.672C18.6582 147.09 18.377 147.418 17.9981 147.656C17.6192 147.895 17.1387 148.014 16.5567 148.014L16.5567 146.537C16.8926 146.537 17.1641 146.484 17.3711 146.379C17.5742 146.27 17.7227 146.117 17.8164 145.922C17.9063 145.723 17.9512 145.49 17.9512 145.225C17.9512 144.971 17.8945 144.746 17.7813 144.551C17.6641 144.352 17.4942 144.195 17.2715 144.082C17.0449 143.969 16.7676 143.912 16.4395 143.912ZM15.8184 134.525L15.8184 136.746L14.6524 136.746L14.6524 134.525C14.6524 134.139 14.5899 133.826 14.4649 133.588C14.3399 133.35 14.168 133.176 13.9492 133.066C13.7266 132.953 13.4727 132.896 13.1875 132.896C12.918 132.896 12.666 132.953 12.4317 133.066C12.1934 133.176 12.002 133.35 11.8574 133.588C11.7129 133.826 11.6406 134.139 11.6406 134.525L11.6406 136.295L19 136.295L19 137.766L10.4688 137.766L10.4688 134.525C10.4688 133.865 10.586 133.305 10.8203 132.844C11.0508 132.379 11.3711 132.025 11.7813 131.783C12.1875 131.541 12.6524 131.42 13.1758 131.42C13.7266 131.42 14.1992 131.541 14.5938 131.783C14.9883 132.025 15.291 132.379 15.502 132.844C15.7129 133.305 15.8184 133.865 15.8184 134.525ZM11.6055 127.67L19 130.219L19 131.76L10.4688 128.549L10.4688 127.564L11.6055 127.67ZM19 125.537L11.6055 128.092L10.4688 128.203L10.4688 127.213L19 123.99L19 125.537ZM15.836 125.66L17.002 125.66L17.002 130.301L15.836 130.301L15.836 125.66ZM10.4688 120.264L19 120.264L19 121.723L10.4688 121.723L10.4688 120.264ZM10.4688 117.586L11.6406 117.586L11.6406 124.377L10.4688 124.377L10.4688 117.586ZM10.4688 116.461L10.4688 113.443C10.4688 112.795 10.5664 112.242 10.7617 111.785C10.957 111.328 11.2461 110.979 11.6289 110.736C12.0078 110.49 12.4766 110.367 13.0352 110.367C13.4609 110.367 13.8359 110.445 14.1602 110.602C14.4844 110.758 14.7578 110.979 14.9805 111.264C15.1992 111.549 15.3692 111.889 15.4902 112.283L15.707 112.729L15.707 115.441L14.541 115.453L14.541 113.42C14.541 113.068 14.4785 112.775 14.3535 112.541C14.2285 112.307 14.0586 112.131 13.8438 112.014C13.625 111.893 13.3789 111.832 13.1055 111.832C12.8086 111.832 12.5508 111.891 12.332 112.008C12.1094 112.121 11.9395 112.297 11.8223 112.535C11.7012 112.773 11.6406 113.076 11.6406 113.443L11.6406 114.99L19 114.99L19 116.461L10.4688 116.461ZM19 111.592L15.168 113.596L15.1621 112.055L18.9238 110.021L19 110.021L19 111.592ZM14.5 102.1L14.9688 102.1C15.6133 102.1 16.1914 102.184 16.7031 102.352C17.2149 102.52 17.6504 102.76 18.0098 103.072C18.3692 103.381 18.6445 103.752 18.8359 104.186C19.0234 104.619 19.1172 105.1 19.1172 105.627C19.1172 106.15 19.0234 106.629 18.8359 107.062C18.6445 107.492 18.3692 107.865 18.0098 108.182C17.6504 108.498 17.2149 108.744 16.7031 108.92C16.1914 109.092 15.6133 109.178 14.9688 109.178L14.5 109.178C13.8555 109.178 13.2793 109.092 12.7715 108.92C12.2598 108.748 11.8242 108.506 11.4649 108.193C11.1016 107.877 10.8262 107.504 10.6387 107.074C10.4473 106.641 10.3516 106.162 10.3516 105.639C10.3516 105.111 10.4473 104.631 10.6387 104.197C10.8262 103.764 11.1016 103.391 11.4649 103.078C11.8242 102.766 12.2598 102.525 12.7715 102.357C13.2793 102.186 13.8555 102.1 14.5 102.1ZM14.9688 103.57L14.4883 103.57C14.0117 103.57 13.5918 103.617 13.2285 103.711C12.8613 103.801 12.5547 103.936 12.3086 104.115C12.0586 104.291 11.8711 104.508 11.7461 104.766C11.6172 105.023 11.5527 105.314 11.5527 105.639C11.5527 105.963 11.6172 106.252 11.7461 106.506C11.8711 106.76 12.0586 106.977 12.3086 107.156C12.5547 107.332 12.8613 107.467 13.2285 107.561C13.5918 107.654 14.0117 107.701 14.4883 107.701L14.9688 107.701C15.4453 107.701 15.8672 107.654 16.2344 107.561C16.6016 107.467 16.9121 107.33 17.166 107.15C17.416 106.967 17.6055 106.748 17.7344 106.494C17.8594 106.24 17.9219 105.951 17.9219 105.627C17.9219 105.299 17.8594 105.008 17.7344 104.754C17.6055 104.5 17.416 104.285 17.166 104.109C16.9121 103.934 16.6016 103.801 16.2344 103.711C15.8672 103.617 15.4453 103.57 14.9688 103.57ZM16.2227 95.5898L16.2227 94.125C16.7813 94.1719 17.2793 94.3281 17.7168 94.5937C18.1504 94.8594 18.4922 95.2324 18.7422 95.7129C18.9922 96.1934 19.1172 96.7773 19.1172 97.4648C19.1172 97.9922 19.0234 98.4668 18.8359 98.8887C18.6445 99.3105 18.375 99.6719 18.0274 99.9727C17.6758 100.273 17.252 100.504 16.7559 100.664C16.2598 100.82 15.7051 100.898 15.0918 100.898L14.3828 100.898C13.7695 100.898 13.2149 100.818 12.7188 100.658C12.2227 100.494 11.7988 100.26 11.4473 99.9551C11.0918 99.6504 10.8203 99.2852 10.6328 98.8594C10.4453 98.4297 10.3516 97.9473 10.3516 97.4121C10.3516 96.7324 10.4766 96.1582 10.7266 95.6895C10.9766 95.2207 11.3223 94.8574 11.7637 94.5996C12.2051 94.3379 12.7109 94.1777 13.2813 94.1191L13.2813 95.584C12.9141 95.623 12.5996 95.709 12.3379 95.8418C12.0762 95.9707 11.877 96.1621 11.7402 96.416C11.5996 96.6699 11.5293 97.002 11.5293 97.4121C11.5293 97.748 11.5918 98.041 11.7168 98.291C11.8418 98.541 12.0254 98.75 12.2676 98.918C12.5098 99.0859 12.8086 99.2129 13.1641 99.2988C13.5156 99.3809 13.918 99.4219 14.3711 99.4219L15.0918 99.4219C15.5215 99.4219 15.9121 99.3848 16.2637 99.3105C16.6113 99.2324 16.9102 99.1152 17.1602 98.959C17.4102 98.7988 17.6035 98.5957 17.7402 98.3496C17.877 98.1035 17.9453 97.8086 17.9453 97.4648C17.9453 97.0469 17.8789 96.709 17.7461 96.4512C17.6133 96.1895 17.4199 95.9922 17.166 95.8594C16.9082 95.7227 16.5938 95.6328 16.2227 95.5898ZM10.4688 91.2187L19 91.2187L19 92.6895L10.4688 92.6895L10.4688 91.2187ZM10.4688 82.623L19 82.623L19 84.0937L12.8887 87.9199L19 87.9199L19 89.3906L10.4688 89.3906L10.4688 87.9199L16.5918 84.082L10.4688 84.082L10.4688 82.623ZM11.6055 77.4434L19 79.9922L19 81.5332L10.4688 78.3223L10.4688 77.3379L11.6055 77.4434ZM19 75.3105L11.6055 77.8652L10.4688 77.9766L10.4688 76.9863L19 73.7637L19 75.3105ZM15.8359 75.4336L17.002 75.4336L17.002 80.0742L15.8359 80.0742L15.8359 75.4336ZM19 70.3301L19 72.1523L17.834 72.1406L17.834 70.3301C17.834 69.8027 17.7188 69.3613 17.4883 69.0059C17.2578 68.6465 16.9277 68.377 16.4981 68.1973C16.0684 68.0137 15.5567 67.9219 14.9629 67.9219L14.5 67.9219C14.0391 67.9219 13.6309 67.9746 13.2754 68.0801C12.9199 68.1816 12.6211 68.334 12.3789 68.5371C12.1367 68.7363 11.9531 68.9824 11.8281 69.2754C11.7031 69.5645 11.6406 69.8984 11.6406 70.2773L11.6406 72.1875L10.4688 72.1875L10.4688 70.2773C10.4688 69.7109 10.5645 69.1934 10.7559 68.7246C10.9434 68.2559 11.2149 67.8516 11.5703 67.5117C11.9258 67.168 12.3516 66.9043 12.8477 66.7207C13.3438 66.5371 13.8984 66.4453 14.5117 66.4453L14.9629 66.4453C15.5762 66.4453 16.1309 66.5371 16.627 66.7207C17.1231 66.9043 17.5488 67.168 17.9043 67.5117C18.2559 67.8555 18.5274 68.2656 18.7188 68.7422C18.9063 69.2148 19 69.7441 19 70.3301ZM10.4688 71.3379L19 71.3379L19 72.8086L10.4688 72.8086L10.4688 71.3379ZM14.5 58.166L14.9688 58.166C15.6133 58.166 16.1914 58.25 16.7031 58.418C17.2149 58.5859 17.6504 58.8262 18.0098 59.1387C18.3692 59.4473 18.6445 59.8184 18.8359 60.252C19.0234 60.6855 19.1172 61.166 19.1172 61.6934C19.1172 62.2168 19.0234 62.6953 18.8359 63.1289C18.6445 63.5586 18.3692 63.9316 18.0098 64.248C17.6504 64.5645 17.2149 64.8105 16.7031 64.9863C16.1914 65.1582 15.6133 65.2441 14.9688 65.2441L14.5 65.2441C13.8555 65.2441 13.2793 65.1582 12.7715 64.9863C12.2598 64.8145 11.8242 64.5723 11.4649 64.2598C11.1016 63.9434 10.8262 63.5703 10.6387 63.1406C10.4473 62.707 10.3516 62.2285 10.3516 61.7051C10.3516 61.1777 10.4473 60.6973 10.6387 60.2637C10.8262 59.8301 11.1016 59.457 11.4649 59.1445C11.8242 58.832 12.2598 58.5918 12.7715 58.4238C13.2793 58.252 13.8555 58.166 14.5 58.166ZM14.9688 59.6367L14.4883 59.6367C14.0117 59.6367 13.5918 59.6836 13.2285 59.7773C12.8613 59.8672 12.5547 60.002 12.3086 60.1816C12.0586 60.3574 11.8711 60.5742 11.7461 60.832C11.6172 61.0898 11.5527 61.3809 11.5527 61.7051C11.5527 62.0293 11.6172 62.3184 11.7461 62.5723C11.8711 62.8262 12.0586 63.043 12.3086 63.2227C12.5547 63.3984 12.8613 63.5332 13.2285 63.627C13.5918 63.7207 14.0117 63.7676 14.4883 63.7676L14.9688 63.7676C15.4453 63.7676 15.8672 63.7207 16.2344 63.627C16.6016 63.5332 16.9121 63.3965 17.166 63.2168C17.416 63.0332 17.6055 62.8145 17.7344 62.5605C17.8594 62.3066 17.9219 62.0176 17.9219 61.6934C17.9219 61.3652 17.8594 61.0742 17.7344 60.8203C17.6055 60.5664 17.416 60.3516 17.166 60.1758C16.9121 60 16.6016 59.8672 16.2344 59.7773C15.8672 59.6836 15.4453 59.6367 14.9688 59.6367ZM15.8184 50.4668L15.8184 52.6875L14.6524 52.6875L14.6524 50.4668C14.6524 50.0801 14.5899 49.7676 14.4649 49.5293C14.3399 49.291 14.168 49.1172 13.9492 49.0078C13.7266 48.8945 13.4727 48.8379 13.1875 48.8379C12.918 48.8379 12.666 48.8945 12.4317 49.0078C12.1934 49.1172 12.002 49.291 11.8574 49.5293C11.7129 49.7676 11.6406 50.0801 11.6406 50.4668L11.6406 52.2363L19 52.2363L19 53.707L10.4688 53.707L10.4688 50.4668C10.4688 49.8066 10.5859 49.2461 10.8203 48.7852C11.0508 48.3203 11.3711 47.9668 11.7813 47.7246C12.1875 47.4824 12.6524 47.3613 13.1758 47.3613C13.7266 47.3613 14.1992 47.4824 14.5938 47.7246C14.9883 47.9668 15.291 48.3203 15.502 48.7852C15.7129 49.2461 15.8184 49.8066 15.8184 50.4668ZM14.5 39.2402L14.9688 39.2402C15.6133 39.2402 16.1914 39.3242 16.7031 39.4922C17.2149 39.6602 17.6504 39.9004 18.0098 40.2129C18.3691 40.5215 18.6445 40.8926 18.8359 41.3262C19.0234 41.7598 19.1172 42.2402 19.1172 42.7676C19.1172 43.291 19.0234 43.7695 18.8359 44.2031C18.6445 44.6328 18.3692 45.0059 18.0098 45.3223C17.6504 45.6387 17.2149 45.8848 16.7031 46.0605C16.1914 46.2324 15.6133 46.3184 14.9688 46.3184L14.5 46.3184C13.8555 46.3184 13.2793 46.2324 12.7715 46.0605C12.2598 45.8887 11.8242 45.6465 11.4649 45.334C11.1016 45.0176 10.8262 44.6445 10.6387 44.2148C10.4473 43.7812 10.3516 43.3027 10.3516 42.7793C10.3516 42.252 10.4473 41.7715 10.6387 41.3379C10.8262 40.9043 11.1016 40.5312 11.4649 40.2187C11.8242 39.9062 12.2598 39.666 12.7715 39.498C13.2793 39.3262 13.8555 39.2402 14.5 39.2402ZM14.9688 40.7109L14.4883 40.7109C14.0117 40.7109 13.5918 40.7578 13.2285 40.8516C12.8613 40.9414 12.5547 41.0762 12.3086 41.2559C12.0586 41.4316 11.8711 41.6484 11.7461 41.9062C11.6172 42.1641 11.5527 42.4551 11.5527 42.7793C11.5527 43.1035 11.6172 43.3926 11.7461 43.6465C11.8711 43.9004 12.0586 44.1172 12.3086 44.2969C12.5547 44.4727 12.8613 44.6074 13.2285 44.7012C13.5918 44.7949 14.0117 44.8418 14.4883 44.8418L14.9688 44.8418C15.4453 44.8418 15.8672 44.7949 16.2344 44.7012C16.6016 44.6074 16.9121 44.4707 17.166 44.291C17.416 44.1074 17.6055 43.8887 17.7344 43.6348C17.8594 43.3809 17.9219 43.0918 17.9219 42.7676C17.9219 42.4395 17.8594 42.1484 17.7344 41.8945C17.6055 41.6406 17.416 41.4258 17.166 41.25C16.9121 41.0742 16.6016 40.9414 16.2344 40.8516C15.8672 40.7578 15.4453 40.7109 14.9688 40.7109ZM10.4688 37.7695L10.4688 34.752C10.4688 34.1035 10.5664 33.5508 10.7617 33.0937C10.957 32.6367 11.2461 32.2871 11.6289 32.0449C12.0078 31.7988 12.4766 31.6758 13.0352 31.6758C13.4609 31.6758 13.8359 31.7539 14.1602 31.9102C14.4844 32.0664 14.7578 32.2871 14.9805 32.5723C15.1992 32.8574 15.3691 33.1973 15.4902 33.5918L15.707 34.0371L15.707 36.75L14.541 36.7617L14.541 34.7285C14.541 34.377 14.4785 34.084 14.3535 33.8496C14.2285 33.6152 14.0586 33.4395 13.8438 33.3223C13.625 33.2012 13.3789 33.1406 13.1055 33.1406C12.8086 33.1406 12.5508 33.1992 12.332 33.3164C12.1094 33.4297 11.9395 33.6055 11.8223 33.8437C11.7012 34.082 11.6406 34.3848 11.6406 34.752L11.6406 36.2988L19 36.2988L19 37.7695L10.4688 37.7695ZM19 32.9004L15.168 34.9043L15.1621 33.3633L18.9238 31.3301L19 31.3301L19 32.9004ZM18.2969 30.334C18.0781 30.334 17.8945 30.2598 17.7461 30.1113C17.5938 29.9629 17.5176 29.7617 17.5176 29.5078C17.5176 29.25 17.5938 29.0488 17.7461 28.9043C17.8945 28.7559 18.0781 28.6816 18.2969 28.6816C18.5156 28.6816 18.6992 28.7559 18.8477 28.9043C18.9961 29.0488 19.0703 29.25 19.0703 29.5078C19.0703 29.7617 18.9961 29.9629 18.8477 30.1113C18.6992 30.2598 18.5156 30.334 18.2969 30.334ZM13.3047 30.3281C13.0859 30.3281 12.9024 30.2539 12.7539 30.1055C12.6016 29.957 12.5254 29.7559 12.5254 29.502C12.5254 29.2441 12.6016 29.043 12.7539 28.8984C12.9024 28.75 13.0859 28.6758 13.3047 28.6758C13.5234 28.6758 13.707 28.75 13.8555 28.8984C14.0039 29.043 14.0781 29.2441 14.0781 29.502C14.0781 29.7559 14.0039 29.957 13.8555 30.1055C13.707 30.2539 13.5234 30.3281 13.3047 30.3281Z" fill="white"/>
<defs>
<clipPath id="clip0_168_309">
<rect width="341" height="176" fill="white" transform="translate(0 13)"/>
</clipPath>
</defs>
</svg>
