<svg xmlns="http://www.w3.org/2000/svg" xmlns:xlink="http://www.w3.org/1999/xlink" width="369" height="157" viewBox="0 0 369 157">
  <defs>
    <clipPath id="clip-Historia_de_Instagram_1">
      <rect width="369" height="157"/>
    </clipPath>
  </defs>
  <g id="Historia_de_Instagram_1" data-name="Historia de Instagram – 1" clip-path="url(#clip-Historia_de_Instagram_1)">
    <g id="Page-1">
      <g id="Artboard" transform="translate(-98 -104)">
        <g id="Group" transform="translate(98 104)">
          <g id="Group-10" transform="translate(221.926)">
            <path id="Fill-1" d="M6.369,12.177,51.922,78.794,0,157H40.273L93.961,78.338,47.931,12.177Z" fill="#0b59de" fill-rule="evenodd"/>
            <path id="Fill-2" d="M105.539,0,76.929,42.292,98.46,72.051,147.074,0Z" fill="#0b59de" fill-rule="evenodd"/>
            <path id="Fill-3" d="M98.012,84.471,139.547,145H97.987L76.929,114.363" fill="#0b59de" fill-rule="evenodd"/>
          </g>
          <g id="CON-" transform="translate(0 34.077)">
            <path id="Path" d="M64.27,51.838a28,28,0,0,1-4.323,14.145,26.086,26.086,0,0,1-11.1,9.509A37.8,37.8,0,0,1,32.53,78.863Q17.4,78.863,8.7,69.011T0,41.2V37.4A46.4,46.4,0,0,1,3.928,17.674,29.745,29.745,0,0,1,15.237,4.61,31.573,31.573,0,0,1,32.319,0q13.972,0,22.46,7.349T64.428,27.6H45.975q-.211-7.006-3.532-10.062T32.319,14.487q-6.907,0-10.123,5.163T18.822,36.139v5.426q0,12.274,3.084,17.543T32.53,64.375q6.379,0,9.754-3t3.585-9.535Z" fill="#fff"/>
            <path id="Shape" d="M138.03,41.038A45.211,45.211,0,0,1,133.865,60.9a30.77,30.77,0,0,1-11.837,13.3,32.978,32.978,0,0,1-17.478,4.662,33.446,33.446,0,0,1-17.4-4.5,30.716,30.716,0,0,1-11.836-12.88A43.9,43.9,0,0,1,70.86,42.25V37.93A45.4,45.4,0,0,1,75,18.043a30.692,30.692,0,0,1,11.863-13.3A33.209,33.209,0,0,1,104.445.053a32.889,32.889,0,0,1,17.4,4.636,31.251,31.251,0,0,1,11.889,13.2,44.1,44.1,0,0,1,4.3,19.623Zm-18.823-3.213q0-11.432-3.822-17.358a12.263,12.263,0,0,0-10.94-5.926q-13.919,0-14.71,20.861l-.053,5.637q0,11.274,3.743,17.332a12.245,12.245,0,0,0,11.124,6.058,12.1,12.1,0,0,0,10.809-5.953q3.795-5.953,3.848-17.121Z" fill="#fff"/>
            <path id="Path-2" data-name="Path" d="M211.684,77.809h-18.4L166.078,30.08V77.809H147.573V1.106h18.505l27.153,47.728V1.106h18.453Z" fill="#fff"/>
            <path id="Path-3" data-name="Path" d="M249.012,50.362H221.333V40.037h27.679Z" fill="#fff"/>
          </g>
          <text id="_2023" data-name="2023" transform="translate(116 155)" fill="#fff" font-size="45" font-family="Roboto-Regular, Roboto"><tspan x="0" y="0">2023</tspan></text>
        </g>
      </g>
    </g>
  </g>
</svg>
