        <svg xmlns="http://www.w3.org/2000/svg" width="156.266" height="28.83" viewBox="0 0 156.266 28.83">
            <style>
                .xs-path {
                    animation: nudge 0.5s;
                }

                @keyframes nudge {
                    0% {
                        transform: translate(-150px, 0);
                    }

                    100% {
                        transform: translate(0, 0);
                    }
                }

                .t-path {
                    animation: show 0.2s;
                }

                .r-path {
                    animation: show 0.4s;
                }

                .a-path {
                    animation: show 0.6s;
                }

                .v-path {
                    animation: show 0.8s;
                }

                .e-path {
                    animation: show 1s;
                }

                .l-path {
                    animation: show 1.2s;
                }

                .g-path {
                    animation: show 1.4s;
                }

                .a2-path {
                    animation: show 1.6s;
                }

                .t2-path {
                    animation: show 1.8s;
                }

                .e2-path {
                    animation: show 2s;
                }

                @keyframes show {
                    0% {
                        opacity: 0;
                    }

                    25% {
                        opacity: 0.25;
                    }

                    50% {
                        opacity: 0.5;
                    }

                    75% {
                        opacity: 0.75;
                    }

                    100% {
                        opacity: 1;
                    }
                }


                .xs1-path {
                    animation: op-nudge 0.4s;
                }

                .xs2-path {
                    animation: op-nudge 0.6s;
                }

                @keyframes op-nudge {
                    0% {
                        transform: translate(50px, 0);
                    }

                    100% {
                        transform: translate(0, 0);
                    }
                }
            </style>
            <g>
                <g>
                    <path class="xs-path" fill="rgb(11,89,222)" fill-rule="evenodd"
                        d="M130.47512223 2.23599958l8.3495447 12.23307781-9.51702753 14.36098324h7.38179557l9.84066382-14.44479468-8.4368859-12.14926637h-7.61809066z" />
                    <path class="xs1-path" fill="rgb(11,89,222)" fill-rule="evenodd"
                        d="M148.65244398 0l-5.24408103 7.76615263 3.94637636 5.4647348L156.26556955 0h-7.61312557z" />
                    <path class="xs2-path" fill="rgb(11,89,222)" fill-rule="evenodd"
                        d="M147.27281463 15.51155627l7.61312557 11.11430785h-7.61786499l-3.85971226-5.6253357" />
                </g>
                <g>
                    <path class="t-path" fill="rgb(24,41,69)" fill-rule="evenodd"
                        d="M0 7.29869236v2.31310027h4.5818586V22.4352604h2.82699364V9.61179263h4.58185862V7.29869236H0z" />
                    <path class="r-path" fill="rgb(24,41,69)" fill-rule="evenodd"
                        d="M23.2979889 22.4350586h2.55352782l-3.80397033-5.58959962c-.12632752-.1953125-.2662201-.36450195-.42034912-.5078125-.15435791-.1430664-.32250977-.2668457-.50442505-.37158203.5322113-.16040039 1.00680542-.3803711 1.42399597-.65942382.41651916-.27929688.76704407-.60400391 1.05088806-.97363282.28340149-.36987304.50057983-.78173828.6515503-1.23486328.15051269-.45385742.22599792-.93530273.22599792-1.44482422 0-.64208984-.11209107-1.22973633-.33628845-1.76416015-.22441102-.53369141-.57312012-.99243164-1.04568482-1.3762207-.47323608-.38378907-1.07936096-.68237305-1.81814575-.89501954-.73945618-.21313476-1.62356567-.31933594-2.65342712-.31933594h-4.63451386V22.4350586h2.82699585v-5.9140625h1.20818329c.28022766 0 .49221802.03833008.63616943.11499024.14328003.07666015.2748108.20581054.39414978.38745117l3.19445801 4.84667969c.21694946.37695312.56747437.5649414 1.05088806.5649414zm-3.32598878-8.13354493c-.39595032.1328125-.86038208.19921875-1.39259338.19921875h-1.76526642v-5.0246582h1.807518c1.0436554 0 1.81950379.20581055 2.32754517.61767578.50804138.4116211.76184082 1.0012207.76184082 1.76879883 0 .38378906-.06306457.73657226-.18893432 1.05761719-.1261139.32080078-.31730652.59838867-.5729065.83227539-.25582886.23339843-.58171081.41674804-.97720337.54907226z" />
                    <path class="a-path" fill="rgb(24,41,69)" fill-rule="evenodd"
                        d="M38.3360138 22.43530273h2.18585204L34.55282593 7.29858398h-2.87963867l-5.97920227 15.13671875h2.20640563c.23843384 0 .43798829-.06591796.5991211-.19873046.16113281-.13232422.26960754-.27905274.32611084-.43969727l1.1347351-3.08789063h6.29490662L37.3899994 21.796875q.11592102.27197266.3471222.4555664c.1539154.12158204.35346984.18286133.5988922.18286133zm-4.65553284-10.75073242l1.84954834 5.03515625h-4.83428955l1.83938598-5.01416015c.09085083-.23046875.185318-.50073243.28385926-.8112793.09785461-.31054688.19232177-.64355469.28340148-.99975586.09785462.35620117.19638062.6875.29446412.9946289.09785461.30712891.19232177.57250977.28363037.79541016z" />
                    <path class="v-path" fill="rgb(24,41,69)" fill-rule="evenodd"
                        d="M53.90994848 7.29864734l-6.1371684 15.13656795h-2.55353755l-6.1371684-15.13656795h2.26968563c.24543247 0 .44476166.05943148.59889142.17806932.15412985.11863785.26961418.27216918.34690504.46036886l3.58385692 9.23304087c.1186483.29985878.23255064.62943339.34102908.98917398.10870443.35929026.21198496.73433892.31029356 1.125146.08407085-.39080708.1749215-.76585574.2732301-1.125146.09808262-.3597406.20656106-.6893152.3258874-.98917398l3.56238712-9.23304087c.05627322-.16051002.16655963-.30683753.33108531-.43965788.1642996-.13237012.36588873-.1987803.60431533-.1987803h2.28030744z" />
                    <path class="e-path" fill="rgb(24,41,69)" fill-rule="evenodd"
                        d="M58.32350734 9.538854v4.1975735h5.31747808v2.16677276h-5.31747808v4.28176805h6.74690762v2.25029208h-9.58429719V7.29869236h9.58429719V9.538854h-6.74690762z" />
                    <path class="l-path" fill="rgb(24,41,69)" fill-rule="evenodd"
                        d="M76.47211042 20.11153449v2.3236808h-8.90088294V7.29864734h2.82676765v12.81288715h6.07411529z" />
                    <path class="g-path" fill="rgb(24,41,69)" fill-rule="evenodd"
                        d="M90.47993288 14.84586017v6.12391886c-.77064897.56549961-1.59169529.97881855-2.46426879 1.24040706-.87234752.26203885-1.80594027.39260798-2.80032602.39260798-1.2402703 0-2.36279632-.1918016-3.36825595-.57562988-1.00545962-.38382837-1.8635694-.91758608-2.57478127-1.60172347-.7109858-.68368715-1.25925398-1.50019467-1.64457846-2.44952255-.38532449-.94887764-.57787378-1.9851015-.57787378-3.10889678 0-1.13752757.18554332-2.18095528.55708203-3.13028315.37131272-.9486525.89833718-1.76516003 1.58152544-2.44929742.68296227-.68391227 1.51146644-1.2140681 2.48506053-1.59091772.97382008-.37729986 2.0667405-.56549955 3.2787612-.56549955.61674519 0 1.19303699.04885087 1.7288753.14655263.5358384.09792687 1.03348324.23209794 1.49248275.40318857.45854744.17109063.87754543.37865057 1.25586403.62267984.37809262.24425439.72477167.51304676 1.04026314.80637715l-.80952038 1.27665125c-.12588025.20283244-.29040593.3264229-.49380302.37167188-.20317111.0456992-.42374393-.00495262-.66171856-.15173037-.23142062-.13237012-.46261535-.26519048-.69403606-.3975606-.23119472-.13259523-.488605-.24785629-.77245693-.34555804-.28317397-.09747664-.60250745-.17806933-.9559664-.2408776-.35391092-.06280826-.76183512-.09409984-1.22445056-.09409984-.74940524 0-1.42739559.12584166-2.03351897.37684962-.60612329.25100796-1.12252594.61074852-1.54965981 1.07809608-.42781193.46779779-.75708927 1.02969543-.98805792 1.68524268-.23119473.6559975-.34690504 1.38898577-.34690504 2.19851459 0 .86535838.12452416 1.63819277.37312069 2.31895335.24837045.68008525.59889142 1.25571522 1.05088496 1.72688972.45199353.4709495.99664578.8306901 1.63418272 1.07809612.63731087.24808142 1.34829667.37167185 2.13318348.37167185.56069805 0 1.06150686-.05898123 1.50287858-.17761902.4415977-.11886304.87234752-.2791479 1.29247551-.48198036v-2.74217754h-1.91261065c-.18215338 0-.32385335-.05065186-.4255519-.15218058-.10147256-.10085349-.1520959-.22466908-.1520959-.37167194v-1.59114282h5.043796z" />
                    <path class="a2-path" fill="rgb(24,41,69)" fill-rule="evenodd"
                        d="M103.86845398 22.43530273h2.18585205l-5.96903992-15.13671875h-2.87919616l-5.97964478 15.13671875h2.2068634c.23797608 0 .43753052-.06591796.59910584-.19873046.16091919-.13232422.26916504-.27905274.32566833-.43969727l1.13473511-3.08789063h6.29490662l1.1347351 3.08789063q.11592103.27197266.3471222.4555664c.1539154.12158204.35346985.18286133.5988922.18286133zm-4.65553284-10.75073242l1.84954834 5.03515625h-4.83428955l1.83938599-5.01416015c.09085083-.23046875.185318-.50073243.28385925-.8112793.09785462-.31054688.19232178-.64355469.283844-.99975586.0978546.35620117.1959381.6875.2940216.9946289.09785462.30712891.19232178.57250977.28363037.79541016z" />
                    <path class="t2-path" fill="rgb(24,41,69)" fill-rule="evenodd"
                        d="M116.7626345 9.61183766h-4.58163227V22.4353054h-2.82676802V9.61183766h-4.58231067V7.29873739h11.99071096v2.31310027z" />
                    <path class="e2-path" fill="rgb(24,41,69)" fill-rule="evenodd"
                        d="M121.59641202 9.538854v4.1975735h5.31747762v2.16677276h-5.31747762v4.28176805h6.74690698v2.25029208h-9.58429673V7.29869236h9.58429673V9.538854h-6.74690698z" />
                </g>
            </g>
        </svg>
